<?xml version="1.0" encoding="utf-8"?>
<!-- Generator: Adobe Illustrator 21.1.0, SVG Export Plug-In . SVG Version: 6.00 Build 0)  -->
<svg version="1.1" id="s-pompeia" xmlns="http://www.w3.org/2000/svg" xmlns:xlink="http://www.w3.org/1999/xlink" x="0px" y="0px"
	 viewBox="0 0 1174.1 800" style="enable-background:new 0 0 1174.1 800;" xml:space="preserve">
<style type="text/css">
	.st0{display:none;}
	.st1{display:inline;}
	.st2{fill:none;stroke:#FFFFFF;stroke-miterlimit:10;}
	.st3{font-family:'Amatic SC';}
	.st4{font-size:12px;}
	.st5{fill:none;stroke:#000000;stroke-miterlimit:10;}
	.st6{font-size:18px;}
	.st7{font-size:14px;}
	.st8{fill:none;}
	.st9{font-size:36px;}
</style>
<g id="root-layer">
	<g id="img-sensors">
		<g id="sensor-temperature" class="st0">
			<g id="sensor-temperature-AT001" class="st1">
				<g id="AT001-sensor-temperature-blackrect">
					<rect x="453" y="355.2" width="95.1" height="63.4"/>
				</g>
				<g id="AT001-temperature-icon">
					
						<image style="overflow:visible;enable-background:new    ;" width="73" height="151" xlink:href="../img/sensors/temperature-inv.png"  transform="matrix(0.2983 0 0 0.2983 458.9101 362.8972)">
					</image>
				</g>
				<text id="AT001-sensor-temp-value" transform="matrix(1 0 0 1 488.6826 391.4695)" class="st2 st3 st4">?</text>
				<text id="AT001-sensor-temp-lastimevalue" transform="matrix(1 0 0 1 453 434.6053)" class="st5 st3 st4">yyyy/mm/dd 24:00</text>
				
					<image style="display:none;overflow:visible;enable-background:new    ;" width="173" height="150" id="AT001-temp-warning" xlink:href="../img/sensors/warning-sign.png"  transform="matrix(0.18 0 0 0.18 550.1053 355.2014)">
				</image>
			</g>
			<g id="sensor-temperature-ATP074" class="st1">
				<g id="ATP074-sensor-temperature-blackrect_1_">
					<rect x="218.2" y="510.5" width="95.1" height="63.4"/>
				</g>
				<g id="ATP074-temperature-icon">
					
						<image style="overflow:visible;enable-background:new    ;" width="73" height="151" xlink:href="../img/sensors/temperature-inv.png"  transform="matrix(0.2983 0 0 0.2983 224.1205 518.1657)">
					</image>
				</g>
				<text id="ATP074-sensor-temp-value" transform="matrix(1 0 0 1 253.8931 546.738)" class="st2 st3 st4">?</text>
				<text id="ATP074-sensor-temp-lastimevalue" transform="matrix(1 0 0 1 218.2104 589.8738)" class="st5 st3 st4">yyyy/mm/dd 24:00</text>
				
					<image style="display:none;overflow:visible;enable-background:new    ;" width="173" height="150" id="ATP074-temp-warning" xlink:href="../img/sensors/warning-sign.png"  transform="matrix(0.18 0 0 0.18 314.03 511.9205)">
				</image>
			</g>
		</g>
		<g id="sensor-light" class="st0">
			<g id="sensor-light-AT001" class="st1">
				<g id="AT001-sensor-light-displayarea">
					<g id="AT001-sensor-light-blackrect">
						<rect x="451" y="375.6" width="95.1" height="63.4"/>
					</g>
					<text id="AT001-sensor-light-value" transform="matrix(1 0 0 1 503.139 413.8517)" class="st2 st3 st7">?</text>
					<text id="AT001-sensor-light-lastimevalue" transform="matrix(1 0 0 1 450.9506 454.9915)" class="st5 st3 st4">yyyy/mm/dd 24:00</text>
					
						<image style="overflow:visible;enable-background:new    ;" width="97" height="150" id="AT001-light-icon" xlink:href="../img/sensors/light-inv.png"  transform="matrix(0.3864 0 0 0.3864 455.0238 376.26)">
					</image>
					
						<image style="display:none;overflow:visible;enable-background:new    ;" width="173" height="150" id="AT001-light-warning" xlink:href="../img/sensors/warning-sign.png"  transform="matrix(0.18 0 0 0.18 548.0558 375.5876)">
					</image>
				</g>
			</g>
			<g id="sensor-light-ATP074" class="st1">
				<g id="ATP074-sensor-light-displayarea">
					<g id="ATP074-sensor-light-blackrect">
						<rect x="211.3" y="512" width="95.1" height="63.4"/>
					</g>
					<text id="ATP074-sensor-light-value" transform="matrix(1 0 0 1 263.4679 550.2656)" class="st2 st3 st7">?</text>
					<text id="ATP074-sensor-light-lastimevalue" transform="matrix(1 0 0 1 211.2795 591.4053)" class="st5 st3 st4">yyyy/mm/dd 24:00</text>
					
						<image style="overflow:visible;enable-background:new    ;" width="97" height="150" id="ATP074-light-icon" xlink:href="../img/sensors/light-inv.png"  transform="matrix(0.3864 0 0 0.3864 215.3527 512.6738)">
					</image>
					
						<image style="display:none;overflow:visible;enable-background:new    ;" width="173" height="150" id="ATP074-light-warning" xlink:href="../img/sensors/warning-sign.png"  transform="matrix(0.18 0 0 0.18 308.3848 512.0013)">
					</image>
				</g>
			</g>
		</g>
		<g id="sensor-humidity" class="st0">
			<g id="sensor-humidity-AT001" class="st1">
				
					<image style="overflow:visible;enable-background:new    ;" width="121" height="150" id="AT001-hum-icon" xlink:href="../img/sensors/humidity-inv.png"  transform="matrix(1 0 0 1 451.7578 347.1138)">
				</image>
				<text id="AT001-sensor-humidity-value" transform="matrix(1 0 0 1 474.4843 453.9907)" class="st2 st3 st4">0%</text>
				<text id="AT001-sensor-humidity-lastimevalue" transform="matrix(1 0 0 1 454.7578 513.6859)" class="st5 st3 st4">yyyy/mm/dd 24:00</text>
				
					<image style="display:none;overflow:visible;enable-background:new    ;" width="173" height="150" id="AT001-humidity-warning" xlink:href="../img/sensors/warning-sign-inv.png"  transform="matrix(0.15 0 0 0.15 539.5069 363.8212)">
				</image>
			</g>
		</g>
		<g id="sensor-presence" class="st0">
			<g id="sensor-presence-ATP074" class="st1">
				
					<image style="overflow:visible;enable-background:new    ;" width="131" height="150" id="ATP074-icon-1" xlink:href="../img/sensors/presence-inv.png"  transform="matrix(0.6667 0 0 0.6667 205.2949 499.6975)">
				</image>
				
					<image style="display:none;overflow:visible;enable-background:new    ;" width="131" height="150" id="ATP074-icon-0" xlink:href="../img/sensors/presence.png"  transform="matrix(0.5 0 0 0.5 223.1281 524.6953)">
				</image>
				<rect x="283.4" y="559.5" class="st8" width="25" height="28"/>
				<text id="ATP074-sensor-presence-value" transform="matrix(1 0 0 1 283.4022 583.2733)" class="st3 st9">?</text>
			</g>
		</g>
		<g id="sensor-proximity" class="st0">
			<g id="sensor-proximity-AT001" class="st1">
				
					<image style="overflow:visible;enable-background:new    ;" width="150" height="150" id="AT001-proximity-icon" xlink:href="../img/sensors/proximity.png"  transform="matrix(0.6259 0 0 0.6259 456.8575 365.0137)">
				</image>
				<text id="AT001-sensor-proximity-value" transform="matrix(1 0 0 1 482.8578 479.8307)" class="st5 st3 st4">0%</text>
				<text id="AT001-sensor-proximity-lastimevalue" transform="matrix(1 0 0 1 463.1313 499.526)" class="st5 st3 st4">yyyy/mm/dd 24:00</text>
				
					<image style="display:none;overflow:visible;enable-background:new    ;" width="173" height="150" id="AT001-proximity-warning" xlink:href="../img/sensors/warning-sign.png"  transform="matrix(0.15 0 0 0.15 462.0484 430.3141)">
				</image>
			</g>
			<g id="sensor-proximity-ATP074" class="st1">
				
					<image style="overflow:visible;enable-background:new    ;" width="150" height="150" id="ATP074-proximity-icon" xlink:href="../img/sensors/proximity.png"  transform="matrix(0.6259 0 0 0.6259 205.865 470.0407)">
				</image>
				<text id="ATP074-sensor-proximity-value" transform="matrix(1 0 0 1 231.8653 584.8578)" class="st5 st3 st4">0%</text>
				<text id="ATP074-sensor-proximity-lastimevalue" transform="matrix(1 0 0 1 212.1388 604.553)" class="st5 st3 st4">yyyy/mm/dd 24:00</text>
				
					<image style="display:none;overflow:visible;enable-background:new    ;" width="173" height="150" id="ATP074-proximity-warning" xlink:href="../img/sensors/warning-sign.png"  transform="matrix(0.15 0 0 0.15 211.056 535.3411)">
				</image>
			</g>
		</g>
		<g id="sensor-pressure" class="st0">
			<g id="sensor-pressure-AT001" class="st1">
				
					<image style="overflow:visible;enable-background:new    ;" width="123" height="150" id="AT001-pressure-icon" xlink:href="../img/sensors/pressure.png"  transform="matrix(0.6845 0 0 0.6845 468.7354 364.1943)">
				</image>
				<text id="AT001-sensor-pressure-value" transform="matrix(1 0 0 1 489.8876 502.4035)" class="st5 st3 st4">0%</text>
				<text id="AT001-sensor-pressure-lastimevalue" transform="matrix(1 0 0 1 470.1611 522.0988)" class="st5 st3 st4">yyyy/mm/dd 24:00</text>
				
					<image style="display:none;overflow:visible;enable-background:new    ;" width="173" height="150" id="AT001-pressure-warning" xlink:href="../img/sensors/warning-sign.png"  transform="matrix(0.15 0 0 0.15 476.6568 370.0705)">
				</image>
			</g>
			<g id="sensor-pressure-ATP074" class="st1">
				
					<image style="overflow:visible;enable-background:new    ;" width="123" height="150" id="ATP074-pressure-icon" xlink:href="../img/sensors/pressure.png"  transform="matrix(0.6845 0 0 0.6845 209.1751 442.9412)">
				</image>
				<text id="ATP074-sensor-pressure-value_x3D_" transform="matrix(1 0 0 1 230.3273 581.1504)" class="st5 st3 st4">0%</text>
				<text id="ATP074-sensor-pressure-lastimevalue" transform="matrix(1 0 0 1 210.6008 600.8457)" class="st5 st3 st4">yyyy/mm/dd 24:00</text>
				
					<image style="display:none;overflow:visible;enable-background:new    ;" width="173" height="150" id="ATP074-pressure-warning" xlink:href="../img/sensors/warning-sign.png"  transform="matrix(0.15 0 0 0.15 217.0966 448.8174)">
				</image>
			</g>
		</g>
	</g>
</g>
</svg>
