<?xml version="1.0" encoding="utf-8"?>
<!-- Generator: Adobe Illustrator 21.1.0, SVG Export Plug-In . SVG Version: 6.00 Build 0)  -->
<svg version="1.1" id="Layer_1" xmlns="http://www.w3.org/2000/svg" xmlns:xlink="http://www.w3.org/1999/xlink" x="0px" y="0px"
	 viewBox="0 0 1615.7 1160.5" style="enable-background:new 0 0 1615.7 1160.5;" xml:space="preserve">
<style type="text/css">
	.st0{font-family:'AmaticSC-Regular';}
	.st1{font-size:36px;
  pointer-events:none;}
	.st2{
  fill:none;
  pointer-events:all;}
    .st2:hover {fill:#ffffff;}
</style>
<g id="generalplan">
	<g>
		<path d="M536.3,897c-10.4,2.4-151,3.1-156.6,3.7c-10,1.2-12.5,7.5-6.6,16.7c4.7-0.7,9.6,0.3,14.3,0.3c10.2,0.1,49.1-5.8,58.4-6.2
			c1.2-0.1,3.5,1.4,3.4,2c-0.3,5.9,5.8,6.8,7.4,11c5.1-0.7,8.6-2.3,8.7-7.9c0-1.3,1-3.5,1.9-3.7c4.2-1.2,9-3.2,12.9-2.3
			c6.8,1.6,50.2-0.8,52.6-0.4c7.2,1.4,8.6,0.5,10.1-6.8C544,897.3,542.6,895.6,536.3,897z"/>
		<path d="M810.3,687.5c-0.7-0.2-1.3-0.3-2-0.5c-0.5,1.1-1.1,2.1-1.3,3.2c-0.9,5.1-1.6,10.2-2.4,15.4c-0.5,3.1-0.9,6.2-1.4,9.3
			c0.6,0.1,1.2,0.2,1.8,0.3C809.9,706.6,812.3,697.4,810.3,687.5z"/>
		<path d="M811.8,456.9c0.7-6.2,1.1-12.4,1.6-18.6c-0.4-0.2-0.9-0.4-1.3-0.6c-0.6,0.7-1.7,1.3-1.8,2c-1.3,7.8-2.5,15.6-3.8,23.7
			C811.1,460.7,811.3,460.7,811.8,456.9z"/>
		<path d="M813.5,626.9c-3.3,9.3-2.5,18.3-4.4,26.9C815.7,644.5,817.2,635.8,813.5,626.9z"/>
		<path d="M813.4,317.2c-4.2,6.4-5,13.1-6.9,19.6C815.7,328.2,816.6,325.6,813.4,317.2z"/>
		<path d="M807.1,601.6c2.3-6.3,2.5-12.1,0.9-18.7C803.6,587.9,803.4,594.5,807.1,601.6z"/>
		<path d="M814.2,397.7c-3,4.8-3.8,9.6-3.7,16C817.2,406.2,817.8,403.6,814.2,397.7z"/>
		<path d="M801.2,797.7c3.7-5,4.4-10.3,2.8-17.1C797.9,786.2,801.2,792.3,801.2,797.7z"/>
		<path d="M802.1,549.7c4.4-4.8,4.2-7.3-0.3-13.2C798.1,541,802.3,545.4,802.1,549.7z"/>
		<path d="M806.9,509.3c2.7-4.4,3.7-9.2,2.5-14.4C805,499.2,805.8,504.2,806.9,509.3z"/>
		<path d="M809.8,371.9c2.5-4.5,4.3-8.5-0.3-13.1C805.7,363.5,807.2,367.5,809.8,371.9z"/>
		<path d="M805.5,742.6c-3.8,4.1-4.3,6.8-2.8,14C805.7,752,805.6,747.5,805.5,742.6z"/>
		<path d="M749.6,959.5l0.3-0.3c-0.1,0-0.2,0-0.3,0C749.5,959.3,749.6,959.4,749.6,959.5z"/>
		<path d="M1605.1,869.5c-7.5-0.5-15-1.4-22.5-1.9c-19.5-1.2-39.1-2.2-58.7-3.4c-6.3-0.4-12.5-1.6-18.7-1.8
			c-9-0.3-18.1,0.3-27.1-0.2c-6.4-0.3-12.8-1.9-19.2-2.6c-3-0.3-6.5-1.1-8.9,0.1c-4.9,2.5-9.8,1.6-14.7,1.6c-8-0.1-16.1-1.1-24-0.7
			c-6.6,0.4-12.9-0.2-19.3-1.7c-5.5-1.3-11.2-2.9-16.9,0c-1.8,0.9-4.4,0.4-6.7,0.3c-17-0.3-34.2-1.7-51.1-0.6
			c-17.6,1.1-35-0.2-52.5-1.1c-8.8-0.5-17.6-1.5-26.3-2.9c-17.2-2.9-34.3-4.9-51.7-2.4c-8.5,1.3-17,0.3-25.4-1.3
			c-5.9-1.1-11.9-1.7-17.9-2.2c-5-0.5-10-0.5-15-1c-10.2-1.1-20.4-3.1-30.6-3.5c-22.3-0.8-44.7-0.8-67-1.2
			c-13-0.2-26.1-0.9-39.1-0.9c-15.5,0-31.1,0.9-46.6,0.9c-17-0.1-34.1-0.6-51.1-1.4c-30.1-1.5-60.1-3.3-90.2-5
			c-1.1-0.1-2.3-0.8-3.7-1.4c0-3.4,0-6.5,0-9.6c-1.2,1.9-1.2,3.9-1.3,5.8c-0.2,3.4-1.8,4.6-5.3,4.7c-12.3,0.1-24.6,0.5-36.9,0.9
			c-15.8,0.5-31.6,1.3-47.4,1.6c-18.1,0.3-36.1-0.4-54.1-1.3c-24.3-1.2-48.6-1.7-72.8-4.3c-20.1-2.2-40.5-2.2-60.8-2.8
			c-11.5-0.4-23.1-0.1-34.6,0c-11.3,0-22.6,0.7-33.9,0.1c-16.3-0.9-32.4-3.3-48.7-3.3c-19.5-0.1-39-1.9-58.6-2.8
			c-1.9-0.1-3.9,0.6-5.8,1c-3.3,0.6-6.6,1.3-10.8,2.1c0-5.8-0.2-10.5,0-15.1c1.3-23.6,2.8-47.1,4.1-70.7c0.6-11.8,1.1-23.6,1.6-35.3
			c0.4-10.5,0.7-21,1.1-31.5c0.2-3.8,0.8-7.5,1-11.3c1-18.3,1.9-36.6,2.8-54.9c0.8-14.8,0.9-29.7,2.4-44.4
			c2.7-25.2,6.5-50.3,9.3-75.5c1.3-11.5,1.8-23,2.1-34.6c0.3-11.3-0.1-22.6-0.1-33.9c0-4.4-2.1-16.9-2.9-24.5
			c17,1,34.4,1.5,52.1-0.5c0.8-5.9,1.7-10.8,2-15.7c1-13.5,1.6-27,2.6-40.5c0.4-5.4-0.4-6.9-5.9-6.9c-10.8-0.1-21.5,0.1-32.3,0.3
			c-6.1,0.1-12.1,0.5-18.8,0.8c1.9-13.2,3.3-34.4,5.3-44.7c5.6-0.7,10.3-2,15-1.8c9.9,0.4,19.8,2,29.7,2.4
			c10.7,0.5,21.5,0.2,32.2,0.4c5.5,0.1,11,0.4,16.5,1c8.2,1,16.3,2.2,24.6,1.3c13.7-1.5,27.4-2.8,41.1-3.6c9.6-0.5,19.4-0.7,29,0.5
			c9.5,1.2,18.8,2.9,28.4,2.2c3.2-0.2,6.5,0.3,9.7,0.7c8.4,1,17,3.7,25.3,2.8c14.1-1.4,28.1,0.4,42.1-0.4c12-0.7,24-2,36-2.5
			c10-0.4,20-0.6,29.9,0c6.7,0.5,13.2,2.9,19.8,4c6.1,1,12.4,1.2,18.5,2.2c11.4,1.7,22.7,3.7,34,5.5c9.1,1.5,18.2,3.1,27.3,4.2
			c8.2,1,16.6,0.9,24.7,2.4c7.6,1.4,15.2,2.2,23,2.3c5,0,9.9,0.8,14.9,1.6c6.4,1,12.7,3.3,19.1,3.5c15.2,0.6,30.4,0.3,45.6,0.6
			c8.5,0.2,16.9,1.5,25.4,1.4c19.7-0.2,39.5-0.2,59.1-2.9c13.4-1.9,26.9-3.1,40.4-2c1.3,0.1,10.6,1.6,16,2.4
			c0.7,1.2,1.5,2.4,2.3,3.7c4.7-3.5,113-0.3,113.3-0.2c6.7,1.6,40.5,1.9,48.9,0.9c5.5-0.7,8.6-3.2,10.3-8.5
			c2.5-7.7,5.2-15.2,8.5-22.6c8.7-19.4,17.8-38.5,26.7-57.7c2.8-6.1,5.8-12.2,8.4-18.5c5.3-12.4,10.1-25,15.6-37.4
			c2.7-6.1,6.8-11.7,9.6-17.8c6.7-14.8,13.1-29.8,19.4-44.8c4.4-10.4,8.1-21.1,13-31.2c7.6-15.9,16.6-30.9,27.5-44.9
			c4.1-5.3,7.2-11.5,10.4-17.4c0.9-1.6,0.6-6.9,1-9c-1.9-0.3-12.1-0.6-16.6-0.2c-9,0.9-60.9,3.7-74.2,3.9
			c-10.2,0.2-47.8-0.6-50.6,2.3c1.6,0.4-0.9,5.2-0.3,6c-5.1,0.1-12.1,0.3-12.9,0.3c-16.6-0.1-33.1,0.1-49.7-0.2
			c-7.8-0.1-15.5-1.1-23.3-1.3c-10.5-0.3-21-0.6-31.5-0.3c-8.8,0.2-17.5,1.3-26.3,1.8c-5,0.3-9.9-0.3-12.4-3.8
			c-5.6,1.7-10.2,3.8-14.9,4.5c-8.4,1.2-17,2.1-25.5,2.2c-12.7,0.1-25.5-0.5-37.9-0.8c-1.3-2.8-2.3-5-3.5-7.6
			c-1.4,1.2-2.5,1.7-2.7,2.4c-1.3,4.8-4.8,6.1-9.1,6c-16-0.2-32.1-0.4-48.1-0.8c-11-0.3-22-1.5-33-1.3c-20.3,0.4-40.6,1.4-60.9,2.3
			c-4.2,0.2-8.4,0.9-12.7,1.2c-5.7,0.4-12.2,2.4-17,0.4c-5.1-2.1-8.6-1-12.7,0.7c-5.5,2.2-10.9,3.1-16.6,0.3
			c-1.2-0.6-2.9-0.5-4.3-0.5c-14.3,0-28.6,0.3-42.8,0.1c-10.8-0.2-21.5-1-32.3-1.4c-17.6-0.6-35.1-0.8-52.7-1.7
			c-14.5-0.7-29-2.4-43.5-3.1c-9.2-0.5-18.5,0.1-27.8-0.1c-8.5-0.1-17.1,0-25.6-1.1s-16.8,0.8-25.2,0.4c-9.3-0.5-18.5-0.8-27.8-0.9
			c-3.2-0.1-6.5,0.8-9.7,0.5c-22.7-1.9-45.4-4.1-68.1-6.1c-6.7-0.6-13.5-0.7-20.2-0.9c-5-0.2-10-0.1-15-0.4c-6-0.4-12-1.2-18-1.6
			c-16.2-1.1-32.4,0.9-48.6-0.9c-0.9-0.1-1.9,0.5-2.9,0.6c-3.9,0.3-7.9,0.9-11.8,0.6c-4-0.2-7.9-1.5-11.9-1.8
			c-9.7-0.8-19.5-1.5-29.3-2.1c-20.8-1.2-41.5-2.6-62.3-3.5C209.8,4.6,194,4.4,178.2,4c-6.8-0.2-13.5-0.3-20.3-0.5
			c-15-0.5-30-2.9-45.1-1.2c-5.5,0.6-11.2,1.4-16.5,0.6C84.7,1.1,73.1,2.4,61.4,0.7C50.9-0.8,39.9,0.6,29.2,0.8
			c-7,0.1-13.9,0.4-20.3,0.6c-5.1,9.8-5.1,9.8,2.4,16.5c0.7,0.7,47.1,219.4,48.8,232.3c5.7,0.4,6.6,4.3,6,10c-0.7,5.9,0.1,12-0.1,18
			c-0.2,6.7,0.2,13.7-1.6,20c-1.7,6.2-2.6,12.1-1,18.7c3.6,1.2,5.7,3.7,6.8,7.2c-0.1,15.6-0.8,39.8-1.1,48.1
			c-0.5,16,0.9,33-0.9,48.9c-0.8,7,0.2,14.9-5.5,19c0,9.1,0.3,17.1,0,25c-0.3,7-1.1,14-1.7,21c-1.3,13.5-2.4,26.9-4.1,40.3
			c-2,16.2-5.6,32.2-4.6,48.6c0.4,5.7,1,11.5,0.9,17.2c-0.3,23.9-1.1,47.7-1.4,71.6c-0.2,18.6-0.3,37.2-0.1,55.8
			c0.2,13.5,1,27.1,1.3,40.6c0.2,11.2,0,22.5,0,33.7c-2.7,1.3-4.8,2.3-6.7,3.2c0,6-1.3,11.9,0.4,16.8c1.3,3.8,1.4,7,1.3,10.7
			c-0.2,6.7,1.1,13.4-1.3,20c-0.2,0.7,0.1,1.5,0.1,2.2c-0.2,8.2-0.4,16.5-0.8,24.7c-0.3,7.8-0.9,15.5-1.3,23.3
			c-0.2,3.7,0,7.4-0.5,11.1c-0.8,5.4-1.2,10.5,4,13.9c-2.1,10.7-46.6,164.6-47.6,169.4c-0.4,1.8-0.3,3.7-0.6,6.6
			c4-0.9,7.1-1.7,10.2-2.4c5.2-1.3,10.8-2.8,15.2,0.6c5.4,4.2,10,3.2,14.9,0.4c3.7-2.1,7.9-3.2,12.2-2.9c5.5,0.4,11.2,0.8,16.5-0.3
			c8.5-1.8,16.8-1.8,25.2,0.3c1.3,0.3,3.6,0.4,4.2-0.3c2.7-3.4,6.3-2.5,9.7-2.5c5.8,0,11.5,0,17.3-0.3c1.3-0.1,31.5-0.7,48.7-1.2
			c6.6,0.7,13.1,1.4,19.7,1.8c3.7,0.2,7.4-0.9,11.1-1.1c12.2-0.6,24.5-1.4,36.7-1.6c9.2-0.2,18.5-0.3,27.7,0.5
			c11.7,1.1,23.2,3.2,34.9,4.8c1.7,0.2,3.7,0.8,5.2,0.3c4.2-1.6,7.1-0.5,9.8,3c1.9,2.5,5.6,3.3,6.8,0.3c2-4.9,5.3-3.7,8.6-3.4
			c9.2,1,18.3,2.3,27.5,3.3c4.5,0.5,9.2-0.2,13.4,0.9c6.7,1.8,13.3,1.9,20.1,1.1c1.2-0.1,2.5-0.2,3.7-0.2
			c12.7,0.2,25.5,1.3,38.2,0.6c19.3-1.1,38.4-1.2,57.6,1c5.9,0.7,12,0.4,17.9,0.2c13.7-0.5,27.3-2.6,41.1-1.1
			c10.4,1.1,20.9,1,31.3,1c12.9,0.1,26,1,38.7-0.7c11.1-1.5,22-0.9,32.9-0.9c12.5,0,25-0.7,37.4-1.7c2.8-0.2,5.6-0.7,8.4-1
			c1.2,0.1,2.6-0.1,4-0.3c1.8-0.1,3.6-0.1,5.3,0.1c14.1,1.7,28.3,2.1,42.3,4.7c12,2.2,24.3,2.9,36.5,3.2c15.8,0.4,31.1,4.4,46.9,5.1
			c16.9,0.8,33.9,2.8,50.9,3.1c4.5,0.1,9,0,13.5,0.5c11.4,1.4,22.7,3.1,34.1,4.6c3.9,0.5,7.9,1.1,11.9,1.3
			c7.7,0.5,15.6-0.1,23.1,1.3c13.6,2.4,27.1,4.2,40.9,4.5c15.5,0.3,31,1.9,46.5,2.7c5.3,0.3,10.5,0.2,15.8,0.3
			c18.2,0.5,36.5,2.2,54.7,1.3c16.9-0.9,33.6-1.4,50.4,0c9.7,0.8,19.2,2.4,28.7,3.6c0.4,2.8,0.8,5.2,1,6.7c3.6,0.5,6.4,0.6,8.9,1.4
			c11.3,3.6,11.3,3.6,15.1-7.1c0.9-0.1,1.8-0.3,2.8-0.3c20-0.5,39.3,4.4,58.9,7c20.8,2.7,41.3,7.7,61.9,12c2.8,0.6,6.3,1.7,7.8,3.8
			c2.4,3.2,5.7,4,8.8,5.2c7.4,2.8,10.8,1.1,13.7-6.3c0.3-0.7,0.7-1.3,1.3-2.3c19.3,0.9,38.7,1.9,58.1,2.9c0.9,2.7,1.9,5.4,2.5,7.2
			h15.9c1.4-2.2,2.9-4.5,4.3-6.7c5.8-0.3,11.3-0.4,16.8-1c5.7-0.6,7.8-3.1,8.4-8.6c0.3-3.4,0.8-6.9,1.8-10.2
			c2.2-7.4,4.5-14.8,7.3-22c4.4-11.5,8.6-23.1,13.9-34.1c10.2-21,19.7-42.4,29-63.9c5.9-13.8,12.1-27.4,18.6-41
			c6.7-14,14.3-27.6,21.3-41.5c7.8-15.4,15.4-31,23.3-46.3c1.2-2.2,3.8-3.7,6-5.8C1615.2,873.4,1611.7,869.9,1605.1,869.5z
			 M399.2,336.5c2.8,4,1.2,8.6,1.1,13c-0.4,10.2-1,20.4-1.6,30.7c-0.1,1.2-0.1,2.5-0.3,3.7c-0.7,5.5-0.9,6-6.4,6.2
			c-11,0.4-22,0.4-33,0.2c-5.2-0.1-5.5-0.9-4.9-7.3c1.7-2.3,2.7,3.9,4.5,0.4c8.3-0.6,16.6-1.2,24.9-1.7c0.9-0.1,1.8,0.8,2.7,1.2
			c3.3,1.3,5.3,0,6.1-3.3c1.6-6.2,3.4-12.2,1.9-18.9c-1.3-5.9-0.8-12.3-1-18.5c-2.6-1-5.2-2-8.4-3.3
			C389.7,335.6,390,335.5,399.2,336.5z M388,371.3c0.5,5.6,0,6.2-5.6,7.5c-10.5,2.4-10.5,2.4-16.2,0.1c3.6-11.3,13-17.4,21-25.1
			C392,364,392,364,387,367.2C387.4,368.5,387.9,369.9,388,371.3z M389.7,345.7c-0.5,1-0.9,4.2-2.5,5c-4.5,2.2-6.5,8.9-12.8,6.9
			c-0.1,9-10.3,10.4-13,17.6c-0.5-9-2.2-17.7-0.7-26.5c0.4-2,2.3-3.8,3.7-6C372.6,343,381.2,336.9,389.7,345.7z M1150.2,305
			c-1.1,0-2.2-0.1-3.4-0.1c3.1-12.4,7.3-38.3,7.8-39c7.6,4.2,4.6,9.3,3.5,14.2c-0.5,2.2-1.1,4.4-1.8,6.5
			C1154.3,292.8,1152.2,298.9,1150.2,305z M1165.4,279.9c-0.2,4.5-1,8.9-1.8,13.3c-0.7,4.1-1.8,8.1-2.8,12.3
			c-4.6-0.6-4.7-2.8-4.2-5.2c0.7-3.7,1.7-7.3,2.5-10.9c1.3-6.1,2.6-12.2,3.9-18.2c0.3-1.1,1-2.1,1.9-3.9
			C1168,272,1165.6,276,1165.4,279.9z M1167.1,305.1c1.1-12.7,2.2-25.3,3.4-38.6c3.2,0,5.1,0,7.9,0c-3.2,13.3-5.2,26.4-9.3,39
			C1168.4,305.3,1167.7,305.2,1167.1,305.1z M1174.9,304c2.1-11.1,4.2-22.1,6.4-33.1c0.6-3.2,2.2-4.9,5.7-3.5
			c0.6,9.5-6.3,35.6-11.2,40.3C1175.3,305.8,1174.8,304.9,1174.9,304z M1195.3,278.4c-1.1,7.7-2.6,15.3-4,22.9
			c-0.1,0.7-0.2,1.5-0.6,2.2c-1,2.1-1.2,5.8-4.6,4.8c-3.9-1.1-1.1-4.2-0.8-6.3c1.4-8.4,2.9-16.7,4.5-25.1c0.6-3.2,0.3-6.9,5.3-9.4
			C1195.3,271.7,1195.8,275.1,1195.3,278.4z M1204.9,302.2c-1.2,6.2-1.3,6.3-9.2,6c0-1.6-0.2-3.2,0-4.8c1.1-9.4,2.3-18.8,3.2-28.2
			c0.6-6.5,2.4-7.7,10.5-5c-1.3,9.4-2.5,18.5-3.8,27.6C1205.5,299.2,1205.2,300.7,1204.9,302.2z M1217.1,286.8
			c-0.5,5.7-1,11.5-1.5,17.2c-0.3,3.7-1.8,5.6-6.6,4.5c0.6-5.1,1.2-10.3,1.7-15.4c0.6-7,1.1-14,1.5-21c0.2-3.6,1.5-5.6,6.4-4.6
			C1218.1,273.9,1217.6,280.3,1217.1,286.8z M1221.3,254.7c-0.7,7.4-1.7,8.6-9,9.4c-3.5,0.4-7,0.4-10.5,0.2
			c-8.8-0.4-17.5-1.4-26.3-1.3c-6.3,0.1-20.2,1-20.1-0.4c0.6-4.3,1.1-8.6,1.7-12.9c20.9,1.5,45-2.7,64.3-0.7
			C1221.3,251.2,1221.5,253,1221.3,254.7z M1167.8,238.4c-0.6,3.2-5.5,5.3-10,5.9c1.2-8.7,2.3-17.5,3.5-26.3c3.3-0.6,6.3-1,10.1-1.7
			C1170.1,224.6,1169,231.5,1167.8,238.4z M1175.8,216.2c2.6,0,5,0,8,0c0.3,10.3-3.1,19.3-4.7,29.2c-3.4-0.5-5.7-0.9-8.2-1.3
			C1172.6,234.5,1174.2,225.6,1175.8,216.2z M1192.8,243.3c-4.7,4.7-1.4,1.6-8.1,0.7c-0.4-9.2,1.8-18,4-27c3-0.7,5.8-1.4,9.1-2.1
			L1192.8,243.3z M1198.4,233.5c0.5-4.2,3.2-9.8,3.4-14.1c0.1-2.3,0.8-3.9,4.1-3.8c0.2,1.5,0.8,3.2,0.5,4.7
			c-1.3,6.4-2.7,12.7-4.3,19c-0.4,1.5-1.6,3.4-2.9,4c-1,0.4-2.2,0.9-3.3,1.2C1198,241.6,1198.1,236.1,1198.4,233.5z M1206.9,243.3
			c1.8-9.8,3.4-18.8,5.1-28.1c2.2,0,4.6,0,7.1,0c-0.7,7.8-1.4,15.1-2,22.5c-0.5,6.3-1,6.8-7.3,6.1
			C1208.7,243.8,1207.7,243.5,1206.9,243.3z M1219.6,242.6c1.1-8.1,2-16.2,3.4-24.2c0.6-3.5,1-3.5,5.9-4.3
			c1.2,9.3-2.1,17.7-4.7,26.3c-0.4,1.3-2.1,2.3-3.1,3.4C1220.6,243.4,1220.1,243,1219.6,242.6z M1284.1,219.6
			c-12.5,28.7-25.1,57.3-37.5,85.4c-8.9,1.7-16.7,3.1-25,4.7c0-6.7-0.1-12.9,0-19.1c0.1-4.5,0.6-9,1.1-13.5c0.5-3.7,1.3-7.4,2-11
			c0.2-1,0.9-1.9,0.8-2.9c-0.7-11.8,4.2-22.6,6.4-33.9c0.8-4.1,1-8.5,1-12.7c-0.1-3.6,1.2-5.1,4.8-5c3.7,0.1,7.3,0,11.5,0
			c0.3,2.2,0.7,4.6,1.1,7c9.3,5.5,11.3,4.9,13.8-4.3c6.9-4.7,13.8-0.9,21.2-0.3C1284.8,216.2,1284.8,218,1284.1,219.6z
			 M1100.5,158.2c0.9-0.9,1.2-2.8,1.2-4.3c0.6-14.8,1.2-29.6,1.5-44.4c0.2-9-1-18-0.4-26.9c1.1-14.5,3.1-28.9,4.8-43.4
			c0.4-3.6,0.9-7.3,1.3-10.9c4.6-0.3,8.4-0.3,12.1-0.9c15.1-2.6,30.4-2.2,45.6-1.8c1.5,0,3.1,0.2,4.4,0.9c7.2,4.2,14.9,2.4,22.5,2.1
			c3-0.1,5.9-0.5,8.9-0.4c10.7,0.4,21.4,1.1,32.2,1.3c2.7,0.1,15.9-0.2,22.9-0.7c0,0.5-0.1,1.1-0.2,1.6c-0.3,3.4-0.9,6.8-1.4,10.3
			c5.3,2.8,9.9,0.3,14.5-0.3c1-0.1,2-3,2.5-4.8c0.7-2.6,0.9-5.2,1.2-7.5c5,0.4,9.3,1.6,13.3,0.9c5.7-0.9,11.2-0.8,16.9-1
			c19-0.5,38-1.9,57.1-2.9c4.2-0.2,8.3,0,13.3,0c-1.5,5.6-4.5,9.3-6.8,13.4c-6,10.7-12.2,21.3-17.7,32.2c-2.8,5.5-3.9,11.9-6.3,17.7
			c-3.3,8.1-7,16.1-10.6,24.1c-6.2,13.5-12.4,26.9-18.6,40.3c-4.5,9.8-9.2,19.4-13.7,29.2c-3.5,7.7-6.8,15.5-9.9,22.6
			c-7.9,0-14.6,0-21.3,0c-2,0-3.4-0.7-5-2.5c-4.5-4.9-8.3-4.7-13.5-0.4c-1.4,1.1-3.4,1.7-5.2,2c-2.2,0.3-4.5,0-6.7,0.2
			c-16.8,1.1-33.5,2.7-50.3,3.2c-14.8,0.4-29.6-0.6-44.4-0.9c-6.4-0.1-12.9,0-18.9,0c-4.3-6.5-8.2-12.5-12.2-18.6
			c6.8-10,6.8-10,4.4-15.5c-6.7,0-13.3,0-20.2,0C1097.7,167,1096.5,162.2,1100.5,158.2z M816.7,172.1c1-7.1,1.8-14.4,1.3-21.6
			c-1.1-17.9-0.9-35.6,2-53.3c1.8-10.9,3.5-21.8,5.1-32.7c0.5-3.5-0.5-7.8,1.3-10.3c2.1-3.1,0.4-5.3-0.2-7.8c3.2-1,5.9-1.8,8.7-2.7
			c0.2-3.7,0.3-6.9,0.4-9.5c16-4.5,31.9-4.5,47.9-4.9c11.7-0.2,23.3-1.1,35-1.5c3.1-0.1,6.3,0.2,10.4,0.3c0,5.6,0,10.3,0,15
			c0,2.4,1.8,4.6,3.6,3.3c4.9-3.4,9.6-1,15-0.5c3.2-5.4,0-12.9,4.9-18c2.7,0.5,5.1,1.2,7.6,1.3c15.5,0.5,31,0.7,46.5,1.2
			c2.6,0.1,5.2,0.8,8.4,1.3c0.6,11.9,1.1,23.1,1.7,34.2c0.6,11,1.3,21.9-0.2,33c-1.4,11.1-0.3,22.6-1.5,33.8s1.7,22.6-1.1,33.6
			c-0.8,0.1-0.8,0.1-1.6,0.2c-3.2-6.5-6.3-12.9-9.5-19.4c-0.9,0.1-1,0.1-1.9,0.2c-2.5,8.5-5,17-7.6,25.9c-0.5,0-11.3-7.4-14.5-6.7
			s-3.9,3.3-3.4,6.5c0.3,1.9,0.1,3.9,0.1,5.4c-10.7,2.5-20.7,4.7-30.6,7.1c-3.6,0.9-7.5,1.8-9.1,5.9c-1.6,4.2-3.5,8.4-4.5,12.7
			s-5.2,7-4.5,12.2c0.5,3.6-2.3,6.1-6.5,5.8c-1.3-0.1-2.5-0.2-3.8-0.2c-12.1,0.2-24.3,0.4-36.4,0.5c-3.5,0.1-7.3,1-10.4-0.1
			c-4.8-1.7-9.1-0.9-13.9-0.9c-2.1,0-4.2-0.3-6.3-0.7c-0.1,0-0.1,0-0.2,0l1.5-10.8c0.3-1.8-2-3.1-3.7-2.1l-0.2,0.1
			c-0.3,0.2-7.1,4.2-13.8,9.1c-1.7,1.2-3,3.7-4.1,5.9c-0.9,1.7-3.7,1.6-4.4-0.2c-0.6-1.4-1.1-2.7-1.6-3.2c-4.9-5-10.1-9.4-10.3-9.6
			l-0.2-0.2c-0.1-0.1-0.2-0.2-0.4-0.3c-0.3-1.4-0.5-2.8-0.3-4.1C812.6,194.3,815.2,183.2,816.7,172.1z M355.3,42.6
			c3.3-0.5,6.3-1.2,9.4-1.3c3.4-0.1,4.5-1.8,4.4-4.8c-0.1-2.8-0.6-5.5-0.7-8.3c-0.1-3.9,0-7.7,0-11.8c1.9-0.3,2.8-0.5,3.8-0.5
			c11.5,0.2,23,0.4,34.5,0.6c9.4,0.1,35.4,1.3,35.6,2.5c0.5,2.6,5.1,8.2,2.6,17.8c-1,3.8-1.3,7.8-1.9,11.5
			c3.5,2.7,14.3,0.5,16.7,1.4c1.2,0.4,2.7-0.4,4.2-0.6c0.9-9.9-4.7-19.9,2.4-29.6c4.2,0.3,8.9,0.3,13.5,1.2c10.6,2,21,6,32.2,3.3
			c2.5-0.6,5.1-0.8,7.7-0.8c1.8,0,3.8-0.4,5.7-0.3c10.2,0.6,20.4,1.3,30.6,2c1.9,0.1,3.8,0.5,6.6,0.8c-1.8,7.7,0.9,13.7,4.8,19.5
			c0.8,1.2,0.6,3.4,0.5,5.1c-0.4,11.4-1.5,22.8-0.9,34.2c0.8,15.4,0.1,30.8-3.1,45.8c-3.3,15.2-2.6,30.6-3.7,45.9
			c-0.2,2.7-0.8,7.9-1.5,14.2l-1.7,1.1c-0.3,0.2-7.1,4.6-13.8,9.9c-3,2.3-4.6,8.7-6.5,10.5c-1.5-1.9-2.5-6.6-3.6-7.8
			c-4.9-5.5-10.1-10.3-10.3-10.5c0,0-2.9-4.5-4.2-4c-5.7,2.5-1.3,22.8-0.2,27.3c-11.1-3-36.3-4-41.3-3.5c-1-4.3-1.1-9.1-6-9.9
			c-5.8-0.9-11.7-1.1-18-1.7c-0.6,4.8-1.1,8.6-1.6,13.2c-30.1,1.4-59.7,4.1-89.3,3c-4.1-5.4,1.3-7.8,3-10.9c-1-3.6-1.9-6.8-2.9-10.5
			c-3.6,0.8-7.2,1.6-11.6,2.6C352.1,146.3,353.7,94.7,355.3,42.6z M62.1,158.3c-3.7-10.6-6.8-21.4-10.2-32.1
			c-0.7-2.1-1.2-4.4-2.2-6.3c-4.4-8.7-6.3-18-6.8-27.5c-0.7-12.6-3.6-24.7-7-36.8c-2.2-8-4.1-16.1-5.9-24.2c-0.6-2.9-0.5-6-0.3-9
			c0.5-5.6,3.6-7.9,9-7.7c4.2,0.1,8.3,0,13.5,0C53,19.3,54,24.8,55,30.8c2.1,0.5,4.4-1.1,7.1,0.1c2.5,1.1,5.9,0.6,9.3,0.8
			c2.7-5.2,3-10.2-1.1-15c-1-1.2-2.4-2.1-2.8-3.4c-0.8-2.1-1.1-4.9,1.6-5.8c3.2-1.1,6.7-2,10.1-2c7.6,0.1,15.2,1.2,22.8,1.2
			c15.9-0.2,31.8-2.1,47.8-0.1c7.5,0.9,15.2,0.9,22.8,1.5c2.7,0.2,5.3,1.2,9,2.1c0,3.9,0,7.9,0,11.8c-0.1,7.1,1.9,9.5,8.8,10.6
			c1.2,0.2,2.5,0.3,3.7,0.4c9.7,0.4,12.7-2.5,12.3-12.2c-0.2-3.7-0.4-7.5-0.7-11.5c4.4,0,8.5,0,12.7,0c9,0,18-0.3,27,0.1
			c8.9,0.4,17.8,1.8,26.7,2.4c9.7,0.6,19.4,0.8,29.1,1c8.2,0.2,16.4,0.3,24.3,3.2c4.4,1.6,9.2,1.9,14.5,2.9
			c-1.8,62.3-3,124.1-5.6,186.2c-6.7-2.7-11.6-8.8-15.4-18.7c-6.5,2.6-5.8,11.9-13.4,13.7c-1.9-6.1,2.3-13.3-3-19.4
			c-12.2-0.6-24.9-1.4-37.7-1.8c-13.5-0.4-27.1-0.5-40.6-0.4c-16.3,0.1-32.5,0.4-48.8,0.6c-3,0-6-0.2-9,0.1
			c-7.3,1-10.8,5.9-8.2,12.7c2,5,1.8,9.7,1.5,14.7c-0.4,6.5-0.1,13-0.1,20.6c-25,0.9-48.7,1.9-72.4,2.8c-4.1-4.6,2.4-13.1-6.6-15.9
			c-0.8,3-1.7,6-2.5,8.9c-0.3,0-0.7,0.1-1,0.1c-1-5.6-2.2-11.1-2.8-16.7C72.4,189.7,67.5,173.9,62.1,158.3z M208.8,264.6
			c-3,0-6.1,0-9.7,0c2.5-8.8,0.4-17.2,4.4-25.1c5.4,1.8,4,5.6,3.7,8.8C207,250.8,206.8,259.5,208.8,264.6z M233,205.4
			c0.3,2.5,1.3,4.6,0.7,5.9c-1.4,3.2-1.9,6.3,0.9,10.5c-5.1-0.7-8.9-0.7-12.2-1.9c-3-1.1-7.2,3.2-8.7-1.3c-0.9-2.8,0-6.4,0.8-9.5
			c1.1-4.5,2.7-8.9,4.1-13.4c6.4,0,11.9,0,18.8,0c-5.2,9-16.1,10.7-19.4,20.4C223.8,214.3,227.3,209.3,233,205.4z M217.9,240.3
			c0.7,8.2-0.5,16-2.3,24.3c-1.7,0-3.4,0-5.1,0c0.1-5.3-0.6-14.4-0.3-17.2C210.6,243.2,212.1,240.2,217.9,240.3z M210.3,267.2
			c5-0.2,6,0.8,5.6,6.8c-9.3,0.9-18.3-1.3-27.5-2.7c-4.5-0.7-9-1.2-13.5-1.5l0,0l0,0c-8.2-0.5-16.4-0.2-24.6,1.4
			c-4.5,0.9-9.4-0.2-14.1-0.7c-1.2-0.1-3.4-1.8-3.3-2.4c0-0.1,0-0.2,0-0.3c10.4,0,23-0.1,33,0c9.7-0.3,27.4-0.2,31.7-0.5
			C201.7,267.3,206,267.4,210.3,267.2z M215.4,278.6c-2.4,7.8-4.5,14.6-6.6,21.5c-1.1,3.6-3.4,5.3-7.7,4.9c-1.8-9.4,2.7-18,2.7-27.5
			C207.7,277.8,210.8,278.1,215.4,278.6z M176.4,274.1c3.7-0.1,7.5-0.1,10.2,5.6c-0.4,2.6-1,7-1.7,11.4s-1.6,8.8-2.5,14.2
			c-1.6,0.2-3.8,0.5-6.2,0.9C174.4,298.1,178.5,284.3,176.4,274.1z M191.6,275.8c2.3,0.4,4.7,0.7,7.5,1.1c0,3.4,0.4,6.6-0.1,9.7
			c-0.6,4-1.7,7.8-2.7,11.7c-1.6,6.2-3.7,7.3-10.9,6.2C187.6,294.7,189.5,285.5,191.6,275.8z M173.9,274.2c-0.6,3.7-1.2,8-1.3,8.9
			c-0.7,5.7-1.1,11.5-2,17.2c-0.7,4.7-2,6.8-5.6,7.6c0.9-5.9,0.7-13.3,0.9-15.7c0.4-4.5,0.7-9,0.9-13.5c0.2-3.5,1.7-5.2,5.2-4.5
			C172.6,274.1,173.3,274.2,173.9,274.2z M157.6,285.5c1.2-3.6-0.6-5.9,0.9-9.3c0.5-1.2,2.3-1.9,4.8-3.7c0.6,8.9-0.1,24.6-0.7,35.8
			c-0.3,0-0.6,0.1-1,0.1c-2.3,0.1-4.6,0.2-6.9,0.3C155.8,301.2,156.6,288.4,157.6,285.5z M151.2,308.7c-3,0.1-5.9,0.2-8.9,0.3
			c0.3-8.7,0-24,0.4-26.8c1.1-6.8,1.2-6.9,8-6.9c1.2,0,2.4,0,4.8,0C153.2,282.3,152.7,298.4,151.2,308.7z M138.9,309.1
			c-0.7,0-1.4,0-2.1,0.1c-2,0-4,0.1-6.1,0.1c2.2-9.8,3.9-26.3,4.6-33.9c1.5-0.4,3.1-0.8,5.2-1.3
			C141.9,280.8,138.8,298.1,138.9,309.1z M78.3,274.2c-1.6-9.9,0.3-19.5,2-29.1c0.4-2.6,1.8-4,4.5-4c7.3,0,14.5-0.2,21.8-0.3
			c2.8,0,5.5,0,8.3,0c4.6-0.1,9.2-0.2,14.2-0.3c0,3.6,0.2,6,0,8.4c-0.3,4.2-4.4,8.3,0.1,12.5c0.5,0.5-0.5,2.8-1,4.2
			c-0.8,2.3-1.7,4.6-3.1,8.2c3.4-0.3,5.3-0.5,7.5-0.7c0.3,1.1,1,2.1,0.8,2.9c-1.6,5.8-3.3,11.5-5,17.3c-0.3,1-0.3,9.4-0.4,15.8
			c-14.3-0.1-28.6-0.8-42.8,1.2c-2.3,0.3-4.8-0.3-7.8-0.4c0.5-8.4,1.1-16.1,1.4-23.7C79,282.2,79,278.1,78.3,274.2z M131.8,256.2
			c0.5-5.6,2.4-11.2,3.6-16.3c2.4,0,4.6,0,6.9,0c-0.8,5.5-1.3,18.9-2.1,25.3c-3.2,0-5.7,0-7.3,0
			C132.7,262.1,131.6,259.1,131.8,256.2z M144.2,243.8c0-1.3-0.1-2.6-0.2-3.9c3.6,0,7.2,0,11,0c-0.6,4.2-0.3,19.4-0.6,25.3
			c-4,0-7.8,0-11.1,0c0.5-3.4,0.4-13.1,0.7-14.7C144.3,248.4,144.2,246.1,144.2,243.8z M194.4,240.2c0.6-1.5,3.5,0.9,4.9,0
			c-1.5,8.4-3,16.7-4.4,25.1c-1.1,0-2.6,0-4.4,0C195,259.3,191.9,246.3,194.4,240.2z M189.1,265.2c-2.7,0-6,0-9.6,0
			c2-3.3,2.2-10.3,2.4-12.7c0.4-4.2,1.2-8.3,1.9-13c3,0.2,5.1,0.4,7.6,0.6C190.7,246.6,190,257.5,189.1,265.2z M197.6,223.3
			c-1.1,2.3-2.7,3.4-5.3,3.4c-5.7-0.1-11.4,0-18.3,0c0-13.1,0-25.3,0-38.3c3,0,5.4,0,7.8,0c4.7,0,9.4,0.3,14.1,0.1
			c3.1-0.2,5,0.9,5.2,3.9C201.8,202.9,202.2,213.4,197.6,223.3z M179.9,240.8c-0.7,5.5-1.4,17.6-2.2,24.5c-3.4,0-7,0-10.7,0
			c1-1.5,0.9-4.2,1.1-5.8c0.6-5,1.1-10,2.2-14.9C171.5,238.6,172.6,238.3,179.9,240.8z M164.5,265.2c-2.9,0-5.7,0-8.5,0
			c1.4-6.5,2.3-21.8,3.9-25.9c2.5,0.2,4.7,0.4,7.9,0.7C166.4,247.7,165.8,257.6,164.5,265.2z M56.6,559.2c1.3-10.7,3-21.4,4.2-32.1
			c2.1-18.9,3.9-37.9,5.9-56.8c0.4-3.5,1.8-6.9,1.7-10.3c-0.2-8.6,2-7.5,8.1-8.9c3.9-0.9,7.9-1.2,11.8-1.9c3.1-0.6,4.2-2.6,3.5-5.5
			c-0.4-1.7-1.1-3.3-1.8-5.3c-5.9-1.4-11.7-2.8-18-4.2c0.5-8.2,3.1-78.9,2.3-110.6c2.2-1.4,5-1.3,7.8-1.3
			c7.5-0.1,139.6-5.2,157.2-6.4c0.4,3.8,1.3,7.5,1.2,11.2c-0.3,11.7-0.8,23.5-1.6,35.2c-0.9,14.2-2,28.5-3,42.7
			c-0.2,3.2-0.3,6.6,0.3,9.8c0.7,4.2,0.2,7.9-2.2,11.5c-4.8,0.3-9.5,0.6-13.8,0.9c-1.9,4.6-4.4,8.5,0.2,12.1
			c14.1-0.1,16.6,2.7,10.9,12.9c-7.8,0.8-15.6,1.6-23.5,2.5c0.4,2.5,0.3,4.8,1.1,6.8c1.8,4.6,17.6,18.1,24,24.6h-0.1
			c-1,5.5-1.1,5.6-5.6,8.2c-3.9,2.3-18.9,11.4-17.8,14.5c-0.1,0-0.2,0-0.3,0.1c2.6,3.2,9.5,1.3,11.5,1c3.2-0.5,6.4-1.5,9.6-1.6
			c6.9-0.2,7.3,0.5,7,7.2c-0.5,10-0.8,20.1-1.7,30c-0.6,6.6-2,13.1-2.8,18.8c-7.8,0.8-14.4,1.5-21.1,2.2c-9.7,1-19.4,2.1-29.3,1
			c-9.9-1.2-20-1.7-30-1.7c-14,0-28.1,0.6-42.1,1.1c-7.2,0.3-14.7,0.4-21.7,2c-10.7,2.5-20.8-1.4-32-0.6
			C56.6,564.5,56.3,561.8,56.6,559.2z M78,676.6c-6.3,0-13.1,0-20.9,0c-3.2-30.3,0.4-60.5,0.7-90.5c4.2-0.9,7.8-2.1,11.4-2.3
			c22.5-1.2,45-2.5,67.5-3.1c13.7-0.4,27.5,1.5,41.3,0.1c1.9-0.2,4,0.5,5.9,0.6c4.3,0.1,8.5,0.5,12.8,0.1c6-0.6,11.8-2,17.8-2.7
			c3.1-0.4,6.3-0.1,9.7-0.1c-1.7,29.8-3.2,58.5-0.2,87.1c-7,1.4-10.1,4-9.9,7.9c0.2,5.6,3.5,9,10.8,10.6c-0.5,4.3-0.8,8.7-1.6,13
			c-0.6,3.3-1.4,6.6-2.3,10.1c-3.3,0-13.4,0-18.4,0c0.2-0.1,0.4-0.2,0.6-0.4c-1,0-1.9,0.2-2.7,0.4c-0.4,0-0.7,0-0.8,0
			c0,0.1-0.1,0.2-0.1,0.2c-3.3,1.1-5.3,3.5-7.1,6.5c0.8,0.9,1.7,1.5,2.1,2.3c2.9,5.9,6.3,11,13,13.7c3.8,1.6,3.2,5.7-0.9,8
			c-6.9,4-11.7,9.7-16.1,17.5c5.6-0.6,10.4-0.4,14.6-1.9c5.8-2,11.3-3.6,17.2-1.1c1.1,4.7,0.9,4.7-0.4,9.4c-1.5,5.8-3,11.7-3.9,17.6
			c-0.9,6.5-1.1,13.1-1.6,20.2c-8.6-0.8-16.8-1.9-19.2,8.7c-42.3-0.7-84.1-1.3-126.6-2c1-3.5,1.6-5.8,2.3-8.2
			c-4.4-4-10.4-0.8-15.4-3.5c-0.1-2.1-0.3-4.3-0.4-6.5c-0.5-11.4-0.8-22.9-1.7-34.3c-1.7-21.1-0.4-42.1,1.1-62.6
			c4.3-1.2,8-2.6,11.9-3.1c3.7-0.5,7.5-0.1,11.1-0.1C79.1,684,78.6,680.7,78,676.6z M157.9,881.4c-0.3-4.6,0.6-15.6-1.7-21.7
			c2.4,0,4.9,0,7.3,0.1c0.8,0,1.5,0,2.2-0.1c-1.8,9.5-1.9,25.9-3.6,34.8c-0.7,3.4-1.7,5.1-5.8,3.2
			C156.9,892.2,158.2,886.7,157.9,881.4z M160.8,857.5c-1.9,0.1-3.7,0.2-5.6,0.3c0-0.1-0.1-0.1-0.1-0.2c0,0.1,0,0.1-0.1,0.2
			c-11,0.5-22.1,1.2-33.1,1.5c-5.1,0.1-10.3-1-15.4-1.5c0.6-8.7,1.3-9.3,9-10c5.7-0.5,11.5-0.7,16.9-2.3c9.4-2.7,18.3,0.2,27.3,1.4
			c2.7,0.4,5.3,1.2,7.8,1.8C168.6,856.7,168.1,857.2,160.8,857.5z M146.4,882.9c0.8-4.8-0.3-17.2,0.5-23.1c2.6-0.1,5.2-0.1,7.7-0.1
			c-0.5,4.4,0.4,12.6,0.1,15.1c-0.7,6-0.9,12-2,17.9c-0.9,4.8-2.4,5.4-8.9,4.8C144.6,892.6,145.6,887.8,146.4,882.9z M141.8,898.3
			c-4.5,0.5,0,0-4.5,0.5c0-7.4,0.2-30.3,0.2-38.7c0.5,0,1,0,1.5,0c2.4-0.1,4.7-0.1,7.1-0.2C142.5,865.2,144.3,898,141.8,898.3z
			 M58.1,851.1c-0.2-4.8-0.2-9.5-0.4-14.3c-0.2-4.4,2.3-6.3,6.1-7.3c8.4-2.1,9.1-3.8,4.7-11.9c8.7-2.8,17.4-2.8,33.6,0.1
			c1,14.2,2.5,28.4-1.9,43.1c-1.9,3.4-2.9,9-3,11.2c-0.3,8-0.8,16-1.2,24c-0.1,1.5-0.3,2.9-0.5,5.2c-4.5,0.4-8.8,1.1-13.2,1.2
			c-6.3,0.2-12.6,0.3-18.8-0.3c-5-0.5-6.1-2-5.9-7c0.3-10.3,1-20.5,1.2-30.8C58.9,860.1,58.3,855.6,58.1,851.1z M103.4,862.1
			c2.7,0,5.2,0,7.8,0c-5.7,10.3-3.3,28.2-7.5,37.9c-0.6,0-1.1-0.1-1.7-0.1c-0.2-5.7-0.3-11.5-0.8-17.2
			C100.7,878.2,103.4,868.8,103.4,862.1z M112.4,862.1c1.7,0,3.4,0,5,0c-2.2,3.6-2.3,11.5-2.3,13.9c-0.1,7.8-1,15.5-4,22.8
			c-0.3,0.8-0.8,1.5-1.3,2.2c-0.5-0.1-1-0.3-1.5-0.4C109.4,890.3,111.3,873.4,112.4,862.1z M118,884c0.3-4.8,0.9-15.8,1-21.8
			c2.2,0,4.5,0,6.7,0c-1.2,13-3,25.6-8.1,37.5c-0.6-0.1-1.1-0.2-1.7-0.2C116.6,894.3,117.6,889.1,118,884z M123.7,896.5
			c1.3-9.4,2.1-19,4.2-28.2c1.8-8.4,1.2-8,9.3-8.2c-4.4,10,0.1,28.8-4.7,38.8c-2.5,0.3-5.1,0.7-7.9,1.1
			C124.1,898.4,123.6,897.4,123.7,896.5z M107.1,818c6.3-1.3,9,1.3,9.2,5.4c0.3,6.4-0.3,12.9-0.9,19.2c-0.1,0.9-2,2.4-3.1,2.4
			c-1,0-2.8-1.5-2.9-2.5C108.5,834.5,107.9,826.4,107.1,818z M125.9,819.2c-1.1,7.6-0.8,15.4-4.4,22.7c-0.5-6.2-1.1-12.4-1.4-18.6
			C119.9,820.3,121,817.9,125.9,819.2z M133,835.7c0.5,2.5-1.3,4.1-4.8,6.4c-1.6-8.3-0.7-20.1,2.3-24.8
			C135.7,823.1,131.9,829.8,133,835.7z M136.7,823.5c0.3-4.8,2-5.4,8.2-4.1c0.3,11.5-2.3,18.8-8.3,21.3
			C136.6,834.7,136.3,829.1,136.7,823.5z M146.9,837.1c0.6-5,1.3-9.9,2.2-14.8c0.5-2.7,0.8-2.7,5.7-3.6c-1.1,6.7-2,12.9-3.3,19
			c-0.3,1.4-1.7,2.5-3.5,4.9C147.4,839.7,146.8,838.3,146.9,837.1z M159.6,842.7c-0.2-0.1-0.4-0.1-0.7-0.2c-1.2-0.4-2.8-2.4-2.8-3.7
			c0-6.7,0.4-13.3,3.4-19.7C164.2,824.4,159.1,835.8,159.6,842.7z M164.1,843.6c0.4-5,1.2-18.1,1.6-21c0.3-2.4,1.2-4.4,5.4-3.5
			c-1.5,8.5,2.7,16.7-2.3,25.1C167.3,844,165.7,843.8,164.1,843.6z M712.7,956.6c2.7,11.5-0.9,22.7-0.9,34.8
			c-4-0.5-7.2-0.9-10.3-1.3c-3.5-0.5-6.9-1.2-10.4-1.3c-4.4-0.2-4.7,0.5-4.1,6.1c8.7-1.9,17.1-1.8,25.4,3.4
			c-0.9,7.3-1.7,14.4-2.6,21.8c-1.9,0-3.3,0.1-4.8,0c-5.5-0.3-11-0.8-16.5-0.7c-3.6,0-4.9,2-3.1,5c8.1,1.1,16.2-1,24.1,2.9
			c-1.1,6.7-2.2,13.1-3.2,19.5c-1.2,7-2.5,7.9-9.4,7.1c-4.5-0.5-9-0.8-13.5-1.2c-2.8-0.3-5,0.4-5.6,4c3.9,3.5,8.6,3.2,13.3,2.7
			c4.5-0.5,8.9-0.7,13.9,2c-0.6,9-2.1,20.8-2.9,30.3c-9.2,0.5-18.3,1.7-27.5,2c-5.7,0.2-11.4,1.3-16.3-1.1c0-4.3-0.2-8.1,0-11.8
			c0.7-9,1.4-17.9,2.5-26.8c0.8-6.7,2.4-13.3,3.4-19.9c1.3-8.4,1.2-17.2,3.7-25.1c4.6-14.7,4.6-29.7,4.7-44.7
			c0-11.3-0.8-22.6-0.2-33.9c0.3-7.3,0.9-14.5-0.4-21.7c-0.1-0.7,0.4-1.4,0.8-2.9c6.6-0.9,13.5-2.5,20.4-2.4c3,0.1,8.1,1,8.6,6.3
			c-8.2,0.6-11.3,2.7-11.7,7.7c-0.6,6.7,14.8,26.5,24.1,34.3C712.6,952.8,712.2,954.4,712.7,956.6z M752.5,1094.3
			c-3,0-5.2,0.1-7.4,0c-8.7-0.7-17.5-1.5-26.2-2.2c-1.6-0.1-3.2-0.2-4.8-0.3c5.9-8.3,4.8-19.2,9.6-28.6c4.3,0.5,8.8,1.1,13.7,1.7
			c0.1-4.1-2.5-4.5-4.8-5.2c-3.1-0.8-7.3-0.6-8.9-2.6c-1.7-2-0.8-6.2-1-9.4c-0.1-2-0.3-4-0.2-6c0.3-4.9,0.7-9.9,1.1-15
			c11.4,2.7,12,2.6,14.2-2.3c-4.6-1-9.1-1.9-14-2.9c0.9-8.3-0.3-16.3,1.8-23.8c9.3-1.7,18.2,4.6,27.8-1.4c-10-1.2-18.8-2.3-27.5-3.4
			c-3.1-11.2-1.6-21.5-1.5-31.7c0-3.8,3.3-3.5,6.3-3.3c4.9,0.4,6.2-0.2,9.4-0.3c-0.2,2.9-0.3,5.8-0.2,8.7
			c0.3,5.3,15.2,12.1,22.8,13.7c0.7,0.2,1.4,0.4,2.2,0.3C762.8,1018.8,758.2,1056.5,752.5,1094.3z M789.3,998.5
			c6.2-0.4,12.4-0.7,18.5-1.1c5.3-0.4,6.8,1.1,6.1,6.3c-0.6,3.9-1.3,7.9-1.9,11.8c-0.4,3-2,4.4-5.1,4.1c-5.5-0.4-11-0.4-16.4-1.1
			c-4.1-0.6-5.2,1.5-6.5,5.4c5.3,0.4,10.1,0.8,15,1.1c1.5,0.1,3,0.1,4.5,0.4c6.7,1.2,7.4,2.2,6.6,9c-0.6,5.9-1.3,11.8-1.9,18.2
			c-4.8,0-8.8,0-12.7,0c-1.8,0-3.6-0.3-5.2,0.2c-1.1,0.3-1.9,1.8-2.8,2.8c0.8,0.8,1.6,2.1,2.6,2.2c4.4,0.9,8.8,1.4,13.3,2.1
			c1.2,0.2,2.4,0.4,3.8,0.6c2.7,10.6-4.4,21.5,1.6,31.9c-1.5,2.4-2.8,4.6-4.5,7.4c-5.4-5.5-0.9-12.2-2.6-17.8c-3-1.9-5.9-4-9-5.4
			c-1.3-0.6-3.7-0.6-4.8,0.2c-1,0.7-1.2,3-1.1,4.5c0.1,2,0.5,4.2,1.6,5.7c2.5,3.4,1.4,6.6,0.1,10.8c-6.4-0.7-12.9-1.1-19.2-2.4
			c-4.2-0.9-5.9-5-5.7-8.8c0.6-11.2,1.7-22.4,2.7-33.7c0.9-10.7,1.8-21.5,2.8-32.2c1-11.2,2.2-22.4,3.3-33.9
			c15.9-2.5,16.5-15.5,19.4-27.8c8.5-2.5,17.2,0.3,26.6,0c-1.2,11-2.4,21-3.5,31.4c-3.6,0-6.8,0-10,0c-3.7,0.1-7.6-0.2-11.2,0.4
			C790,991.7,787.6,993.8,789.3,998.5z M861.2,1046.6c-0.7,4.7-1.9,9.3-2.2,14c-0.4,6.2,0,12.5-0.4,18.7c-0.4,7.6-3.4,15.1-1.6,22.9
			c0.2,0.8-0.7,1.8-1.5,3.6c-9.9-3-20.5-0.6-30.4-4c1.2-5.1,2.1-9.5,3.2-13.8c1.4-5.9,2.4-8.5-6.1-10.9c-1.9-0.5-4.3-2.3-4.8-4
			c-2.7-9.2,2.2-14.8,11.8-13.8c2.3,0.2,4.5,0.8,6.7,0.6c2-0.1,3.9-0.9,5.8-1.5c-6.8-4.8-15.2-2.1-21.7-6.7
			c-0.5-7.5,0.6-14.5,2-21.5c7.1-1.3,13.3,3.9,20.8-0.2c-1.5-1.3-2.3-2.7-3.6-3.1c-3.8-1.2-7.7-2.1-11.6-3.1
			c-2.7-0.7-4.4-2.1-3.9-5.4c0.9-5.9,1.6-11.8,2.6-18.5c3.3,0,6.2-0.1,9.1,0c2.6,0.1,5.1,0.2,5.4-3.9c-5-1.1-9.9-2.1-14.9-3.2
			c0.4-5.4,1-9.9,0.9-14.4c-0.2-7-0.8-14-1.6-21c-0.3-2.9-1.7-5.6-2.8-8.3c-0.2-0.4-1.3-0.4-2.3-0.7c-1.1,1.9-2.2,3.7-2.9,4.8
			c-1.9,0-3.8,0-5.7,0c7.2-4.8,17.9-14.5,23-20.8c3.1-3.8-0.1-7.6,1.5-11.2c-3-0.3-5.5-0.5-8-0.8c0.8-6.1,5.8-3.6,8.2-5.3
			c0.4-1,0.7-1.7,0.9-2.4c2.3-6.8,2.5-6.9,9.6-6.7c4,0.1,7.9-0.1,11.9,0.1c6.4,0.2,12.8,0.6,19.8,0.9c-0.2,3.5-0.2,6.2-0.6,8.9
			c-1.8,14.9-4.8,29.7-5.3,44.7c-0.8,22.8-5,45.1-8.7,67.5C862.9,1034.2,862.2,1040.4,861.2,1046.6z M1453.2,1127
			c-0.2,3.5-2.6,6.8-3.9,10.1c-20.3,0-39.9,0-58.9,0c-1.9-2.3-3.6-4.1-4.8-6.1c-1.1-1.9-2.4-4-2.5-6.1c-0.4-9.7-1.9-19.3,1.3-29.1
			c0.4-1.2,0.7-2.5,1-3.8c3.9,0.9,8.9,1.1,11.3,1.1c18.7,0.2,37.4,0.7,56.6,1.1c0.1,2.9,0.3,4.8,0.3,6.7c0,1.5-0.8,3.2-0.3,4.4
			C1456.1,1112.6,1453.7,1119.9,1453.2,1127z M1411,1006.2c-6.2,0.6-12.4,0.7-19.8,1.1c-0.3-4.6-0.6-8.8-0.9-13.4
			c1.8,0,21.1,4.2,21.9,5c1.1,1.1,2.3,2.9,2.1,4.2C1414.1,1004.3,1412.2,1006.1,1411,1006.2z M1413.5,1017.8
			c-0.3,1.2-0.7,2.3-1.3,3.9c-6.9-0.9-13.5-1.7-20.6-2.7c0-2.9,0-5.5,0-8.5c5.2-0.6,10.3-1.5,15.5-1.5
			C1414.1,1009,1415.3,1011,1413.5,1017.8z M1412.2,990.8c-3.8,2.8-7.6,2.9-11.8,1.3c-2.3-0.9-4.8-1.1-7.2-1.5
			c-2.5-0.4-3.5-2.2-3-4.3c0.3-1.4,1.7-2.7,2.9-3.6c0.9-0.6,2.4-0.4,3.7-0.5c5.6-0.5,11.3-1,17.4-1.6
			C1414.4,984.3,1416.2,987.9,1412.2,990.8z M1390.9,1022.5c5.4,0.6,10.1,0.9,14.8,1.5c7.2,0.9,7.2,1,5.2,9.1
			c-3.2,0-6.7,0.3-10.1-0.1c-3.4-0.3-6.8-1.3-11.2-2.2C1389.9,1028.3,1390.4,1025.6,1390.9,1022.5z M1396.6,1034.9
			c2.4,0.5,4.9,0.6,7.4,0.8c1.5,0.1,3,0.1,4.5,0.3c1,0.2,1.8,0.6,3.4,1.2c0,3.2,0,6.4,0,9.6c-4-1.4-9.8-1.4-11.9-1.6
			c-3.2-0.3-6.4-0.5-10-0.8c-0.3-1.3-0.8-2.5-0.8-3.6C1389,1034.2,1390,1033.5,1396.6,1034.9z M1389.9,1047.8c5.3,0.2,15,1,22,1.4
			c0,4.4,0,8.8,0,13.3c-7.1-0.4-14.5-0.9-22.9-1.4C1389.3,1056.5,1389.5,1052.6,1389.9,1047.8z M1407.7,1064.6
			c3.7,0,5.7,1.7,5.4,5.5c-0.1,2.1-0.3,4.2-0.5,6.3c-6.4,0.1-18.3-0.2-25.6-0.1c0-0.1,0-0.2,0-0.3c0.5-3.7,1.1-7.4,1.6-11.4
			C1395.4,1064.6,1401.6,1064.6,1407.7,1064.6z M1412.6,1078.1c-0.3,3.1-0.5,6.3-0.8,9.7c-6,0-17.7,0.4-25.8,0.6
			c0.4-3.3,0.6-6.7,0.9-10.1C1394,1080.5,1406.4,1080.6,1412.6,1078.1z M1425,983.1c-0.1,2.5-0.8,4.9-1.4,7.3
			c-1.5,5.8-2.5,11.1-0.8,17.5c1.7,6.5-2.1,71.9-2.4,78.9c0,0.9-3.4,0.6-4.5,1.7c-1.7-5.4,3.4-100,5.2-109.2
			C1424.1,978.7,1425.1,980.6,1425,983.1z M1426.3,1076.4c5.3,2.1,20.3,2.2,27.6,2c-0.3,3.5-0.7,7.1-1,10.7
			c-9.4,1.5-18.9-1.8-28.7-1.6C1424.8,1083.8,1425.5,1080.1,1426.3,1076.4z M1454.3,1074c-9.6-0.7-17.9,1.3-27.6,0.3
			c0.7-3.7,1.5-7.5,2.2-11.6c3.4,0.2,19.9,0.8,26.4,1.1C1455,1067.1,1454.6,1070.5,1454.3,1074z M1455.6,1060.2
			c-8.2-0.7-21-0.7-27.7-1.7c0.2-3.4,0.3-6.4,0.5-9.3c10-3.6,18.3,2.4,28,2.9C1456.2,1054.9,1455.9,1057.6,1455.6,1060.2z
			 M1435.2,1036.3c7.1-0.4,14.3-0.8,21.1,2.5c0,3.2,0,6.3,0,10.4c-3.1-0.2-6,0-8.8-0.6c-5.7-1.3-11.4-2.9-17.6-4.6
			C1427.9,1038.7,1428.9,1036.6,1435.2,1036.3z M1429.8,1032.3c-0.2-2.8-0.3-5.4-0.5-8.4c6.8,0,13.1-0.2,19.4,0
			c7,0.2,7.8,1.2,8,10.5C1447.5,1033.7,1438.9,1033,1429.8,1032.3z M1454.9,1022.2c-8.8-0.8-17.3-1.6-26.2-2.4
			c0.5-2.9,0.8-5,1.2-7.4c9.2,0.5,18,0.9,27.6,1.4C1456.5,1017,1455.8,1019.5,1454.9,1022.2z M1456.6,1009.7c-9.8,0-18.9,0-28.2,0
			c-0.4-3.5-0.6-6.8-0.6-10c8,0,22.8-0.3,30.3-0.3C1457.5,1003.4,1457.1,1006.5,1456.6,1009.7z M1427.9,996.8c0.1-3,0.5-6,1.2-8.9
			c7.8,0.7,22.8,0.9,28.9,1.7c0.2,2.2,0.3,4.3,0.5,7.3C1451.1,996.9,1436.2,996.8,1427.9,996.8z M1430.1,984.2
			c1.6-4.8,2.7-5.5,7.7-4.4c1.8,0.4,3.5,1.1,5.5,2c7-0.1,14.4,0.4,16.2,0.7C1458.5,985.8,1438.5,984.9,1430.1,984.2z M1586.5,897.2
			c-3,4.9-5.4,10.1-8,15.2c-1.4,2.7-2.4,5.5-3.9,8.1c-7,12.1-13.8,24.4-21.2,36.3c-8.8,14.2-14.4,29.6-19.2,45.5
			c-1,3.2-2.2,6.4-3.6,9.5c-5.5,11.7-11.3,23.2-16.6,34.9c-4.3,9.3-8.2,18.9-12.1,28.4c-4.8,11.6-9.3,23.2-14.1,34.7
			c-3.1,7.4-6.6,14.6-9.8,21.9c-1.3,3.1-3.7,4.2-6.6,3.5c-3.1-0.7-5.6-2.4-5.6-6.1c0-5-0.1-9.9,0-14.9c0.3-8.5,0.7-17,1.2-25.4
			c0.5-7.2,1.6-14.3,1.8-21.5c0.6-17,0.6-34.1,1.4-51.1c0.9-17.7,1.7-35.5,4.3-53.1c1.3-9.1,2-17.8,0.4-26.8c-0.4-1.9-0.1-4-0.1-6
			c0.1-8.2-2.1-11.4-9.8-13.4c-2.9-0.8-6-1-9-1c-4.5,0-5.8,1.6-5.3,6.2c0.6,5.4,1.4,10.8,2.2,16.2c8.3,2.8,8.2,2.9,7.4,11.8
			c-0.3,3.7,0.4,7.5,0.4,11.2c0,5.3-0.3,10.6-0.5,16.1c-12.5-0.7-24-1.9-35.5-2c-11.4,0-22.9,1.2-35.5,1.9c0.6-7.8,0.9-15,1.7-22.1
			c0.1-1.3,2.1-2.4,3.3-3.4c1.1-0.9,2.3-1.5,4.1-2.5c-2.4-1.9-4.3-3.4-6.4-5.1c2-5.2,2.3-15.6,4.4-21c-1.3-2.4-16.6-3.5-17.8-0.2
			c-0.5,1.4-0.9,2.9-0.9,4.4c0.1,13.6,0.2,27.1,0.4,40.7c0.2,11,1.4,22.2,0.5,33.1c-0.8,9.2-2.1,18.3-1.7,27.6
			c0.3,6.8-0.1,13.6,0.8,20.3c0.5,3.5,0.7,6.7,0,10.3c-1.6,7.8-2.5,15.8-3.8,23.7c-0.8,4.9-1.9,9.8-2.4,14.8
			c-0.7,7.1-2.3,14.3,0.3,21.4c0.8,2.2,0.8,5,0.3,7.4c-0.2,1.3-2.1,2.2-4.1,4.1c0.8,5.9,3.9,12.9,1.5,19.5
			c-43.8-11.3-88.3-17.8-133-23.2c-3.2-4.7-2.3-12.8-10.7-13.4c0-5.1-0.1-10.1,0-15.2c0-1.7-0.2-4,0.8-5.1c3.6-3.9,3.7-8.5,4.4-13.2
			c2.9-19.8,6.5-39.5,9.1-59.3c1-7.3,0.2-14.9,2.9-22c0.1-0.2,0-0.5,0-0.8c0.6-11,0.9-22.1,1.7-33.1c0.6-7.7,0.9-15.5,6.3-22.2
			c6.2,0.5,12.5,0.9,18.7,1.6c15.2,1.6,30.4,3.8,45.6,5c6,0.5,12.5,0.4,17.6-4.7c1.8-1.8,4.3-3.1,3.4-6c-1-3.1-3.7-3.6-6.7-3.7
			c-15.1-0.2-30.1-0.4-45.2-0.9c-8.7-0.3-17.4-1.3-26.1-2c0.3-0.5,0.5-0.9,0.8-1.4c-1.4-1.7-2.5-4.6-4.1-4.9
			c-4.1-0.8-2.3,4.1-4.8,6.4c-11.2-1.2-23-1.9-34.6-3.7c-19.6-3-39.4-4-59.2-4.4c-3.3-0.1-6.6,1-10.1-0.8c-2.7-1.4-6.4-1.4-9.6-1.2
			c-1.9,0.2-4.4,1.6-5.3,3.2c-1.2,2.2-0.6,4.8,2.4,6.1c1.5,0.7,2.7,2.1,3.5,2.7c32.6,0.4,64.4,3.1,96.3,8c0,8.8,0.4,17-0.1,25.2
			c-0.3,6-2,11.9-2.7,17.8c-2.2,17.7-4.2,35.3-6.3,53c-0.5,4-0.5,8.2-1.8,11.9c-3.5,9.6-4.4,19.5-5.4,29.4
			c-0.4,4.1-0.2,8.4-1.3,12.4c-2.1,7.5-5.1,14.8-7.7,22.3c3,3.8,3,3.8,1.9,10.6c-6.5,2.5-12.9,0.5-19.4,0.1
			c-14.3-0.9-28.6-3-42.7-2.2c-16.6,0.9-33.1,1.4-49.7,1c-2.5-0.1-5.1-0.8-7.7-1.2c2-7.8,5.3-14.4,1.6-21.7c-0.8-1.6-0.2-4-0.1-6
			c0.2-5.5,0.5-11,0.8-16.5c0.3-5.3,0.6-10.5,1.1-15.8c1.1-12,2.4-24,3.5-35.9c0.6-6.2,1.3-12.5,1.5-18.7c0.7-16.3,1.2-32.6,2-48.9
			c0.4-8.5,1.9-17,2-25.5c0.1-8.2-0.1-16.6-2-24.5c-2.7-11.4-5.8-11.8-14.4-3c0.5,2.1,1.7,4.2,1.5,6.2c-0.4,4.2-1.7,8.3-2.4,12.5
			c-1.4,8.4-3.2,16.8-3.9,25.3c-1.2,13.2-1.1,26.6-2.6,39.7c-2.5,22-2.6,44-1.6,66.1c0.6,13,1.1,26.1,1.9,39.1
			c0.3,4.3,0,7.8-4.2,9.4c0.6,5.2,1.2,9.9,1.9,15.2c-4,1.1-7.3,2.8-10.6,2.9c-6.7,0.2-13.5-0.4-20.3-0.8
			c-13.5-0.8-27.1-1.6-40.6-2.5c-4.4-0.3-8.8-0.9-12.5-1.3v-27c-8.4,3.7-17-1.3-25.2,2.4c2.2,10.9,2.2,10.9,4,21.7
			c-5.9-0.3-11.9-0.3-17.9-1c-16.7-2-33.3-4.2-49.9-6.4c-1-0.1-2,0-3,0c-9.3-0.2-18.5-0.3-27.8-0.7c-2.1-0.1-4.1-1-6-1.5
			c3.6-19.9,7.2-38.8,10.3-57.9c1.5-9.4,1.5-19.1,3.2-28.4c3.3-17.9,2.2-36,4.1-54c0.8-7.2,1.2-14.5,2.4-21.7
			c1.7-10.6,4.4-21.1,3.4-32.1c-0.1-1.2,0.4-2.4,0.7-4.1c7.5,0,14.7,0,21.9,0c11.2-0.1,22.3-0.6,33.5-0.2c7.7,0.3,15.4,1.9,23,2.6
			c3.4,0.3,6.2,9,9.7,9.9c8.4,2.2,11.3-5.6,17-4.7c5.4,0.9,8-4,12.3-3.1c8.6,1.9,17.2,2.4,26,1c3.9-0.6,7.9-0.1,11.8-0.1
			c1.3,2.3,2.6,4.4,4.6,7.8c2.5-5.4,4.3-9.4,6.2-13.4c-2.1-2.6-3.6-5.4-7.9-4.2c-1.7,0.5-3.9-0.5-5.9-0.9
			c-10.1-2.1-20.2-3.8-30.6-2.9c-4.7,0.4-9.5,0.1-13.8,0.1c-1.8-3.4-3.3-6-5-9.2c-7.7,1-7.7,1-19.7,1.9c0.3,2.4,0.6,4.5,1,7.4
			c-3.3,0.3-6.3,0.9-9.2,0.8c-8-0.3-15.9-1-23.9-1.2c-13.3-0.3-26.6-0.1-39.9-0.4c-7-0.2-14.1-2.1-21-1.2c-12.6,1.5-25,0.5-37.5,0.2
			c-6.2-0.1-12.4-0.7-18.6-1c-3.7-0.2-7.4-0.6-11.1-0.3c-8.9,0.8-13.1,1.3-12.1,10.8c0.4,3.7,1.2,7.5,0.5,11.1
			c-0.8,4.2,0.8,5.1,4.2,4.9c2.2-0.1,4.5-0.3,6.7-0.9c5.6-1.5,10.8-0.6,16.5,1.9c-2.6,10.4-18.8,22.1-27.4,29.4H789
			c-3.4,10.1-1.3,22.1-12,29.4c-0.8-1.5-1.9-2.7-1.8-3.6c0.8-6.4,1.9-12.8,2.8-19.2c0.1-1,0.2-6.1-0.3-7c-0.2-0.3-15-0.9-15.6-0.7
			c0.6,3.5,1.5,7,1.8,10.6c0.3,3.7,0.1,7.4,0.1,11.1c-3-11.1-3-11.1-5.7-14.4v17c-4.1-2.1-8.8-4.2-9.5-4.7c-4.1-3.3-6.8-5.4-5.3-14
			c-0.1-2.2,5.6-2.6,3-3.4c-9.7-3.1-19.5-4.2-29.7-3.2c-0.3,0-0.6,0.1-0.8,0.1c-7.3-9.7-23.9-30.7-20.4-37.8
			c6.3,1.7,12.6,3.3,18.8,5c4.6,1.3,4.7,1.2,6.6-4.3c-4.3-0.8-8.4-1.6-14.2-2.7c8-6,5.3-13.3,6-19.7c0.1-1.1-1.1-2.7-2.2-3.5
			c-6.6-5.1-78.2-3.1-86.5-4.1c-1.5-0.2-3,0-4.5,0c-3.9,0.2-5.7,2.6-6.4,6.2c-0.7,3.5-1.6,7-2.5,11.1c2.3,2.7,50.5,5.1,54.3,5.7
			c-0.8,8.1-1.4,15.5-2.3,22.9c-1.1,9.2-1.8,18.5-3.8,27.5c-3.7,17-5.2,34.2-5.3,51.5c-0.1,9.3-0.6,18.6-1.8,27.8
			c-1.5,11.4-4,22.7-6.1,34c-1,5.6-3,11.1,0.3,16.7c0.8,1.3,0.3,3.4,0.4,5.2c-25.8,1.7-51.3,4.9-78.2,0.7c5-5.4,4.7-10.9,4.4-16.4
			c-0.1-2.2,0.2-4.5,0.4-6.8c0.7-8.2,1.8-16.5,2.1-24.7c0.4-10,0.1-20.1,0-30.1c-0.2-16.4,3.2-32.4,5.9-48.4
			c1.9-10.9,3.9-21.8,2.9-32.9c-0.7-7.7-1.9-15.4-2.8-23.1c-0.5-4.5-0.8-9-1.3-13.5c-0.4-3-0.9-6-4.9-7.4c-1.8,1.1-3.8,2.4-5.4,3.4
			c0,10.2,0.4,19.7-0.1,29.2c-0.6,11.7-1.9,23.4-2.9,35.1c-0.4,4.5-1,9-1.3,13.5c-0.8,13-1,26-2.4,38.9c-1.7,16-2.9,32-2.8,48.1
			c0,12.1-2.2,23.9-8,34.9c-18.4,0.5-36.7,1.3-55,1.3c-8.9,0-17.9-1.5-26.9-2.2c-5.5-0.4-5.2-0.4-6.5-6c-1.2-5.7-1.5-11.9-5.7-16.6
			c-7,5.2-12.6-3.2-19.7-1.1c-1.6,8-3.8,16.1,2.2,24.3c-38.2,1.9-75.2-0.9-112.8-5.4c1.2-6.1,2.5-11.4,3.2-16.7
			c1.7-13.2,3.1-26.4,4.8-39.6c1.3-10.8,3.5-21.5,4.1-32.3c0.7-12.4,2-24.7,4.4-36.8c2.3-11.5,3.6-23.3,5.7-34.9
			c1.7-9.4-0.9-17.9-4.6-26.3c-1.2-2.8-3.2-4.6-6.3-4.3c-3.3,0.3-4.8,2.9-5.1,5.7c-0.7,5.4-0.7,10.9-1.3,16.4
			c-0.7,6.7-17.3,152.7-19.8,169.1c-8.1-0.7-15.9-1-23.6-2.2c-19.5-2.9-39-2.1-58.6-0.4c-7.6,0.7-15.3,0.3-23,0.3
			c-0.4,0-0.8-0.5-2-1.4v-16.8c-12.4-6.6-14-6.5-25.9,2.7c3,11.9,1.2,14.2-11.4,14.6c-2,0.1-4,0-6,0c-2.2,0-58.6,1.1-66.8,1.1
			c-0.9-2.7-0.8-5.9-4.7-5.7c-9.5,0.4-19,0.7-28.5,0.9c-5.4,0.1-10.8-0.2-16.7-0.3c0.5-2.8,0.9-4.5,1.1-6.1c0.2-1.9,0.2-3.8,0.3-5.6
			c-9-2-13.2-1.5-14.1,3.4c-1.8,10.2-8.6,11.5-16.7,11.6c-0.4,0-0.8-0.4-2.1-1c1-3.9,1.7-8,3.1-11.9c1.3-4,37-104.5,38.6-122
			c0.4-4.5,1.6-8.8,2.3-13.2c3,0.3,5.7,0.6,8.7,0.9c2.3-4.7,6.3-9.2,6.2-13.6c-0.2-9.3,4.6-10.3,11.8-10.3
			c8.5,0.1,17.1-1.4,25.5-0.5c7.3,0.7,14.8-2,21.9,1.6c1.3,0.6,3.4-0.5,5.1-0.7c1.4-0.2,2.9-0.3,4.3-0.2c4,0.1,8,0.6,11.9,0.4
			c8.9-0.4,17.6-3.3,26.7-2.4c1.2,0.1,2.4-0.7,3.6-0.8c5.6-0.8,11.1-2.8,17.5-1.2c-0.3,2.4-0.9,4.6-0.8,6.7c0.1,1.5,0.7,3.9,1.8,4.4
			c7.5,3.4,15.4,0.6,15.4-7.4c0-1.9,0.8-3.7,1.4-5.9c10.7-0.6,20.8-1.5,31-1.6c10.2-0.1,37.5,2.2,37.5,2.2l3.6-9.9
			c0,0-36.9-3.7-55.5-4.3c-19.9-0.6-39.5,0.9-58.9,5.7c-3.2,0.8-6.8,0-10.8-0.1c1.8-10.4,1.4-28,3-37.3c0.3-1.7,1.6-2.8,0.5-3.8
			c0.2-0.3,0.4-0.6,0.5-0.9c1.6-3.5,3.2-7.1,3.3-11.3c0.1-6.7,0.9-13.5,1.6-20.2c0.1-0.9,1.2-1.6,1.7-2.4c0.6-1.3,1-2.7,1.4-3.9
			c6.1-2.8,11.1-0.3,16.6,2.5c-0.2,4.4-0.4,8.6-0.6,12.8c3.5,2.7,5.9,2,8.4-1.3c0.7-1,3.2-1.2,4.6-0.9c0.6,0.1,1.2,2.5,1.1,3.8
			c-0.3,4-1.1,7.9-1.4,11.8c-0.1,1.3,0.8,3.8,1.2,3.8c4.8-0.1,2.9,4.5,4.6,6.8c1.8-0.1,3.4-0.2,5.1-0.3c1.3-6.5,2.5-12.6,3.8-19.1
			c5.6-0.4,6.7-4.3,6.6-9c-0.1-5,0.6-10.1,0-15c-1.6-15.2,0.1-30.1,2.7-45c0.8-4.6,0.6-9.5,0.3-14.3c-0.2-3.4-1-7.1-4.6-8.9
			c-5,2.3-22.8,5.2-26.4,4.3c3.1-8.3,6.2-10.2,14.7-9.1c4.3,0.6,5.3-0.2,6.6-5.7c-2.5-0.8-5.7-0.9-7.4-2.6
			c-5.1-4.8-9.9-10-14.2-15.5c-3-3.8-2.8-6.1,0.8-9.1c2.9,0.7,10.7-0.7,10.7-0.7c1.4,0,7.5,2.5,8.9,2.5l14.8,1.5
			c0.3-9.3,2.5-34.7,3.1-44s2-18.5,2.2-27.7c0.5-17.8,0.1-35.6,0.8-53.4c0.4-10,1.1-20.2,3.2-29.9c3.2-14.7,2.5-29.4,2.3-44.2
			c0-3.7-2.3-6.2-6.2-6.3c-5.8-0.1-11.5-0.1-17.3,0.2c-2.4,0.1-7.8,0.9-11.6,1.5c11-8.6,23.6-14.5,31.9-19c-0.5-0.2-1.1-0.3-1.7-0.5
			c0.7-0.2,1.6-0.2,2.5-0.1c-9-5.7-31.2-18.3-30.7-30.3c11.1,0.3,21.5,3.6,31.4,0.6c-0.7-3-2.1-5.3-1.5-6.8
			c2.9-7.7,2.2-15.8,2.7-23.7c1.2-19.8,1-39.7,2.2-59.5c1-15.8,3.3-31.4,5-47.1c0.4-3.4-0.4-5.9-2.8-8.8c-4.9-6-10.3-9-18.2-7.8
			c-4.7,0.7-9.5,0.4-14.3,0.4c-1.7,0-3.3-0.5-5.4-0.9c0-1.8-0.3-3.4,0.1-4.7c2.4-8.6,5.2-17.1,7.5-25.7c0.8-2.8,0.9-5.9,1.1-8.8
			c0.4-8.2-0.2-16.4,2.7-24.2c7.3-1.3,14.1-2.4,22-3.8c0.7,4.4,1.8,8.5,1.8,12.6c0,5.9-0.9,11.7-1.2,17.6c-0.1,1.4,0.5,2.9,0.8,4.2
			c7.1,1,7,0.9,8.2-5.1c1.9-9,0.8-17.9,0.4-26.9c-0.4-8.3-4.9-13.5-8.6-19.8c-0.7,0.6-1.2,0.9-1.5,1.3c-2.7,4.3-5.1,5.7-8,4.2
			c-3.7-1.9-2.3-5.1-1.7-8c1.6-7.8,3.4-15.5,5.2-23.7c-6.1-3-12.9-1.9-19.5-1.7c-6.9,0.2-10.8,5.2-10.9,12.2c0,1.3-0.3,2.6-0.6,5.3
			c-3-11-2.7-15.1,1.4-20.9h33.7c0.8,2,1.6,4.1,2.6,6.7c1.4-1.1,2.5-1.5,3-2.3c1.2-1.8,1.7-4.7,3.2-5.4c2.1-0.9,38.5-0.3,40.6-1.1
			c3.1-1.2,5.2,0,5.2,3.1c0,2.7-0.3,5.5-0.9,8.1c-0.5,2.4-2.4,4.5,0.4,6.8c3,2.4,5.2,0.1,7.6-1c1.5-0.7,2.8-2.1,4-3.3
			c2.2-2.3,4.4-4.8,6.6-7.2c4.9,6.6,7.6,14.9,17,18c-1,4.4-2,8.6-3.2,14.1c1.2,2.8,4.7,4.5,9.1,3.6c10.1-2,20.4-1.6,30.6-1.6
			c18.2,0,36.5,0.2,54.7-0.1c13.3-0.2,26.5-0.8,39.8-1.3c9.2-0.4,18.6-0.1,27.7-1.7c8.4-1.5,16.3-1.3,24.4,0.9
			c1.4,0.4,2.9,0.1,4.3,0.1c1.4-2.2,2.1-4.4,0.9-6l0.3-18.1c3.4,3.4,11.5,16.9,12.4,17.8c0.3-0.2,1.6,2.8,2,2.8
			c0.8-0.2,0.7-3.6,0.6-3.7c1.5-10.8,9.8-14.7,16.6-19.5l-2.7,20.7l2.5,0.3c-0.5,3.4-0.9,6.2-1.2,7.9c1.8-0.3,3-0.6,4.2-0.6
			c11.8-0.2,14.9-3.4,14.9-14.9c0-2.5,0.4-5,0.5-7.5c0.9-16.3,1.9-32.6,2.4-48.9c0.2-6,2.7-45.2,4.4-58.9c1-7.9,1.4-16,1.6-24
			c0.2-8-0.1-16.1-0.1-24.1c0-0.7,0.4-1.4,0.6-2.3c1.9,0.5,3.7,1,5.3,1.5c3-3.5,3.7-6.9,2.7-10.9c-0.5-1.7-0.8-3.4-0.9-5.2
			c-0.4-5.7,1.7-7.7,7.1-7c3.2,0.4,8.5,0.6,11.7,0.7c10.4,0.2,20.8,0.2,31.3,0.7c4.5,0.2,8.8,1.7,13.3,2c5.5,0.4,11,0,16.5,0.3
			c7.8,0.4,15.7,1.2,24,1.9c-0.9,4.3-1.8,7.7-2.2,11.1c-0.3,2.6-0.7,5.7,0.4,7.9c1,2,3.9,3.2,6.7,5.2c-4.3,7.4-0.8,16.1-2.2,24.3
			c-1.7,9.9-1.5,19.9-2.2,29.8c-0.4,5.5-1.2,10.9-1.5,16.4c-0.2,4,0.4,8,0.2,11.9c-0.5,8-1.7,15.9-2,23.9c-0.3,10.3,0.1,20.5,0,30.8
			c0,2.9,0,6.5-1.6,8.6c-2.3,3.2-2.7,6.3-2.9,9.8c-0.1,1.6-0.7,3.2-1.2,5.4c-9.6,0-18.9,0.2-28.2-0.1c-9-0.3-18-1.3-27.1-1.8
			c-9.2-0.5-18.3-0.8-26.2-1.1c-3.6,4.3-5.1,14.2-3.3,13.8c11.5-2.4,81.9,0.3,88.5,3.2c4.3,1.9,8.6,1.9,11.8-1.6
			c2.5-2.7,62.3,1.3,65.1,1.1v-12.6c-20.6-1.6-40.8-0.2-61.2-0.8c-1.4-4.4-2.1-8.4,2-12c-4.2-2-5.5-5.3-5.3-9.4
			c0.6-16.3,1.1-32.6,1.9-48.9c0.8-15.5,1.9-31.1,2.7-46.6c0.5-10,0.7-20.1,1-30.1c0.1-3.5,0-6.9,0-10.3c2.8-0.7,4.6-1.1,6.3-1.5
			c0.6-8.7,1.2-16.9,1.8-25.3c1.2-0.2,2.2-0.4,3.1-0.4c13.1,0.5,26.2,0.9,39.4,1.6c3.9,0.2,7.9,1.1,11.8,1.1
			c6.5,0.1,13-0.6,19.4-0.4c7.7,0.3,8.2,1.1,9.3,8.7c0.1,0.9,0.8,1.7,1.3,2.8c3.6-0.4,6.9-0.8,10.3-1.3c0.2-2.9,0.4-5.2,0.6-8.1
			c3.6,3.4,1.5,6.3,1.2,9.1C809,58.8,807,73,805.8,87.2c-1,12-1.4,24-1.7,36.1c-0.2,7.8,0.7,15.6,0,23.3
			c-2.1,20.7-4.9,41.3-7.5,62.3c-1.3,0.7-3.1,1.2-4.3,2.3c-1.1,1.1-2.3,2.9-2.2,4.3c0.4,4.2-0.1,12.4,1.9,15.8
			c1.1,1.9,11.1,3.3,17.3,2.1c1,0.3,2-0.1,2.6-0.8c0.5-0.2,0.9-0.5,1.3-0.8c-0.3-2.3,0.3-6.7,0.4-10.3c1-0.6,2.5-0.5,3.3,0.6
			c3.5,4.7,7.5,10.7,8.1,11.3c0.3-0.2,1.6,2.6,2,2.5c0.7-0.2,0.7-2.5,0.6-3.2c0-0.2,0-0.3,0-0.5c1.3-7.6,6.7-11.5,12.2-14.9
			c1.7-1,3.9,0.2,3.7,2.1l-0.2,1.8c-1.2,0.7-1.9,1.9-2.3,3.7c-0.4,2.2-0.4,4.5-0.3,6.7c0.2,4.1,2.7,5.6,5.7,2.7
			c3.4-3.2,43.9,2.3,53.7,1.6c4.9-0.3,9.9-0.1,14.8-0.1c8.4-0.1,16.8-0.8,25.2-0.4c11.2,0.5,22.4,1.9,33.6,2.9
			c5,0.4,10.2-0.2,14.8,1.3c7.8,2.4,15.4,0,23.1,0.7c1.3,0.1,2.9-0.8,4.1-1.7c3.4-2.3,3.5-5,0.3-7.8c-3.8-3.3-7.7-6.4-13.4-5.4
			c-1.9,0.4-4-0.4-6-0.6c-16.2-1.3-32.5-2.5-48.7-3.7c-1.9-0.1-3.9,0-4.7,0c-2.1-4.6-3.7-8.2-5.9-13.1c0.4-1.6,1.1-4.8,2.1-7.9
			c1.2-3.8,3.2-6.3,7.9-6.7c4.1-0.3,8.1-2.1,12.1-3.3c5.6-1.7,11.2-3.4,17.1-5.2c1.2,1.7,2.3,3.2,4.2,6c0.5-2.9,1.2-4.6,0.9-6
			c-0.6-2.9-1.9-5.7-2.5-8.5c-0.3-1.3-0.4-3.5,0.4-4.1c0.1,0,0.1-0.1,0.2-0.1c1.3,5.7,9.8,9.2,16.6,9.9c5.6-6.9-0.1-16.9,6.2-24.5
			c4.2,8.4,6.7,18.3,19.2,17.4c0.4-2.8,0.7-5.6,1.2-8.2c0.2-1.4,0.3-3.4,1.2-4.1c4.2-3,3.8-7.5,4-11.6c1.2-32.3,3.3-64.6,1.1-97
			c-0.5-7.4-0.1-14.9-0.1-22.6c6.1,0,11.5-0.1,16.9,0c4.4,0.1,8.9,0.8,13.3,0.4c8.7-0.8,17.3-2.3,26-3.4c1.6-0.2,3.3,0.2,5.9,0.5
			c-0.8,11.5-1.6,22.6-2.5,34.4c-8.2,0-15.7-0.1-23.1,0c-3.2,0-6.5,0.2-9.7,0.8c-1.1,0.2-2,1.8-2.9,2.8c1,0.9,1.9,2.6,3,2.6
			c3.9,0.3,7.9,0,11.8,0c6.9,0,13.9,0,21.2,0v23.7c-8.6,0.8-16.5,1-24.4-0.9c-4.7-1.2-9.2-1-13.1,3.7c12.1,6.2,24.5,3.2,36.9,4.3
			c0,5.1,0,9.9,0,14.6c0,4.1-2.1,5.8-6.1,5.8c-7.8-0.1-15.5,0.2-23.3,0c-5.1-0.1-5.7,0.1-6.4,6.8c11,1.4,22.3-1.7,34.3,0.7
			c-0.4,5.7-0.5,10.9-1.3,16c-0.9,5.4,3.7,10.6,0.3,16c-1,0.2-1.7,0.5-2.4,0.5c-7.5-0.3-15-0.5-22.5-1.2c-6.1-0.5-7.3-0.1-9.4,6
			c9.5-2.3,18.5,0.3,27.6,1.6c3.8,0.5,6.5,1.6,8.3,5.3c0.8,1.6,3.4,3.3,5.2,3.4c4.1,0.2,8.3-0.8,12.5-0.9c3.3-0.1,6.7,0.6,10.1,0.9
			c-2,10.3-10.2,10.9-17.8,13c4.8,2.6,10.5-1.2,13.6,4.4c2.2,4,6.4,7.1,6.6,12.9c-8.7,0.8-16.8-4.5-25.5-1.7
			c-0.6,3.9-1.2,7.6-1.9,11.2c-0.4,2.2-0.3,4.3,2.1,5c1.7,0.5,3.7,0.2,5.5-0.2c1.1-0.2,2-1.3,3-2c1.7,1.8,3.2,3.3,4.6,4.8
			c10.3-7.6,13.2-8.1,25.3-5.1c2.6,0.6,5.5,0.5,8.2,0.5c5.7,0.1,11.3,0,17.4,0c-0.3,3.8-0.4,6.8-0.9,9.8c-1.2,7.1-2.6,14.1-3.7,21.2
			l0,0l0,0c-0.3,1.8-0.6,3.7-0.9,5.5c-0.6,3.9-5.2,35.8-6.4,50.1c-15.1-0.4-29.7-0.8-44.2-1.2c0-8.8-0.5-16.9,0.2-24.8
			c0.7-8.2,2.6-16.3,4.1-24.4c0.4-2.3,1.3-5.2-1.6-5.6c-3.3-0.5-7.1-0.2-10.1,1.1c-1.7,0.7-2.9,4-3.2,6.2
			c-2.2,13.1-4.4,26.2-5.8,39.4c-0.4,4-0.4,12.5-3.2,15.6c-0.2,0.2-0.2,0.9-0.1,1.4c-4.5-0.4-12.7-0.8-14.2-0.8
			c-12.5-0.3-25-0.6-37.5-0.4c-8.8,0.1-17.5,1.6-26.3,1.7c-17.1,0.3-34.2,0.3-51.2,0.1c-18.3-0.2-36.7-0.9-55-1.4
			c-1.3,0-2.5-0.1-3.7-0.4c-12.2-3-24.5-4.1-37.1-5c-22.5-1.5-44.8-5.4-67.2-8.3c-4.5-0.6-8.8-1.9-13.3-2.5
			c-12.9-1.8-25.8-3.4-38.7-5.3c-5.9-0.9-11.8-2.8-17.8-3c-14.5-0.6-29.1-0.7-43.6-0.5c-14.8,0.2-29.6,1.2-44.4,1.4
			c-11.5,0.2-23-0.1-34.6-0.6c-8.2-0.4-16.5-1.5-24.7-2.1c-3.7-0.3-7.5-0.3-11.3-0.4c-12.2-0.5-24.3-3.1-36.7-2.5
			c-8.8,0.4-17.6,0.2-26.3,0.6c-12,0.7-24,2-36,2.5c-5.7,0.2-11.5-0.8-17.3-1c-9-0.3-18.1-0.3-27.1-0.5c-17.3-0.5-34.6-1.1-51.9-1.4
			c-5.3-0.1-10.4,0.8-14.4,3.4c0.3,11.3-3,32.9-1.9,46.6c-0.4,0-0.8,0-1.3,0.1c-0.7,5.9-1.4,10.4-1.5,14.8c0,1.1,2,2.2,3,3.3
			c0.9-1,2.3-1.8,2.7-2.9c0.5-1.6,0.1-3.5,0.6-5.2c0.4-1.6,1.1-4,2.3-4.5c4.5-1.7,9.1-3.4,14.2,0.1c-3.9,1-7.8,1.9-12,3
			c-0.8,10.6,2,21.6-1.4,32.6c-2.2-0.4-4-0.7-6.5-1.2c-0.8,7.5-1.5,14.4-2.3,22c0.5,0,1.1,0.1,1.6,0.1c-0.7,7.3,0.1,17.3,0.1,22
			c0,11,0.9,22,0.4,33c-0.7,16.5-2,33-3.5,49.4c-1.3,14.5-3.3,28.9-5.1,43.3c-1.5,12.6-3.3,25.2-4.7,37.9
			c-0.6,5.7-0.1,11.4-0.4,17.2c-0.7,13.7-1.6,27.4-2.4,41.2c-0.5,9.2-0.6,18.5-1.3,27.7c-1.3,16.4-3.9,32.8-2.3,49.4
			c0.3,3.2,0,6.5-0.2,9.7c-1,16-2.1,32-3,48c-0.6,10.7-0.7,21.4-1.1,32.1c-0.3,7.6-0.8,15.3-1.2,22.1c7.9,0,14.8,0,21.7,0
			c7.3,0,14.6-0.1,21.9-0.1c3.7,0,7.4-0.1,11.1,0.4c4.2,0.5,8.3,2.4,12.5,2.3c10.4-0.1,20.8-1,31.2-1.4c1.5-0.1,3,0,4.5,0.3
			c13.1,2.5,25.9,5.6,39.6,4c12.8-1.5,25.8-0.9,38.8-1.2c2.5,0,5,0.3,7.5,0.5c4.7,0.3,9.5,0.6,14.2,0.8c2.5,0.1,5-0.2,7.5,0.2
			c14,2.2,28.3-1,42.2,3c0.2,0.1,0.5,0,0.8,0c9.5,0.5,19,1,28.4,1.7c9.2,0.6,18.4,2.7,27.5,2c11.7-1,23,0.2,34.5,1
			c11.7,0.8,23.5,0.4,35.2,0.5c6,0.1,12,0.4,18,0c27-1.9,53.9-2.3,81-2.3c4.5,0,9-0.1,10.9,4.5c2.5-1.1,4.6-3,6.3-2.7
			c3.1,0.6,6,2.4,8.6,3.5c2.2-1.2,4.2-3.4,6.2-3.4c7.2,0.2,14.4,1.3,21.6,1.8c13.2,0.8,26.5,1.4,39.7,1.9
			c16.1,0.6,32.3,1.2,48.4,1.5c10.2,0.2,20.4-0.3,30.6,0c5.2,0.1,10.9-3.6,14.3,1.1c4.2-1.2,7.4-2.9,10.6-2.8
			c10.2,0.3,20.4,1.3,30.6,2c3.7,0.2,7.5,0.2,11.3,0.3c13.2,0.3,26.5,0.6,39.7,1c1.2,0,2.3,0.6,3.3,0.8c-0.2,2.1-0.9,4-0.3,5.4
			c1.6,3.7,3.7,7.1,5.6,10.6c1.9,3.4,4.7,5.4,8.6,4.7c4.4-0.8,5-4.5,5.1-8.2c0.1-4.2,0-8.4,0-12.5c7.4-1.7,13.3,0.6,19.4,2
			c2.6,0.6,5.5,1.8,8,1.3c8.8-1.4,17.6-1.5,26,1.2c8.6,2.8,17.3,3.9,26.3,3.7c8.5-0.2,17-1,25.5-0.9c6.1,0.1,12.2,1.2,17.8,1.9
			c2.5,5.4-2,7.3-4.1,10.2c1,1.5,1.8,2.7,2.6,3.9c4.2,6.3,5.5,6.3,11.9,2.4c3.7-2.3,5.4-4.9,5-9.1c-0.1-1.4,0.2-2.9,0.3-5.1
			c2.9,0.4,5.4,0.3,7.6,1.1c4.9,1.7,9.6,2.5,14.7,1.1c1.8-0.5,4,0,6,0.2c8.5,0.7,16.9,1.8,25.4,1.9c9.4,0.2,18.9-0.7,28.3-0.8
			c5,0,9.9,1.1,14.9,1.2c9.2,0.2,18.4-0.1,27.6,0c7,0.1,7.7,1,7.3,8c-0.2,4-0.2,7.6,4.4,8.7c2.3-0.5,4.5-0.9,6.6-0.4
			c3.4,0.7,4.8-0.6,5-3.7c0.1-2.9,0-5.8,0-8.8c10.8-0.8,20.7-1.5,30.7-2.1c0.3,0,0.7,0,1,0c7.9,0.5,15.8,0.8,23.7,1.5
			c2.8,0.2,5.5,1.3,8.1,1.9c-2.1,10.2-2.1,10.2,7.8,10.6c0.8,0,1.6-0.2,2.2,0.1c4.7,2.1,7.6,0.1,8.7-3c7.7,0,14.4-0.1,21.1,0
			c3.2,0.1,6.6,1.2,9.7,0.6c10.7-2.4,21.5-1.4,32.1-0.5c14.3,1.2,28.6,3.8,42.9,5.7c4.1,0.6,8.3,1,12.4,1.5
			C1590.1,890.1,1588.7,893.6,1586.5,897.2z"/>
	</g>
</g>
<g id="classesbyname">
	<g id="monaco">
		
		<path class="st2" d="M78,676.6c-6.3,0-13.1,0-20.9,0c-3.2-30.3,0.4-60.5,0.7-90.5c4.2-0.9,7.8-2.1,11.4-2.3
			c22.5-1.2,45-2.5,67.5-3.1c13.7-0.4,27.5,1.5,41.3,0.1c1.9-0.2,4,0.5,5.9,0.6c4.3,0.1,8.5,0.5,12.8,0.1c6-0.6,11.8-2,17.8-2.7
			c3.1-0.4,6.3-0.1,9.7-0.1c-1.7,29.8-3.2,58.5-0.2,87.1c-7,1.4-10.1,4-9.9,7.9c0.2,5.6,3.5,9,10.8,10.6c-0.5,4.3-0.8,8.7-1.6,13
			c-0.6,3.3-1.4,6.6-2.3,10.1c-3.3,0-13.4,0-18.4,0c0.2-0.1,0.4-0.2,0.6-0.4c-1,0-1.9,0.2-2.7,0.4c-0.4,0-0.7,0-0.8,0
			c0,0.1-0.1,0.2-0.1,0.2c-3.3,1.1-5.3,3.5-7.1,6.5c0.8,0.9,1.7,1.5,2.1,2.3c2.9,5.9,6.3,11,13,13.7c3.8,1.6,3.2,5.7-0.9,8
			c-6.9,4-11.7,9.7-16.1,17.5c5.6-0.6,10.4-0.4,14.6-1.9c5.8-2,11.3-3.6,17.2-1.1c1.1,4.7,0.9,4.7-0.4,9.4c-1.5,5.8-3,11.7-3.9,17.6
			c-0.9,6.5-1.1,13.1-1.6,20.2c-8.6-0.8-16.8-1.9-19.2,8.7c-42.3-0.7-84.1-1.3-126.6-2c1-3.5,1.6-5.8,2.3-8.2
			c-4.4-4-10.4-0.8-15.4-3.5c-0.1-2.1-0.3-4.3-0.4-6.5c-0.5-11.4-0.8-22.9-1.7-34.3c-1.7-21.1-0.4-42.1,1.1-62.6
			c4.3-1.2,8-2.6,11.9-3.1c3.7-0.5,7.5-0.1,11.1-0.1C79.1,684,78.6,680.7,78,676.6z"/>
      <text id="monaco-name" transform="matrix(1 0 0 1 94.2029 693.546)" class="st0 st1">monaco</text>
	</g>
	<g id="hong-kong">
		<path class="st2" d="M56.6,559.2c1.3-10.7,3-21.4,4.2-32.1c2.1-18.9,3.9-37.9,5.9-56.8c0.4-3.5,1.8-6.9,1.7-10.3
			c-0.2-8.6,2-7.5,8.1-8.9c3.9-0.9,7.9-1.2,11.8-1.9c3.1-0.6,4.2-2.6,3.5-5.5c-0.4-1.7-1.1-3.3-1.8-5.3c-5.9-1.4-11.7-2.8-18-4.2
			c0.5-8.2,3.1-78.9,2.3-110.6c2.2-1.4,5-1.3,7.8-1.3c7.5-0.1,139.6-5.2,157.2-6.4c0.4,3.8,1.3,7.5,1.2,11.2
			c-0.3,11.7-0.8,23.5-1.6,35.2c-0.9,14.2-2,28.5-3,42.7c-0.2,3.2-0.3,6.6,0.3,9.8c0.7,4.2,0.2,7.9-2.2,11.5
			c-4.8,0.3-9.5,0.6-13.8,0.9c-1.9,4.6-4.4,8.5,0.2,12.1c14.1-0.1,16.6,2.7,10.9,12.9c-7.8,0.8-15.6,1.6-23.5,2.5
			c0.4,2.5,0.3,4.8,1.1,6.8c1.8,4.6,17.6,18.1,24,24.6h-0.1c-1,5.5-1.1,5.6-5.6,8.2c-3.9,2.3-18.9,11.4-17.8,14.5
			c-0.1,0-0.2,0-0.3,0.1c2.6,3.2,9.5,1.3,11.5,1c3.2-0.5,6.4-1.5,9.6-1.6c6.9-0.2,7.3,0.5,7,7.2c-0.5,10-0.8,20.1-1.7,30
			c-0.6,6.6-2,13.1-2.8,18.8c-7.8,0.8-14.4,1.5-21.1,2.2c-9.7,1-19.4,2.1-29.3,1c-9.9-1.2-20-1.7-30-1.7c-14,0-28.1,0.6-42.1,1.1
			c-7.2,0.3-14.7,0.4-21.7,2c-10.7,2.5-20.8-1.4-32-0.6C56.6,564.5,56.3,561.8,56.6,559.2z"/>
      <text id="hong-kong-name" transform="matrix(1 0 0 1 102.2039 450.5501)" class="st0 st1">hong kong</text>
	</g>
	<g id="las-vegas">
		
		<path class="st2" d="M62.1,158.3c-3.7-10.6-6.8-21.4-10.2-32.1c-0.7-2.1-1.2-4.4-2.2-6.3c-4.4-8.7-6.3-18-6.8-27.5
			c-0.7-12.6-3.6-24.7-7-36.8c-2.2-8-4.1-16.1-5.9-24.2c-0.6-2.9-0.5-6-0.3-9c0.5-5.6,3.6-7.9,9-7.7c4.2,0.1,8.3,0,13.5,0
			C53,19.3,54,24.8,55,30.8c2.1,0.5,4.4-1.1,7.1,0.1c2.5,1.1,5.9,0.6,9.3,0.8c2.7-5.2,3-10.2-1.1-15c-1-1.2-2.4-2.1-2.8-3.4
			c-0.8-2.1-1.1-4.9,1.6-5.8c3.2-1.1,6.7-2,10.1-2c7.6,0.1,15.2,1.2,22.8,1.2c15.9-0.2,31.8-2.1,47.8-0.1c7.5,0.9,15.2,0.9,22.8,1.5
			c2.7,0.2,5.3,1.2,9,2.1c0,3.9,0,7.9,0,11.8c-0.1,7.1,1.9,9.5,8.8,10.6c1.2,0.2,2.5,0.3,3.7,0.4c9.7,0.4,12.7-2.5,12.3-12.2
			c-0.2-3.7-0.4-7.5-0.7-11.5c4.4,0,8.5,0,12.7,0c9,0,18-0.3,27,0.1c8.9,0.4,17.8,1.8,26.7,2.4c9.7,0.6,19.4,0.8,29.1,1
			c8.2,0.2,16.4,0.3,24.3,3.2c4.4,1.6,9.2,1.9,14.5,2.9c-1.8,62.3-3,124.1-5.6,186.2c-6.7-2.7-11.6-8.8-15.4-18.7
			c-6.5,2.6-5.8,11.9-13.4,13.7c-1.9-6.1,2.3-13.3-3-19.4c-12.2-0.6-24.9-1.4-37.7-1.8c-13.5-0.4-27.1-0.5-40.6-0.4
			c-16.3,0.1-32.5,0.4-48.8,0.6c-3,0-6-0.2-9,0.1c-7.3,1-10.8,5.9-8.2,12.7c2,5,1.8,9.7,1.5,14.7c-0.4,6.5-0.1,13-0.1,20.6
			c-25,0.9-48.7,1.9-72.4,2.8c-4.1-4.6,2.4-13.1-6.6-15.9c-0.8,3-1.7,6-2.5,8.9c-0.3,0-0.7,0.1-1,0.1c-1-5.6-2.2-11.1-2.8-16.7
			C72.4,189.7,67.5,173.9,62.1,158.3z"/>
      <text id="las-vegas-name" transform="matrix(1 0 0 1 103.2041 125.9475)" class="st0 st1">las vegas</text>
	</g>
	<g id="honolulu">
		
		
			<path class="st2" d="M355.3,42.6c3.3-0.5,6.3-1.2,9.4-1.3c3.4-0.1,4.5-1.8,4.4-4.8c-0.1-2.8-0.6-5.5-0.7-8.3
				c-0.1-3.9,0-7.7,0-11.8c1.9-0.3,2.8-0.5,3.8-0.5c11.5,0.2,23,0.4,34.5,0.6c9.4,0.1,35.4,1.3,35.6,2.5c0.5,2.6,5.1,8.2,2.6,17.8
				c-1,3.8-1.3,7.8-1.9,11.5c3.5,2.7,14.3,0.5,16.7,1.4c1.2,0.4,2.7-0.4,4.2-0.6c0.9-9.9-4.7-19.9,2.4-29.6
				c4.2,0.3,8.9,0.3,13.5,1.2c10.6,2,21,6,32.2,3.3c2.5-0.6,5.1-0.8,7.7-0.8c1.8,0,3.8-0.4,5.7-0.3c10.2,0.6,20.4,1.3,30.6,2
				c1.9,0.1,3.8,0.5,6.6,0.8c-1.8,7.7,0.9,13.7,4.8,19.5c0.8,1.2,0.6,3.4,0.5,5.1c-0.4,11.4-1.5,22.8-0.9,34.2
				c0.8,15.4,0.1,30.8-3.1,45.8c-3.3,15.2-2.6,30.6-3.7,45.9c-0.2,2.7-0.8,7.9-1.5,14.2l-1.7,1.1c-0.3,0.2-7.1,4.6-13.8,9.9
				c-3,2.3-4.6,8.7-6.5,10.5c-1.5-1.9-2.5-6.6-3.6-7.8c-4.9-5.5-10.1-10.3-10.3-10.5c0,0-2.9-4.5-4.2-4c-5.7,2.5-1.3,22.8-0.2,27.3
				c-11.1-3-36.3-4-41.3-3.5c-1-4.3-1.1-9.1-6-9.9c-5.8-0.9-11.7-1.1-18-1.7c-0.6,4.8-1.1,8.6-1.6,13.2c-30.1,1.4-59.7,4.1-89.3,3
				c-4.1-5.4,1.3-7.8,3-10.9c-1-3.6-1.9-6.8-2.9-10.5c-3.6,0.8-7.2,1.6-11.6,2.6C352.1,146.3,353.7,94.7,355.3,42.6z"/>
          <text id="honolulu-name" transform="matrix(1 0 0 1 409.2335 125.9478)" class="st0 st1">honolulu</text>
		
	</g>
	<g id="oimiakon">
		
		<path class="st2" d="M816.7,172.1c1-7.1,1.8-14.4,1.3-21.6c-1.1-17.9-0.9-35.6,2-53.3c1.8-10.9,3.5-21.8,5.1-32.7
			c0.5-3.5-0.5-7.8,1.3-10.3c2.1-3.1,0.4-5.3-0.2-7.8c3.2-1,5.9-1.8,8.7-2.7c0.2-3.7,0.3-6.9,0.4-9.5c16-4.5,31.9-4.5,47.9-4.9
			c11.7-0.2,23.3-1.1,35-1.5c3.1-0.1,6.3,0.2,10.4,0.3c0,5.6,0,10.3,0,15c0,2.4,1.8,4.6,3.6,3.3c4.9-3.4,9.6-1,15-0.5
			c3.2-5.4,0-12.9,4.9-18c2.7,0.5,5.1,1.2,7.6,1.3c15.5,0.5,31,0.7,46.5,1.2c2.6,0.1,5.2,0.8,8.4,1.3c0.6,11.9,1.1,23.1,1.7,34.2
			c0.6,11,1.3,21.9-0.2,33c-1.4,11.1-0.3,22.6-1.5,33.8s1.7,22.6-1.1,33.6c-0.8,0.1-0.8,0.1-1.6,0.2c-3.2-6.5-6.3-12.9-9.5-19.4
			c-0.9,0.1-1,0.1-1.9,0.2c-2.5,8.5-5,17-7.6,25.9c-0.5,0-11.3-7.4-14.5-6.7s-3.9,3.3-3.4,6.5c0.3,1.9,0.1,3.9,0.1,5.4
			c-10.7,2.5-20.7,4.7-30.6,7.1c-3.6,0.9-7.5,1.8-9.1,5.9c-1.6,4.2-3.5,8.4-4.5,12.7s-5.2,7-4.5,12.2c0.5,3.6-2.3,6.1-6.5,5.8
			c-1.3-0.1-2.5-0.2-3.8-0.2c-12.1,0.2-24.3,0.4-36.4,0.5c-3.5,0.1-7.3,1-10.4-0.1c-4.8-1.7-9.1-0.9-13.9-0.9
			c-2.1,0-4.2-0.3-6.3-0.7c-0.1,0-0.1,0-0.2,0l1.5-10.8c0.3-1.8-2-3.1-3.7-2.1l-0.2,0.1c-0.3,0.2-7.1,4.2-13.8,9.1
			c-1.7,1.2-3,3.7-4.1,5.9c-0.9,1.7-3.7,1.6-4.4-0.2c-0.6-1.4-1.1-2.7-1.6-3.2c-4.9-5-10.1-9.4-10.3-9.6l-0.2-0.2
			c-0.1-0.1-0.2-0.2-0.4-0.3c-0.3-1.4-0.5-2.8-0.3-4.1C812.6,194.3,815.2,183.2,816.7,172.1z"/>
      <text id="oimiakon-name" transform="matrix(1 0 0 1 868.2794 125.9476)" class="st0 st1">oimiakon</text>
	</g>
	<g id="pompeia">
		
		<path class="st2" d="M1100.5,158.2c0.9-0.9,1.2-2.8,1.2-4.3c0.6-14.8,1.2-29.6,1.5-44.4c0.2-9-1-18-0.4-26.9
			c1.1-14.5,3.1-28.9,4.8-43.4c0.4-3.6,0.9-7.3,1.3-10.9c4.6-0.3,8.4-0.3,12.1-0.9c15.1-2.6,30.4-2.2,45.6-1.8
			c1.5,0,3.1,0.2,4.4,0.9c7.2,4.2,14.9,2.4,22.5,2.1c3-0.1,5.9-0.5,8.9-0.4c10.7,0.4,21.4,1.1,32.2,1.3c2.7,0.1,15.9-0.2,22.9-0.7
			c0,0.5-0.1,1.1-0.2,1.6c-0.3,3.4-0.9,6.8-1.4,10.3c5.3,2.8,9.9,0.3,14.5-0.3c1-0.1,2-3,2.5-4.8c0.7-2.6,0.9-5.2,1.2-7.5
			c5,0.4,9.3,1.6,13.3,0.9c5.7-0.9,11.2-0.8,16.9-1c19-0.5,38-1.9,57.1-2.9c4.2-0.2,8.3,0,13.3,0c-1.5,5.6-4.5,9.3-6.8,13.4
			c-6,10.7-12.2,21.3-17.7,32.2c-2.8,5.5-3.9,11.9-6.3,17.7c-3.3,8.1-7,16.1-10.6,24.1c-6.2,13.5-12.4,26.9-18.6,40.3
			c-4.5,9.8-9.2,19.4-13.7,29.2c-3.5,7.7-6.8,15.5-9.9,22.6c-7.9,0-14.6,0-21.3,0c-2,0-3.4-0.7-5-2.5c-4.5-4.9-8.3-4.7-13.5-0.4
			c-1.4,1.1-3.4,1.7-5.2,2c-2.2,0.3-4.5,0-6.7,0.2c-16.8,1.1-33.5,2.7-50.3,3.2c-14.8,0.4-29.6-0.6-44.4-0.9c-6.4-0.1-12.9,0-18.9,0
			c-4.3-6.5-8.2-12.5-12.2-18.6c6.8-10,6.8-10,4.4-15.5c-6.7,0-13.3,0-20.2,0C1097.7,167,1096.5,162.2,1100.5,158.2z"/>
      <text id="pompeia-name" transform="matrix(1 0 0 1 1178.3079 125.9475)" class="st0 st1">pompeia</text>
	</g>
</g>
</svg>
