<?xml version="1.0" encoding="utf-8"?>
<!-- Generator: Adobe Illustrator 21.1.0, SVG Export Plug-In . SVG Version: 6.00 Build 0)  -->
<svg version="1.1" xmlns="http://www.w3.org/2000/svg" xmlns:xlink="http://www.w3.org/1999/xlink" x="0px" y="0px"
	 viewBox="0 0 1616 1290" style="enable-background:new 0 0 1616 1290;" xml:space="preserve">
<style type="text/css">
	.st0{fill:#666666;}
</style>
<g id="generalplan">
	<g>
		<path d="M536.8,961.8c-10.4,2.4-151,3.1-156.6,3.7c-10,1.2-12.5,7.5-6.6,16.7c4.7-0.7,9.6,0.3,14.3,0.3
			c10.2,0.1,49.1-5.8,58.4-6.2c1.2-0.1,3.5,1.4,3.4,2c-0.3,5.9,5.8,6.8,7.4,11c5.1-0.7,8.6-2.3,8.7-7.9c0-1.3,1-3.5,1.9-3.7
			c4.2-1.2,9-3.2,12.9-2.3c6.8,1.6,50.2-0.8,52.6-0.4c7.2,1.4,8.6,0.5,10.1-6.8C544.5,962.1,543.1,960.4,536.8,961.8z"/>
		<path d="M810.8,752.3c-0.7-0.2-1.3-0.3-2-0.5c-0.5,1.1-1.1,2.1-1.3,3.2c-0.9,5.1-1.6,10.2-2.4,15.4c-0.5,3.1-0.9,6.2-1.4,9.3
			c0.6,0.1,1.2,0.2,1.8,0.3C810.4,771.4,812.8,762.2,810.8,752.3z"/>
		<path d="M812.3,521.7c0.7-6.2,1.1-12.4,1.6-18.6c-0.4-0.2-0.9-0.4-1.3-0.6c-0.6,0.7-1.7,1.3-1.8,2c-1.3,7.8-2.5,15.6-3.8,23.7
			C811.6,525.5,811.8,525.5,812.3,521.7z"/>
		<path d="M814,691.7c-3.3,9.3-2.5,18.3-4.4,26.9C816.2,709.3,817.7,700.6,814,691.7z"/>
		<path d="M813.9,382c-4.2,6.4-5,13.1-6.9,19.6C816.2,393,817.1,390.4,813.9,382z"/>
		<path d="M807.6,666.4c2.3-6.3,2.5-12.1,0.9-18.7C804.1,652.7,803.9,659.3,807.6,666.4z"/>
		<path d="M814.7,462.5c-3,4.8-3.8,9.6-3.7,16C817.7,471,818.3,468.4,814.7,462.5z"/>
		<path d="M801.7,862.5c3.7-5,4.4-10.3,2.8-17.1C798.4,851,801.7,857.1,801.7,862.5z"/>
		<path d="M802.6,614.5c4.4-4.8,4.2-7.3-0.3-13.2C798.6,605.8,802.8,610.2,802.6,614.5z"/>
		<path d="M807.4,574.1c2.7-4.4,3.7-9.2,2.5-14.4C805.5,564,806.3,569,807.4,574.1z"/>
		<path d="M810.3,436.7c2.5-4.5,4.3-8.5-0.3-13.1C806.2,428.3,807.7,432.3,810.3,436.7z"/>
		<path d="M806,807.4c-3.8,4.1-4.3,6.8-2.8,14C806.2,816.8,806.1,812.3,806,807.4z"/>
		<path d="M750.1,1024.3l0.3-0.3c-0.1,0-0.2,0-0.3,0C750,1024.1,750.1,1024.2,750.1,1024.3z"/>
		<path d="M1605.6,934.3c-7.5-0.5-15-1.4-22.5-1.9c-19.5-1.2-39.1-2.2-58.7-3.4c-6.3-0.4-12.5-1.6-18.7-1.8
			c-9-0.3-18.1,0.3-27.1-0.2c-6.4-0.3-12.8-1.9-19.2-2.6c-3-0.3-6.5-1.1-8.9,0.1c-4.9,2.5-9.8,1.6-14.7,1.6c-8-0.1-16.1-1.1-24-0.7
			c-6.6,0.4-12.9-0.2-19.3-1.7c-5.5-1.3-11.2-2.9-16.9,0c-1.8,0.9-4.4,0.4-6.7,0.3c-17-0.3-34.2-1.7-51.1-0.6
			c-17.6,1.1-35-0.2-52.5-1.1c-8.8-0.5-17.6-1.5-26.3-2.9c-17.2-2.9-34.3-4.9-51.7-2.4c-8.5,1.3-17,0.3-25.4-1.3
			c-5.9-1.1-11.9-1.7-17.9-2.2c-5-0.5-10-0.5-15-1c-10.2-1.1-20.4-3.1-30.6-3.5c-22.3-0.8-44.7-0.8-67-1.2
			c-13-0.2-26.1-0.9-39.1-0.9c-15.5,0-31.1,0.9-46.6,0.9c-17-0.1-34.1-0.6-51.1-1.4c-30.1-1.5-60.1-3.3-90.2-5
			c-1.1-0.1-2.3-0.8-3.7-1.4c0-3.4,0-6.5,0-9.6c-1.2,1.9-1.2,3.9-1.3,5.8c-0.2,3.4-1.8,4.6-5.3,4.7c-12.3,0.1-24.6,0.5-36.9,0.9
			c-15.8,0.5-31.6,1.3-47.4,1.6c-18.1,0.3-36.1-0.4-54.1-1.3c-24.3-1.2-48.6-1.7-72.8-4.3c-20.1-2.2-40.5-2.2-60.8-2.8
			c-11.5-0.4-23.1-0.1-34.6,0c-11.3,0-22.6,0.7-33.9,0.1c-16.3-0.9-32.4-3.3-48.7-3.3c-19.5-0.1-39-1.9-58.6-2.8
			c-1.9-0.1-3.9,0.6-5.8,1c-3.3,0.6-6.6,1.3-10.8,2.1c0-5.8-0.2-10.5,0-15.1c1.3-23.6,2.8-47.1,4.1-70.7c0.6-11.8,1.1-23.6,1.6-35.3
			c0.4-10.5,0.7-21,1.1-31.5c0.2-3.8,0.8-7.5,1-11.3c1-18.3,1.9-36.6,2.8-54.9c0.8-14.8,0.9-29.7,2.4-44.4
			c2.7-25.2,6.5-50.3,9.3-75.5c1.3-11.5,1.8-23,2.1-34.6c0.3-11.3-0.1-22.6-0.1-33.9c0-4.4-2.1-16.9-2.9-24.5
			c17,1,34.4,1.5,52.1-0.5c0.8-5.9,1.7-10.8,2-15.7c1-13.5,1.6-27,2.6-40.5c0.4-5.4-0.4-6.9-5.9-6.9c-10.8-0.1-21.5,0.1-32.3,0.3
			c-6.1,0.1-12.1,0.5-18.8,0.8c1.9-13.2,3.3-34.4,5.3-44.7c5.6-0.7,10.3-2,15-1.8c9.9,0.4,19.8,2,29.7,2.4
			c10.7,0.5,21.5,0.2,32.2,0.4c5.5,0.1,11,0.4,16.5,1c8.2,1,16.3,2.2,24.6,1.3c13.7-1.5,27.4-2.8,41.1-3.6c9.6-0.5,19.4-0.7,29,0.5
			c9.5,1.2,18.8,2.9,28.4,2.2c3.2-0.2,6.5,0.3,9.7,0.7c8.4,1,17,3.7,25.3,2.8c14.1-1.4,28.1,0.4,42.1-0.4c12-0.7,24-2,36-2.5
			c10-0.4,20-0.6,29.9,0c6.7,0.5,13.2,2.9,19.8,4c6.1,1,12.4,1.2,18.5,2.2c11.4,1.7,22.7,3.7,34,5.5c9.1,1.5,18.2,3.1,27.3,4.2
			c8.2,1,16.6,0.9,24.7,2.4c7.6,1.4,15.2,2.2,23,2.3c5,0,9.9,0.8,14.9,1.6c6.4,1,12.7,3.3,19.1,3.5c15.2,0.6,30.4,0.3,45.6,0.6
			c8.5,0.2,16.9,1.5,25.4,1.4c19.7-0.2,39.5-0.2,59.1-2.9c13.4-1.9,26.9-3.1,40.4-2c1.3,0.1,10.6,1.6,16,2.4
			c0.7,1.2,1.5,2.4,2.3,3.7c4.7-3.5,113-0.3,113.3-0.2c6.7,1.6,40.5,1.9,48.9,0.9c5.5-0.7,8.6-3.2,10.3-8.5
			c2.5-7.7,5.2-15.2,8.5-22.6c8.7-19.4,17.8-38.5,26.7-57.7c2.8-6.1,5.8-12.2,8.4-18.5c5.3-12.4,10.1-25,15.6-37.4
			c2.7-6.1,6.8-11.7,9.6-17.8c6.7-14.8,13.1-29.8,19.4-44.8c4.4-10.4,8.1-21.1,13-31.2c7.6-15.9,16.6-30.9,27.5-44.9
			c4.1-5.3,7.2-11.5,10.4-17.4c0.9-1.6,0.6-6.9,1-9c-1.9-0.3-12.1-0.6-16.6-0.2c-9,0.9-60.9,3.7-74.2,3.9
			c-10.2,0.2-47.8-0.6-50.6,2.3c1.6,0.4-0.9,5.2-0.3,6c-5.1,0.1-12.1,0.3-12.9,0.3c-16.6-0.1-33.1,0.1-49.7-0.2
			c-7.8-0.1-15.5-1.1-23.3-1.3c-10.5-0.3-21-0.6-31.5-0.3c-8.8,0.2-17.5,1.3-26.3,1.8c-5,0.3-9.9-0.3-12.4-3.8
			c-5.6,1.7-10.2,3.8-14.9,4.5c-8.4,1.2-17,2.1-25.5,2.2c-12.7,0.1-25.5-0.5-37.9-0.8c-1.3-2.8-2.3-5-3.5-7.6
			c-1.4,1.2-2.5,1.7-2.7,2.4c-1.3,4.8-4.8,6.1-9.1,6c-16-0.2-32.1-0.4-48.1-0.8c-11-0.3-22-1.5-33-1.3c-20.3,0.4-40.6,1.4-60.9,2.3
			c-4.2,0.2-8.4,0.9-12.7,1.2c-5.7,0.4-12.2,2.4-17,0.4c-5.1-2.1-8.6-1-12.7,0.7c-5.5,2.2-10.9,3.1-16.6,0.3
			c-1.2-0.6-2.9-0.5-4.3-0.5c-14.3,0-28.6,0.3-42.8,0.1c-10.8-0.2-21.5-1-32.3-1.4c-17.6-0.6-35.1-0.8-52.7-1.7
			c-14.5-0.7-29-2.4-43.5-3.1c-9.2-0.5-18.5,0.1-27.8-0.1c-8.5-0.1-17.1,0-25.6-1.1c-8.5-1.1-16.8,0.8-25.2,0.4
			c-9.3-0.5-18.5-0.8-27.8-0.9c-3.2-0.1-6.5,0.8-9.7,0.5c-22.7-1.9-45.4-4.1-68.1-6.1c-6.7-0.6-13.5-0.7-20.2-0.9
			c-5-0.2-10-0.1-15-0.4c-6-0.4-12-1.2-18-1.6c-16.2-1.1-32.4,0.9-48.6-0.9c-0.9-0.1-1.9,0.5-2.9,0.6c-3.9,0.3-7.9,0.9-11.8,0.6
			c-4-0.2-7.9-1.5-11.9-1.8c-9.7-0.8-19.5-1.5-29.3-2.1c-20.8-1.2-41.5-2.6-62.3-3.5c-15.8-0.7-31.6-0.9-47.4-1.3
			c-6.8-0.2-13.5-0.3-20.3-0.5c-15-0.5-30-2.9-45.1-1.2c-5.5,0.6-11.2,1.4-16.5,0.6c-11.6-1.8-23.2-0.5-34.9-2.2
			c-10.5-1.5-21.5-0.1-32.2,0.1c-7,0.1-13.9,0.4-20.3,0.6C4.3,76,4.3,76,11.8,82.7c0.7,0.7,47.1,219.4,48.8,232.3
			c5.7,0.4,6.6,4.3,6,10c-0.7,5.9,0.1,12-0.1,18c-0.2,6.7,0.2,13.7-1.6,20c-1.7,6.2-2.6,12.1-1,18.7c3.6,1.2,5.7,3.7,6.8,7.2
			c-0.1,15.6-0.8,39.8-1.1,48.1c-0.5,16,0.9,33-0.9,48.9c-0.8,7,0.2,14.9-5.5,19c0,9.1,0.3,17.1,0,25c-0.3,7-1.1,14-1.7,21
			c-1.3,13.5-2.4,26.9-4.1,40.3c-2,16.2-5.6,32.2-4.6,48.6c0.4,5.7,1,11.5,0.9,17.2c-0.3,23.9-1.1,47.7-1.4,71.6
			c-0.2,18.6-0.3,37.2-0.1,55.8c0.2,13.5,1,27.1,1.3,40.6c0.2,11.2,0,22.5,0,33.7c-2.7,1.3-4.8,2.3-6.7,3.2c0,6-1.3,11.9,0.4,16.8
			c1.3,3.8,1.4,7,1.3,10.7c-0.2,6.7,1.1,13.4-1.3,20c-0.2,0.7,0.1,1.5,0.1,2.2c-0.2,8.2-0.4,16.5-0.8,24.7
			c-0.3,7.8-0.9,15.5-1.3,23.3c-0.2,3.7,0,7.4-0.5,11.1c-0.8,5.4-1.2,10.5,4,13.9C46.6,995.3,2.1,1149.2,1.1,1154
			c-0.4,1.8-0.3,3.7-0.6,6.6c4-0.9,7.1-1.7,10.2-2.4c5.2-1.3,10.8-2.8,15.2,0.6c5.4,4.2,10,3.2,14.9,0.4c3.7-2.1,7.9-3.2,12.2-2.9
			c5.5,0.4,11.2,0.8,16.5-0.3c8.5-1.8,16.8-1.8,25.2,0.3c1.3,0.3,3.6,0.4,4.2-0.3c2.7-3.4,6.3-2.5,9.7-2.5c5.8,0,11.5,0,17.3-0.3
			c1.3-0.1,31.5-0.7,48.7-1.2c6.6,0.7,13.1,1.4,19.7,1.8c3.7,0.2,7.4-0.9,11.1-1.1c12.2-0.6,24.5-1.4,36.7-1.6
			c9.2-0.2,18.5-0.3,27.7,0.5c11.7,1.1,23.2,3.2,34.9,4.8c1.7,0.2,3.7,0.8,5.2,0.3c4.2-1.6,7.1-0.5,9.8,3c1.9,2.5,5.6,3.3,6.8,0.3
			c2-4.9,5.3-3.7,8.6-3.4c9.2,1,18.3,2.3,27.5,3.3c4.5,0.5,9.2-0.2,13.4,0.9c6.7,1.8,13.3,1.9,20.1,1.1c1.2-0.1,2.5-0.2,3.7-0.2
			c12.7,0.2,25.5,1.3,38.2,0.6c19.3-1.1,38.4-1.2,57.6,1c5.9,0.7,12,0.4,17.9,0.2c13.7-0.5,27.3-2.6,41.1-1.1
			c10.4,1.1,20.9,1,31.3,1c12.9,0.1,26,1,38.7-0.7c11.1-1.5,22-0.9,32.9-0.9c12.5,0,25-0.7,37.4-1.7c2.8-0.2,5.6-0.7,8.4-1
			c1.2,0.1,2.6-0.1,4-0.3c1.8-0.1,3.6-0.1,5.3,0.1c14.1,1.7,28.3,2.1,42.3,4.7c12,2.2,24.3,2.9,36.5,3.2c15.8,0.4,31.1,4.4,46.9,5.1
			c16.9,0.8,33.9,2.8,50.9,3.1c4.5,0.1,9,0,13.5,0.5c11.4,1.4,22.7,3.1,34.1,4.6c3.9,0.5,7.9,1.1,11.9,1.3
			c7.7,0.5,15.6-0.1,23.1,1.3c13.6,2.4,27.1,4.2,40.9,4.5c15.5,0.3,31,1.9,46.5,2.7c5.3,0.3,10.5,0.2,15.8,0.3
			c18.2,0.5,36.5,2.2,54.7,1.3c16.9-0.9,33.6-1.4,50.4,0c9.7,0.8,19.2,2.4,28.7,3.6c0.4,2.8,0.8,5.2,1,6.7c3.6,0.5,6.4,0.6,8.9,1.4
			c11.3,3.6,11.3,3.6,15.1-7.1c0.9-0.1,1.8-0.3,2.8-0.3c20-0.5,39.3,4.4,58.9,7c20.8,2.7,41.3,7.7,61.9,12c2.8,0.6,6.3,1.7,7.8,3.8
			c2.4,3.2,5.7,4,8.8,5.2c7.4,2.8,10.8,1.1,13.7-6.3c0.3-0.7,0.7-1.3,1.3-2.3c19.3,0.9,38.7,1.9,58.1,2.9c0.9,2.7,1.9,5.4,2.5,7.2
			h15.9c1.4-2.2,2.9-4.5,4.3-6.7c5.8-0.3,11.3-0.4,16.8-1c5.7-0.6,7.8-3.1,8.4-8.6c0.3-3.4,0.8-6.9,1.8-10.2
			c2.2-7.4,4.5-14.8,7.3-22c4.4-11.5,8.6-23.1,13.9-34.1c10.2-21,19.7-42.4,29-63.9c5.9-13.8,12.1-27.4,18.6-41
			c6.7-14,14.3-27.6,21.3-41.5c7.8-15.4,15.4-31,23.3-46.3c1.2-2.2,3.8-3.7,6-5.8C1615.7,938.2,1612.2,934.7,1605.6,934.3z
			 M399.7,401.3c2.8,4,1.2,8.6,1.1,13c-0.4,10.2-1,20.4-1.6,30.7c-0.1,1.2-0.1,2.5-0.3,3.7c-0.7,5.5-0.9,6-6.4,6.2
			c-11,0.4-22,0.4-33,0.2c-5.2-0.1-5.5-0.9-4.9-7.3c1.7-2.3,2.7,3.9,4.5,0.4c8.3-0.6,16.6-1.2,24.9-1.7c0.9-0.1,1.8,0.8,2.7,1.2
			c3.3,1.3,5.3,0,6.1-3.3c1.6-6.2,3.4-12.2,1.9-18.9c-1.3-5.9-0.8-12.3-1-18.5c-2.6-1-5.2-2-8.4-3.3
			C390.2,400.4,390.5,400.3,399.7,401.3z M388.5,436.1c0.5,5.6,0,6.2-5.6,7.5c-10.5,2.4-10.5,2.4-16.2,0.1c3.6-11.3,13-17.4,21-25.1
			c4.8,10.2,4.8,10.2-0.2,13.4C387.9,433.3,388.4,434.7,388.5,436.1z M390.2,410.5c-0.5,1-0.9,4.2-2.5,5c-4.5,2.2-6.5,8.9-12.8,6.9
			c-0.1,9-10.3,10.4-13,17.6c-0.5-9-2.2-17.7-0.7-26.5c0.4-2,2.3-3.8,3.7-6C373.1,407.8,381.7,401.7,390.2,410.5z M1150.7,369.8
			c-1.1,0-2.2-0.1-3.4-0.1c3.1-12.4,7.3-38.3,7.8-39c7.6,4.2,4.6,9.3,3.5,14.2c-0.5,2.2-1.1,4.4-1.8,6.5
			C1154.8,357.6,1152.7,363.7,1150.7,369.8z M1165.9,344.7c-0.2,4.5-1,8.9-1.8,13.3c-0.7,4.1-1.8,8.1-2.8,12.3
			c-4.6-0.6-4.7-2.8-4.2-5.2c0.7-3.7,1.7-7.3,2.5-10.9c1.3-6.1,2.6-12.2,3.9-18.2c0.3-1.1,1-2.1,1.9-3.9
			C1168.5,336.8,1166.1,340.8,1165.9,344.7z M1167.6,369.9c1.1-12.7,2.2-25.3,3.4-38.6c3.2,0,5.1,0,7.9,0c-3.2,13.3-5.2,26.4-9.3,39
			C1168.9,370.1,1168.2,370,1167.6,369.9z M1175.4,368.8c2.1-11.1,4.2-22.1,6.4-33.1c0.6-3.2,2.2-4.9,5.7-3.5
			c0.6,9.5-6.3,35.6-11.2,40.3C1175.8,370.6,1175.3,369.7,1175.4,368.8z M1195.8,343.2c-1.1,7.7-2.6,15.3-4,22.9
			c-0.1,0.7-0.2,1.5-0.6,2.2c-1,2.1-1.2,5.8-4.6,4.8c-3.9-1.1-1.1-4.2-0.8-6.3c1.4-8.4,2.9-16.7,4.5-25.1c0.6-3.2,0.3-6.9,5.3-9.4
			C1195.8,336.5,1196.3,339.9,1195.8,343.2z M1205.4,367c-1.2,6.2-1.3,6.3-9.2,6c0-1.6-0.2-3.2,0-4.8c1.1-9.4,2.3-18.8,3.2-28.2
			c0.6-6.5,2.4-7.7,10.5-5c-1.3,9.4-2.5,18.5-3.8,27.6C1206,364,1205.7,365.5,1205.4,367z M1217.6,351.6c-0.5,5.7-1,11.5-1.5,17.2
			c-0.3,3.7-1.8,5.6-6.6,4.5c0.6-5.1,1.2-10.3,1.7-15.4c0.6-7,1.1-14,1.5-21c0.2-3.6,1.5-5.6,6.4-4.6
			C1218.6,338.7,1218.1,345.1,1217.6,351.6z M1221.8,319.5c-0.7,7.4-1.7,8.6-9,9.4c-3.5,0.4-7,0.4-10.5,0.2
			c-8.8-0.4-17.5-1.4-26.3-1.3c-6.3,0.1-20.2,1-20.1-0.4c0.6-4.3,1.1-8.6,1.7-12.9c20.9,1.5,45-2.7,64.3-0.7
			C1221.8,316,1222,317.8,1221.8,319.5z M1168.3,303.2c-0.6,3.2-5.5,5.3-10,5.9c1.2-8.7,2.3-17.5,3.5-26.3c3.3-0.6,6.3-1,10.1-1.7
			C1170.6,289.4,1169.5,296.3,1168.3,303.2z M1176.3,281c2.6,0,5,0,8,0c0.3,10.3-3.1,19.3-4.7,29.2c-3.4-0.5-5.7-0.9-8.2-1.3
			C1173.1,299.3,1174.7,290.4,1176.3,281z M1193.3,308.1c-4.7,4.7-1.4,1.6-8.1,0.7c-0.4-9.2,1.8-18,4-27c3-0.7,5.8-1.4,9.1-2.1
			L1193.3,308.1z M1198.9,298.3c0.5-4.2,3.2-9.8,3.4-14.1c0.1-2.3,0.8-3.9,4.1-3.8c0.2,1.5,0.8,3.2,0.5,4.7
			c-1.3,6.4-2.7,12.7-4.3,19c-0.4,1.5-1.6,3.4-2.9,4c-1,0.4-2.2,0.9-3.3,1.2C1198.5,306.4,1198.6,300.9,1198.9,298.3z M1207.4,308.1
			c1.8-9.8,3.4-18.8,5.1-28.1c2.2,0,4.6,0,7.1,0c-0.7,7.8-1.4,15.1-2,22.5c-0.5,6.3-1,6.8-7.3,6.1
			C1209.2,308.6,1208.2,308.3,1207.4,308.1z M1220.1,307.4c1.1-8.1,2-16.2,3.4-24.2c0.6-3.5,1-3.5,5.9-4.3
			c1.2,9.3-2.1,17.7-4.7,26.3c-0.4,1.3-2.1,2.3-3.1,3.4C1221.1,308.2,1220.6,307.8,1220.1,307.4z M1284.6,284.4
			c-12.5,28.7-25.1,57.3-37.5,85.4c-8.9,1.7-16.7,3.1-25,4.7c0-6.7-0.1-12.9,0-19.1c0.1-4.5,0.6-9,1.1-13.5c0.5-3.7,1.3-7.4,2-11
			c0.2-1,0.9-1.9,0.8-2.9c-0.7-11.8,4.2-22.6,6.4-33.9c0.8-4.1,1-8.5,1-12.7c-0.1-3.6,1.2-5.1,4.8-5c3.7,0.1,7.3,0,11.5,0
			c0.3,2.2,0.7,4.6,1.1,7c9.3,5.5,11.3,4.9,13.8-4.3c6.9-4.7,13.8-0.9,21.2-0.3C1285.3,281,1285.3,282.8,1284.6,284.4z M1101,223
			c0.9-0.9,1.2-2.8,1.2-4.3c0.6-14.8,1.2-29.6,1.5-44.4c0.2-9-1-18-0.4-26.9c1.1-14.5,3.1-28.9,4.8-43.4c0.4-3.6,0.9-7.3,1.3-10.9
			c4.6-0.3,8.4-0.3,12.1-0.9c15.1-2.6,30.4-2.2,45.6-1.8c1.5,0,3.1,0.2,4.4,0.9c7.2,4.2,14.9,2.4,22.5,2.1c3-0.1,5.9-0.5,8.9-0.4
			c10.7,0.4,21.4,1.1,32.2,1.3c2.7,0.1,15.9-0.2,22.9-0.7c0,0.5-0.1,1.1-0.2,1.6c-0.3,3.4-0.9,6.8-1.4,10.3
			c5.3,2.8,9.9,0.3,14.5-0.3c1-0.1,2-3,2.5-4.8c0.7-2.6,0.9-5.2,1.2-7.5c5,0.4,9.3,1.6,13.3,0.9c5.7-0.9,11.2-0.8,16.9-1
			c19-0.5,38-1.9,57.1-2.9c4.2-0.2,8.3,0,13.3,0c-1.5,5.6-4.5,9.3-6.8,13.4c-6,10.7-12.2,21.3-17.7,32.2c-2.8,5.5-3.9,11.9-6.3,17.7
			c-3.3,8.1-7,16.1-10.6,24.1c-6.2,13.5-12.4,26.9-18.6,40.3c-4.5,9.8-9.2,19.4-13.7,29.2c-3.5,7.7-6.8,15.5-9.9,22.6
			c-7.9,0-14.6,0-21.3,0c-2,0-3.4-0.7-5-2.5c-4.5-4.9-8.3-4.7-13.5-0.4c-1.4,1.1-3.4,1.7-5.2,2c-2.2,0.3-4.5,0-6.7,0.2
			c-16.8,1.1-33.5,2.7-50.3,3.2c-14.8,0.4-29.6-0.6-44.4-0.9c-6.4-0.1-12.9,0-18.9,0c-4.3-6.5-8.2-12.5-12.2-18.6
			c6.8-10,6.8-10,4.4-15.5c-6.7,0-13.3,0-20.2,0C1098.2,231.8,1097,227,1101,223z M817.2,236.9c1-7.1,1.8-14.4,1.3-21.6
			c-1.1-17.9-0.9-35.6,2-53.3c1.8-10.9,3.5-21.8,5.1-32.7c0.5-3.5-0.5-7.8,1.3-10.3c2.1-3.1,0.4-5.3-0.2-7.8c3.2-1,5.9-1.8,8.7-2.7
			c0.2-3.7,0.3-6.9,0.4-9.5c16-4.5,31.9-4.5,47.9-4.9c11.7-0.2,23.3-1.1,35-1.5c3.1-0.1,6.3,0.2,10.4,0.3c0,5.6,0,10.3,0,15
			c0,2.4,1.8,4.6,3.6,3.3c4.9-3.4,9.6-1,15-0.5c3.2-5.4,0-12.9,4.9-18c2.7,0.5,5.1,1.2,7.6,1.3c15.5,0.5,31,0.7,46.5,1.2
			c2.6,0.1,5.2,0.8,8.4,1.3c0.6,11.9,1.1,23.1,1.7,34.2c0.6,11,1.3,21.9-0.2,33c-1.4,11.1-0.3,22.6-1.5,33.8
			c-1.2,11.2,1.7,22.6-1.1,33.6c-0.8,0.1-0.8,0.1-1.6,0.2c-3.2-6.5-6.3-12.9-9.5-19.4c-0.9,0.1-1,0.1-1.9,0.2
			c-2.5,8.5-5,17-7.6,25.9c-0.5,0-11.3-7.4-14.5-6.7c-3.2,0.7-3.9,3.3-3.4,6.5c0.3,1.9,0.1,3.9,0.1,5.4c-10.7,2.5-20.7,4.7-30.6,7.1
			c-3.6,0.9-7.5,1.8-9.1,5.9c-1.6,4.2-3.5,8.4-4.5,12.7c-1,4.3-5.2,7-4.5,12.2c0.5,3.6-2.3,6.1-6.5,5.8c-1.3-0.1-2.5-0.2-3.8-0.2
			c-12.1,0.2-24.3,0.4-36.4,0.5c-3.5,0.1-7.3,1-10.4-0.1c-4.8-1.7-9.1-0.9-13.9-0.9c-2.1,0-4.2-0.3-6.3-0.7c-0.1,0-0.1,0-0.2,0
			l1.5-10.8c0.3-1.8-2-3.1-3.7-2.1l-0.2,0.1c-0.3,0.2-7.1,4.2-13.8,9.1c-1.7,1.2-3,3.7-4.1,5.9c-0.9,1.7-3.7,1.6-4.4-0.2
			c-0.6-1.4-1.1-2.7-1.6-3.2c-4.9-5-10.1-9.4-10.3-9.6l-0.2-0.2c-0.1-0.1-0.2-0.2-0.4-0.3c-0.3-1.4-0.5-2.8-0.3-4.1
			C813.1,259.1,815.7,248,817.2,236.9z M355.8,107.4c3.3-0.5,6.3-1.2,9.4-1.3c3.4-0.1,4.5-1.8,4.4-4.8c-0.1-2.8-0.6-5.5-0.7-8.3
			c-0.1-3.9,0-7.7,0-11.8c1.9-0.3,2.8-0.5,3.8-0.5c11.5,0.2,23,0.4,34.5,0.6c9.4,0.1,35.4,1.3,35.6,2.5c0.5,2.6,5.1,8.2,2.6,17.8
			c-1,3.8-1.3,7.8-1.9,11.5c3.5,2.7,14.3,0.5,16.7,1.4c1.2,0.4,2.7-0.4,4.2-0.6c0.9-9.9-4.7-19.9,2.4-29.6c4.2,0.3,8.9,0.3,13.5,1.2
			c10.6,2,21,6,32.2,3.3c2.5-0.6,5.1-0.8,7.7-0.8c1.8,0,3.8-0.4,5.7-0.3c10.2,0.6,20.4,1.3,30.6,2c1.9,0.1,3.8,0.5,6.6,0.8
			c-1.8,7.7,0.9,13.7,4.8,19.5c0.8,1.2,0.6,3.4,0.5,5.1c-0.4,11.4-1.5,22.8-0.9,34.2c0.8,15.4,0.1,30.8-3.1,45.8
			c-3.3,15.2-2.6,30.6-3.7,45.9c-0.2,2.7-0.8,7.9-1.5,14.2l-1.7,1.1c-0.3,0.2-7.1,4.6-13.8,9.9c-3,2.3-4.6,8.7-6.5,10.5
			c-1.5-1.9-2.5-6.6-3.6-7.8c-4.9-5.5-10.1-10.3-10.3-10.5c0,0-2.9-4.5-4.2-4c-5.7,2.5-1.3,22.8-0.2,27.3c-11.1-3-36.3-4-41.3-3.5
			c-1-4.3-1.1-9.1-6-9.9c-5.8-0.9-11.7-1.1-18-1.7c-0.6,4.8-1.1,8.6-1.6,13.2c-30.1,1.4-59.7,4.1-89.3,3c-4.1-5.4,1.3-7.8,3-10.9
			c-1-3.6-1.9-6.8-2.9-10.5c-3.6,0.8-7.2,1.6-11.6,2.6C352.6,211.1,354.2,159.5,355.8,107.4z M62.6,223.1
			c-3.7-10.6-6.8-21.4-10.2-32.1c-0.7-2.1-1.2-4.4-2.2-6.3c-4.4-8.7-6.3-18-6.8-27.5c-0.7-12.6-3.6-24.7-7-36.8
			c-2.2-8-4.1-16.1-5.9-24.2c-0.6-2.9-0.5-6-0.3-9c0.5-5.6,3.6-7.9,9-7.7c4.2,0.1,8.3,0,13.5,0c0.8,4.6,1.8,10.1,2.8,16.1
			c2.1,0.5,4.4-1.1,7.1,0.1c2.5,1.1,5.9,0.6,9.3,0.8c2.7-5.2,3-10.2-1.1-15c-1-1.2-2.4-2.1-2.8-3.4c-0.8-2.1-1.1-4.9,1.6-5.8
			c3.2-1.1,6.7-2,10.1-2c7.6,0.1,15.2,1.2,22.8,1.2c15.9-0.2,31.8-2.1,47.8-0.1c7.5,0.9,15.2,0.9,22.8,1.5c2.7,0.2,5.3,1.2,9,2.1
			c0,3.9,0,7.9,0,11.8c-0.1,7.1,1.9,9.5,8.8,10.6c1.2,0.2,2.5,0.3,3.7,0.4c9.7,0.4,12.7-2.5,12.3-12.2c-0.2-3.7-0.4-7.5-0.7-11.5
			c4.4,0,8.5,0,12.7,0c9,0,18-0.3,27,0.1c8.9,0.4,17.8,1.8,26.7,2.4c9.7,0.6,19.4,0.8,29.1,1c8.2,0.2,16.4,0.3,24.3,3.2
			c4.4,1.6,9.2,1.9,14.5,2.9c-1.8,62.3-3,124.1-5.6,186.2c-6.7-2.7-11.6-8.8-15.4-18.7c-6.5,2.6-5.8,11.9-13.4,13.7
			c-1.9-6.1,2.3-13.3-3-19.4c-12.2-0.6-24.9-1.4-37.7-1.8c-13.5-0.4-27.1-0.5-40.6-0.4c-16.3,0.1-32.5,0.4-48.8,0.6
			c-3,0-6-0.2-9,0.1c-7.3,1-10.8,5.9-8.2,12.7c2,5,1.8,9.7,1.5,14.7c-0.4,6.5-0.1,13-0.1,20.6c-25,0.9-48.7,1.9-72.4,2.8
			c-4.1-4.6,2.4-13.1-6.6-15.9c-0.8,3-1.7,6-2.5,8.9c-0.3,0-0.7,0.1-1,0.1c-1-5.6-2.2-11.1-2.8-16.7C72.9,254.5,68,238.7,62.6,223.1
			z M209.3,329.4c-3,0-6.1,0-9.7,0c2.5-8.8,0.4-17.2,4.4-25.1c5.4,1.8,4,5.6,3.7,8.8C207.5,315.6,207.3,324.3,209.3,329.4z
			 M233.5,270.2c0.3,2.5,1.3,4.6,0.7,5.9c-1.4,3.2-1.9,6.3,0.9,10.5c-5.1-0.7-8.9-0.7-12.2-1.9c-3-1.1-7.2,3.2-8.7-1.3
			c-0.9-2.8,0-6.4,0.8-9.5c1.1-4.5,2.7-8.9,4.1-13.4c6.4,0,11.9,0,18.8,0c-5.2,9-16.1,10.7-19.4,20.4
			C224.3,279.1,227.8,274.1,233.5,270.2z M218.4,305.1c0.7,8.2-0.5,16-2.3,24.3c-1.7,0-3.4,0-5.1,0c0.1-5.3-0.6-14.4-0.3-17.2
			C211.1,308,212.6,305,218.4,305.1z M210.8,332c5-0.2,6,0.8,5.6,6.8c-9.3,0.9-18.3-1.3-27.5-2.7c-4.5-0.7-9-1.2-13.5-1.5
			c0,0,0,0,0,0c0,0,0,0,0,0c-8.2-0.5-16.4-0.2-24.6,1.4c-4.5,0.9-9.4-0.2-14.1-0.7c-1.2-0.1-3.4-1.8-3.3-2.4c0-0.1,0-0.2,0-0.3
			c10.4,0,23-0.1,33,0c9.7-0.3,27.4-0.2,31.7-0.5C202.2,332.1,206.5,332.2,210.8,332z M215.9,343.4c-2.4,7.8-4.5,14.6-6.6,21.5
			c-1.1,3.6-3.4,5.3-7.7,4.9c-1.8-9.4,2.7-18,2.7-27.5C208.2,342.6,211.3,342.9,215.9,343.4z M176.9,338.9c3.7-0.1,7.5-0.1,10.2,5.6
			c-0.4,2.6-1,7-1.7,11.4c-0.7,4.4-1.6,8.8-2.5,14.2c-1.6,0.2-3.8,0.5-6.2,0.9C174.9,362.9,179,349.1,176.9,338.9z M192.1,340.6
			c2.3,0.4,4.7,0.7,7.5,1.1c0,3.4,0.4,6.6-0.1,9.7c-0.6,4-1.7,7.8-2.7,11.7c-1.6,6.2-3.7,7.3-10.9,6.2
			C188.1,359.5,190,350.3,192.1,340.6z M174.4,339c-0.6,3.7-1.2,8-1.3,8.9c-0.7,5.7-1.1,11.5-2,17.2c-0.7,4.7-2,6.8-5.6,7.6
			c0.9-5.9,0.7-13.3,0.9-15.7c0.4-4.5,0.7-9,0.9-13.5c0.2-3.5,1.7-5.2,5.2-4.5C173.1,338.9,173.8,339,174.4,339z M158.1,350.3
			c1.2-3.6-0.6-5.9,0.9-9.3c0.5-1.2,2.3-1.9,4.8-3.7c0.6,8.9-0.1,24.6-0.7,35.8c-0.3,0-0.6,0.1-1,0.1c-2.3,0.1-4.6,0.2-6.9,0.3
			C156.3,366,157.1,353.2,158.1,350.3z M151.7,373.5c-3,0.1-5.9,0.2-8.9,0.3c0.3-8.7,0-24,0.4-26.8c1.1-6.8,1.2-6.9,8-6.9
			c1.2,0,2.4,0,4.8,0C153.7,347.1,153.2,363.2,151.7,373.5z M139.4,373.9c-0.7,0-1.4,0-2.1,0.1c-2,0-4,0.1-6.1,0.1
			c2.2-9.8,3.9-26.3,4.6-33.9c1.5-0.4,3.1-0.8,5.2-1.3C142.4,345.6,139.3,362.9,139.4,373.9z M78.8,339c-1.6-9.9,0.3-19.5,2-29.1
			c0.4-2.6,1.8-4,4.5-4c7.3,0,14.5-0.2,21.8-0.3c2.8,0,5.5,0,8.3,0c4.6-0.1,9.2-0.2,14.2-0.3c0,3.6,0.2,6,0,8.4
			c-0.3,4.2-4.4,8.3,0.1,12.5c0.5,0.5-0.5,2.8-1,4.2c-0.8,2.3-1.7,4.6-3.1,8.2c3.4-0.3,5.3-0.5,7.5-0.7c0.3,1.1,1,2.1,0.8,2.9
			c-1.6,5.8-3.3,11.5-5,17.3c-0.3,1-0.3,9.4-0.4,15.8c-14.3-0.1-28.6-0.8-42.8,1.2c-2.3,0.3-4.8-0.3-7.8-0.4
			c0.5-8.4,1.1-16.1,1.4-23.7C79.5,347,79.5,342.9,78.8,339z M132.3,321c0.5-5.6,2.4-11.2,3.6-16.3c2.4,0,4.6,0,6.9,0
			c-0.8,5.5-1.3,18.9-2.1,25.3c-3.2,0-5.7,0-7.3,0C133.2,326.9,132.1,323.9,132.3,321z M144.7,308.6c0-1.3-0.1-2.6-0.2-3.9
			c3.6,0,7.2,0,11,0c-0.6,4.2-0.3,19.4-0.6,25.3c-4,0-7.8,0-11.1,0c0.5-3.4,0.4-13.1,0.7-14.7C144.8,313.2,144.7,310.9,144.7,308.6z
			 M194.9,305c0.6-1.5,3.5,0.9,4.9,0c-1.5,8.4-3,16.7-4.4,25.1c-1.1,0-2.6,0-4.4,0C195.5,324.1,192.4,311.1,194.9,305z M189.6,330
			c-2.7,0-6,0-9.6,0c2-3.3,2.2-10.3,2.4-12.7c0.4-4.2,1.2-8.3,1.9-13c3,0.2,5.1,0.4,7.6,0.6C191.2,311.4,190.5,322.3,189.6,330z
			 M198.1,288.1c-1.1,2.3-2.7,3.4-5.3,3.4c-5.7-0.1-11.4,0-18.3,0c0-13.1,0-25.3,0-38.3c3,0,5.4,0,7.8,0c4.7,0,9.4,0.3,14.1,0.1
			c3.1-0.2,5,0.9,5.2,3.9C202.3,267.7,202.7,278.2,198.1,288.1z M180.4,305.6c-0.7,5.5-1.4,17.6-2.2,24.5c-3.4,0-7,0-10.7,0
			c1-1.5,0.9-4.2,1.1-5.8c0.6-5,1.1-10,2.2-14.9C172,303.4,173.1,303.1,180.4,305.6z M165,330c-2.9,0-5.7,0-8.5,0
			c1.4-6.5,2.3-21.8,3.9-25.9c2.5,0.2,4.7,0.4,7.9,0.7C166.9,312.5,166.3,322.4,165,330z M57.1,624c1.3-10.7,3-21.4,4.2-32.1
			c2.1-18.9,3.9-37.9,5.9-56.8c0.4-3.5,1.8-6.9,1.7-10.3c-0.2-8.6,2-7.5,8.1-8.9c3.9-0.9,7.9-1.2,11.8-1.9c3.1-0.6,4.2-2.6,3.5-5.5
			c-0.4-1.7-1.1-3.3-1.8-5.3c-5.9-1.4-11.7-2.8-18-4.2c0.5-8.2,3.1-78.9,2.3-110.6c2.2-1.4,5-1.3,7.8-1.3
			c7.5-0.1,139.6-5.2,157.2-6.4c0.4,3.8,1.3,7.5,1.2,11.2c-0.3,11.7-0.8,23.5-1.6,35.2c-0.9,14.2-2,28.5-3,42.7
			c-0.2,3.2-0.3,6.6,0.3,9.8c0.7,4.2,0.2,7.9-2.2,11.5c-4.8,0.3-9.5,0.6-13.8,0.9c-1.9,4.6-4.4,8.5,0.2,12.1
			c14.1-0.1,16.6,2.7,10.9,12.9c-7.8,0.8-15.6,1.6-23.5,2.5c0.4,2.5,0.3,4.8,1.1,6.8c1.8,4.6,17.6,18.1,24,24.6c0,0-0.1,0-0.1,0
			c-1,5.5-1.1,5.6-5.6,8.2c-3.9,2.3-18.9,11.4-17.8,14.5c-0.1,0-0.2,0-0.3,0.1c2.6,3.2,9.5,1.3,11.5,1c3.2-0.5,6.4-1.5,9.6-1.6
			c6.9-0.2,7.3,0.5,7,7.2c-0.5,10-0.8,20.1-1.7,30c-0.6,6.6-2,13.1-2.8,18.8c-7.8,0.8-14.4,1.5-21.1,2.2c-9.7,1-19.4,2.1-29.3,1
			c-9.9-1.2-20-1.7-30-1.7c-14,0-28.1,0.6-42.1,1.1c-7.2,0.3-14.7,0.4-21.7,2c-10.7,2.5-20.8-1.4-32-0.6
			C57.1,629.3,56.8,626.6,57.1,624z M78.5,741.4c-6.3,0-13.1,0-20.9,0c-3.2-30.3,0.4-60.5,0.7-90.5c4.2-0.9,7.8-2.1,11.4-2.3
			c22.5-1.2,45-2.5,67.5-3.1c13.7-0.4,27.5,1.5,41.3,0.1c1.9-0.2,4,0.5,5.9,0.6c4.3,0.1,8.5,0.5,12.8,0.1c6-0.6,11.8-2,17.8-2.7
			c3.1-0.4,6.3-0.1,9.7-0.1c-1.7,29.8-3.2,58.5-0.2,87.1c-7,1.4-10.1,4-9.9,7.9c0.2,5.6,3.5,9,10.8,10.6c-0.5,4.3-0.8,8.7-1.6,13
			c-0.6,3.3-1.4,6.6-2.3,10.1c-3.3,0-13.4,0-18.4,0c0.2-0.1,0.4-0.2,0.6-0.4c-1,0-1.9,0.2-2.7,0.4c-0.4,0-0.7,0-0.8,0
			c0,0.1-0.1,0.2-0.1,0.2c-3.3,1.1-5.3,3.5-7.1,6.5c0.8,0.9,1.7,1.5,2.1,2.3c2.9,5.9,6.3,11,13,13.7c3.8,1.6,3.2,5.7-0.9,8
			c-6.9,4-11.7,9.7-16.1,17.5c5.6-0.6,10.4-0.4,14.6-1.9c5.8-2,11.3-3.6,17.2-1.1c1.1,4.7,0.9,4.7-0.4,9.4c-1.5,5.8-3,11.7-3.9,17.6
			c-0.9,6.5-1.1,13.1-1.6,20.2c-8.6-0.8-16.8-1.9-19.2,8.7c-42.3-0.7-84.1-1.3-126.6-2c1-3.5,1.6-5.8,2.3-8.2
			c-4.4-4-10.4-0.8-15.4-3.5c-0.1-2.1-0.3-4.3-0.4-6.5c-0.5-11.4-0.8-22.9-1.7-34.3c-1.7-21.1-0.4-42.1,1.1-62.6
			c4.3-1.2,8-2.6,11.9-3.1c3.7-0.5,7.5-0.1,11.1-0.1C79.6,748.8,79.1,745.5,78.5,741.4z M158.4,946.2c-0.3-4.6,0.6-15.6-1.7-21.7
			c2.4,0,4.9,0,7.3,0.1c0.8,0,1.5,0,2.2-0.1c-1.8,9.5-1.9,25.9-3.6,34.8c-0.7,3.4-1.7,5.1-5.8,3.2
			C157.4,957,158.7,951.5,158.4,946.2z M161.3,922.3c-1.9,0.1-3.7,0.2-5.6,0.3c0-0.1-0.1-0.1-0.1-0.2c0,0.1,0,0.1-0.1,0.2
			c-11,0.5-22.1,1.2-33.1,1.5c-5.1,0.1-10.3-1-15.4-1.5c0.6-8.7,1.3-9.3,9-10c5.7-0.5,11.5-0.7,16.9-2.3c9.4-2.7,18.3,0.2,27.3,1.4
			c2.7,0.4,5.3,1.2,7.8,1.8C169.1,921.5,168.6,922,161.3,922.3z M146.9,947.7c0.8-4.8-0.3-17.2,0.5-23.1c2.6-0.1,5.2-0.1,7.7-0.1
			c-0.5,4.4,0.4,12.6,0.1,15.1c-0.7,6-0.9,12-2,17.9c-0.9,4.8-2.4,5.4-8.9,4.8C145.1,957.4,146.1,952.6,146.9,947.7z M142.3,963.1
			c-4.5,0.5,0,0-4.5,0.5c0-7.4,0.2-30.3,0.2-38.7c0.5,0,1,0,1.5,0c2.4-0.1,4.7-0.1,7.1-0.2C143,930,144.8,962.8,142.3,963.1z
			 M58.6,915.9c-0.2-4.8-0.2-9.5-0.4-14.3c-0.2-4.4,2.3-6.3,6.1-7.3c8.4-2.1,9.1-3.8,4.7-11.9c8.7-2.8,17.4-2.8,33.6,0.1
			c1,14.2,2.5,28.4-1.9,43.1c-1.9,3.4-2.9,9-3,11.2c-0.3,8-0.8,16-1.2,24c-0.1,1.5-0.3,2.9-0.5,5.2c-4.5,0.4-8.8,1.1-13.2,1.2
			c-6.3,0.2-12.6,0.3-18.8-0.3c-5-0.5-6.1-2-5.9-7c0.3-10.3,1-20.5,1.2-30.8C59.4,924.9,58.8,920.4,58.6,915.9z M103.9,926.9
			c2.7,0,5.2,0,7.8,0c-5.7,10.3-3.3,28.2-7.5,37.9c-0.6,0-1.1-0.1-1.7-0.1c-0.2-5.7-0.3-11.5-0.8-17.2
			C101.2,943,103.9,933.6,103.9,926.9z M112.9,926.9c1.7,0,3.4,0,5,0c-2.2,3.6-2.3,11.5-2.3,13.9c-0.1,7.8-1,15.5-4,22.8
			c-0.3,0.8-0.8,1.5-1.3,2.2c-0.5-0.1-1-0.3-1.5-0.4C109.9,955.1,111.8,938.2,112.9,926.9z M118.5,948.8c0.3-4.8,0.9-15.8,1-21.8
			c2.2,0,4.5,0,6.7,0c-1.2,13-3,25.6-8.1,37.5c-0.6-0.1-1.1-0.2-1.7-0.2C117.1,959.1,118.1,953.9,118.5,948.8z M124.2,961.3
			c1.3-9.4,2.1-19,4.2-28.2c1.8-8.4,1.2-8,9.3-8.2c-4.4,10,0.1,28.8-4.7,38.8c-2.5,0.3-5.1,0.7-7.9,1.1
			C124.6,963.2,124.1,962.2,124.2,961.3z M107.6,882.8c6.3-1.3,9,1.3,9.2,5.4c0.3,6.4-0.3,12.9-0.9,19.2c-0.1,0.9-2,2.4-3.1,2.4
			c-1,0-2.8-1.5-2.9-2.5C109,899.3,108.4,891.2,107.6,882.8z M126.4,884c-1.1,7.6-0.8,15.4-4.4,22.7c-0.5-6.2-1.1-12.4-1.4-18.6
			C120.4,885.1,121.5,882.7,126.4,884z M133.5,900.5c0.5,2.5-1.3,4.1-4.8,6.4c-1.6-8.3-0.7-20.1,2.3-24.8
			C136.2,887.9,132.4,894.6,133.5,900.5z M137.2,888.3c0.3-4.8,2-5.4,8.2-4.1c0.3,11.5-2.3,18.8-8.3,21.3
			C137.1,899.5,136.8,893.9,137.2,888.3z M147.4,901.9c0.6-5,1.3-9.9,2.2-14.8c0.5-2.7,0.8-2.7,5.7-3.6c-1.1,6.7-2,12.9-3.3,19
			c-0.3,1.4-1.7,2.5-3.5,4.9C147.9,904.5,147.3,903.1,147.4,901.9z M160.1,907.5c-0.2-0.1-0.4-0.1-0.7-0.2c-1.2-0.4-2.8-2.4-2.8-3.7
			c0-6.7,0.4-13.3,3.4-19.7C164.7,889.2,159.6,900.6,160.1,907.5z M164.6,908.4c0.4-5,1.2-18.1,1.6-21c0.3-2.4,1.2-4.4,5.4-3.5
			c-1.5,8.5,2.7,16.7-2.3,25.1C167.8,908.8,166.2,908.6,164.6,908.4z M713.2,1021.4c2.7,11.5-0.9,22.7-0.9,34.8
			c-4-0.5-7.2-0.9-10.3-1.3c-3.5-0.5-6.9-1.2-10.4-1.3c-4.4-0.2-4.7,0.5-4.1,6.1c8.7-1.9,17.1-1.8,25.4,3.4
			c-0.9,7.3-1.7,14.4-2.6,21.8c-1.9,0-3.3,0.1-4.8,0c-5.5-0.3-11-0.8-16.5-0.7c-3.6,0-4.9,2-3.1,5c8.1,1.1,16.2-1,24.1,2.9
			c-1.1,6.7-2.2,13.1-3.2,19.5c-1.2,7-2.5,7.9-9.4,7.1c-4.5-0.5-9-0.8-13.5-1.2c-2.8-0.3-5,0.4-5.6,4c3.9,3.5,8.6,3.2,13.3,2.7
			c4.5-0.5,8.9-0.7,13.9,2c-0.6,9-2.1,20.8-2.9,30.3c-9.2,0.5-18.3,1.7-27.5,2c-5.7,0.2-11.4,1.3-16.3-1.1c0-4.3-0.2-8.1,0-11.8
			c0.7-9,1.4-17.9,2.5-26.8c0.8-6.7,2.4-13.3,3.4-19.9c1.3-8.4,1.2-17.2,3.7-25.1c4.6-14.7,4.6-29.7,4.7-44.7
			c0-11.3-0.8-22.6-0.2-33.9c0.3-7.3,0.9-14.5-0.4-21.7c-0.1-0.7,0.4-1.4,0.8-2.9c6.6-0.9,13.5-2.5,20.4-2.4c3,0.1,8.1,1,8.6,6.3
			c-8.2,0.6-11.3,2.7-11.7,7.7c-0.6,6.7,14.8,26.5,24.1,34.3C713.1,1017.6,712.7,1019.2,713.2,1021.4z M753,1159.1
			c-3,0-5.2,0.1-7.4,0c-8.7-0.7-17.5-1.5-26.2-2.2c-1.6-0.1-3.2-0.2-4.8-0.3c5.9-8.3,4.8-19.2,9.6-28.6c4.3,0.5,8.8,1.1,13.7,1.7
			c0.1-4.1-2.5-4.5-4.8-5.2c-3.1-0.8-7.3-0.6-8.9-2.6c-1.7-2-0.8-6.2-1-9.4c-0.1-2-0.3-4-0.2-6c0.3-4.9,0.7-9.9,1.1-15
			c11.4,2.7,12,2.6,14.2-2.3c-4.6-1-9.1-1.9-14-2.9c0.9-8.3-0.3-16.3,1.8-23.8c9.3-1.7,18.2,4.6,27.8-1.4c-10-1.2-18.8-2.3-27.5-3.4
			c-3.1-11.2-1.6-21.5-1.5-31.7c0-3.8,3.3-3.5,6.3-3.3c4.9,0.4,6.2-0.2,9.4-0.3c-0.2,2.9-0.3,5.8-0.2,8.7
			c0.3,5.3,15.2,12.1,22.8,13.7c0.7,0.2,1.4,0.4,2.2,0.3C763.3,1083.6,758.7,1121.3,753,1159.1z M789.8,1063.3
			c6.2-0.4,12.4-0.7,18.5-1.1c5.3-0.4,6.8,1.1,6.1,6.3c-0.6,3.9-1.3,7.9-1.9,11.8c-0.4,3-2,4.4-5.1,4.1c-5.5-0.4-11-0.4-16.4-1.1
			c-4.1-0.6-5.2,1.5-6.5,5.4c5.3,0.4,10.1,0.8,15,1.1c1.5,0.1,3,0.1,4.5,0.4c6.7,1.2,7.4,2.2,6.6,9c-0.6,5.9-1.3,11.8-1.9,18.2
			c-4.8,0-8.8,0-12.7,0c-1.8,0-3.6-0.3-5.2,0.2c-1.1,0.3-1.9,1.8-2.8,2.8c0.8,0.8,1.6,2.1,2.6,2.2c4.4,0.9,8.8,1.4,13.3,2.1
			c1.2,0.2,2.4,0.4,3.8,0.6c2.7,10.6-4.4,21.5,1.6,31.9c-1.5,2.4-2.8,4.6-4.5,7.4c-5.4-5.5-0.9-12.2-2.6-17.8c-3-1.9-5.9-4-9-5.4
			c-1.3-0.6-3.7-0.6-4.8,0.2c-1,0.7-1.2,3-1.1,4.5c0.1,2,0.5,4.2,1.6,5.7c2.5,3.4,1.4,6.6,0.1,10.8c-6.4-0.7-12.9-1.1-19.2-2.4
			c-4.2-0.9-5.9-5-5.7-8.8c0.6-11.2,1.7-22.4,2.7-33.7c0.9-10.7,1.8-21.5,2.8-32.2c1-11.2,2.2-22.4,3.3-33.9
			c15.9-2.5,16.5-15.5,19.4-27.8c8.5-2.5,17.2,0.3,26.6,0c-1.2,11-2.4,21-3.5,31.4c-3.6,0-6.8,0-10,0c-3.7,0.1-7.6-0.2-11.2,0.4
			C790.5,1056.5,788.1,1058.6,789.8,1063.3z M861.7,1111.4c-0.7,4.7-1.9,9.3-2.2,14c-0.4,6.2,0,12.5-0.4,18.7
			c-0.4,7.6-3.4,15.1-1.6,22.9c0.2,0.8-0.7,1.8-1.5,3.6c-9.9-3-20.5-0.6-30.4-4c1.2-5.1,2.1-9.5,3.2-13.8c1.4-5.9,2.4-8.5-6.1-10.9
			c-1.9-0.5-4.3-2.3-4.8-4c-2.7-9.2,2.2-14.8,11.8-13.8c2.3,0.2,4.5,0.8,6.7,0.6c2-0.1,3.9-0.9,5.8-1.5c-6.8-4.8-15.2-2.1-21.7-6.7
			c-0.5-7.5,0.6-14.5,2-21.5c7.1-1.3,13.3,3.9,20.8-0.2c-1.5-1.3-2.3-2.7-3.6-3.1c-3.8-1.2-7.7-2.1-11.6-3.1
			c-2.7-0.7-4.4-2.1-3.9-5.4c0.9-5.9,1.6-11.8,2.6-18.5c3.3,0,6.2-0.1,9.1,0c2.6,0.1,5.1,0.2,5.4-3.9c-5-1.1-9.9-2.1-14.9-3.2
			c0.4-5.4,1-9.9,0.9-14.4c-0.2-7-0.8-14-1.6-21c-0.3-2.9-1.7-5.6-2.8-8.3c-0.2-0.4-1.3-0.4-2.3-0.7c-1.1,1.9-2.2,3.7-2.9,4.8
			c-1.9,0-3.8,0-5.7,0c7.2-4.8,17.9-14.5,23-20.8c3.1-3.8-0.1-7.6,1.5-11.2c-3-0.3-5.5-0.5-8-0.8c0.8-6.1,5.8-3.6,8.2-5.3
			c0.4-1,0.7-1.7,0.9-2.4c2.3-6.8,2.5-6.9,9.6-6.7c4,0.1,7.9-0.1,11.9,0.1c6.4,0.2,12.8,0.6,19.8,0.9c-0.2,3.5-0.2,6.2-0.6,8.9
			c-1.8,14.9-4.8,29.7-5.3,44.7c-0.8,22.8-5,45.1-8.7,67.5C863.4,1099,862.7,1105.2,861.7,1111.4z M1453.7,1191.8
			c-0.2,3.5-2.6,6.8-3.9,10.1c-20.3,0-39.9,0-58.9,0c-1.9-2.3-3.6-4.1-4.8-6.1c-1.1-1.9-2.4-4-2.5-6.1c-0.4-9.7-1.9-19.3,1.3-29.1
			c0.4-1.2,0.7-2.5,1-3.8c3.9,0.9,8.9,1.1,11.3,1.1c18.7,0.2,37.4,0.7,56.6,1.1c0.1,2.9,0.3,4.8,0.3,6.7c0,1.5-0.8,3.2-0.3,4.4
			C1456.6,1177.4,1454.2,1184.7,1453.7,1191.8z M1411.5,1071c-6.2,0.6-12.4,0.7-19.8,1.1c-0.3-4.6-0.6-8.8-0.9-13.4
			c1.8,0,21.1,4.2,21.9,5c1.1,1.1,2.3,2.9,2.1,4.2C1414.6,1069.1,1412.7,1070.9,1411.5,1071z M1414,1082.6c-0.3,1.2-0.7,2.3-1.3,3.9
			c-6.9-0.9-13.5-1.7-20.6-2.7c0-2.9,0-5.5,0-8.5c5.2-0.6,10.3-1.5,15.5-1.5C1414.6,1073.8,1415.8,1075.8,1414,1082.6z
			 M1412.7,1055.6c-3.8,2.8-7.6,2.9-11.8,1.3c-2.3-0.9-4.8-1.1-7.2-1.5c-2.5-0.4-3.5-2.2-3-4.3c0.3-1.4,1.7-2.7,2.9-3.6
			c0.9-0.6,2.4-0.4,3.7-0.5c5.6-0.5,11.3-1,17.4-1.6C1414.9,1049.1,1416.7,1052.7,1412.7,1055.6z M1391.4,1087.3
			c5.4,0.6,10.1,0.9,14.8,1.5c7.2,0.9,7.2,1,5.2,9.1c-3.2,0-6.7,0.3-10.1-0.1c-3.4-0.3-6.8-1.3-11.2-2.2
			C1390.4,1093.1,1390.9,1090.4,1391.4,1087.3z M1397.1,1099.7c2.4,0.5,4.9,0.6,7.4,0.8c1.5,0.1,3,0.1,4.5,0.3
			c1,0.2,1.8,0.6,3.4,1.2c0,3.2,0,6.4,0,9.6c-4-1.4-9.8-1.4-11.9-1.6c-3.2-0.3-6.4-0.5-10-0.8c-0.3-1.3-0.8-2.5-0.8-3.6
			C1389.5,1099,1390.5,1098.3,1397.1,1099.7z M1390.4,1112.6c5.3,0.2,15,1,22,1.4c0,4.4,0,8.8,0,13.3c-7.1-0.4-14.5-0.9-22.9-1.4
			C1389.8,1121.3,1390,1117.4,1390.4,1112.6z M1408.2,1129.4c3.7,0,5.7,1.7,5.4,5.5c-0.1,2.1-0.3,4.2-0.5,6.3
			c-6.4,0.1-18.3-0.2-25.6-0.1c0-0.1,0-0.2,0-0.3c0.5-3.7,1.1-7.4,1.6-11.4C1395.9,1129.4,1402.1,1129.4,1408.2,1129.4z
			 M1413.1,1142.9c-0.3,3.1-0.5,6.3-0.8,9.7c-6,0-17.7,0.4-25.8,0.6c0.4-3.3,0.6-6.7,0.9-10.1
			C1394.5,1145.3,1406.9,1145.4,1413.1,1142.9z M1425.5,1047.9c-0.1,2.5-0.8,4.9-1.4,7.3c-1.5,5.8-2.5,11.1-0.8,17.5
			c1.7,6.5-2.1,71.9-2.4,78.9c0,0.9-3.4,0.6-4.5,1.7c-1.7-5.4,3.4-100,5.2-109.2C1424.6,1043.5,1425.6,1045.4,1425.5,1047.9z
			 M1426.8,1141.2c5.3,2.1,20.3,2.2,27.6,2c-0.3,3.5-0.7,7.1-1,10.7c-9.4,1.5-18.9-1.8-28.7-1.6
			C1425.3,1148.6,1426,1144.9,1426.8,1141.2z M1454.8,1138.8c-9.6-0.7-17.9,1.3-27.6,0.3c0.7-3.7,1.5-7.5,2.2-11.6
			c3.4,0.2,19.9,0.8,26.4,1.1C1455.5,1131.9,1455.1,1135.3,1454.8,1138.8z M1456.1,1125c-8.2-0.7-21-0.7-27.7-1.7
			c0.2-3.4,0.3-6.4,0.5-9.3c10-3.6,18.3,2.4,28,2.9C1456.7,1119.7,1456.4,1122.4,1456.1,1125z M1435.7,1101.1
			c7.1-0.4,14.3-0.8,21.1,2.5c0,3.2,0,6.3,0,10.4c-3.1-0.2-6,0-8.8-0.6c-5.7-1.3-11.4-2.9-17.6-4.6
			C1428.4,1103.5,1429.4,1101.4,1435.7,1101.1z M1430.3,1097.1c-0.2-2.8-0.3-5.4-0.5-8.4c6.8,0,13.1-0.2,19.4,0
			c7,0.2,7.8,1.2,8,10.5C1448,1098.5,1439.4,1097.8,1430.3,1097.1z M1455.4,1087c-8.8-0.8-17.3-1.6-26.2-2.4c0.5-2.9,0.8-5,1.2-7.4
			c9.2,0.5,18,0.9,27.6,1.4C1457,1081.8,1456.3,1084.3,1455.4,1087z M1457.1,1074.5c-9.8,0-18.9,0-28.2,0c-0.4-3.5-0.6-6.8-0.6-10
			c8,0,22.8-0.3,30.3-0.3C1458,1068.2,1457.6,1071.3,1457.1,1074.5z M1428.4,1061.6c0.1-3,0.5-6,1.2-8.9c7.8,0.7,22.8,0.9,28.9,1.7
			c0.2,2.2,0.3,4.3,0.5,7.3C1451.6,1061.7,1436.7,1061.6,1428.4,1061.6z M1430.6,1049c1.6-4.8,2.7-5.5,7.7-4.4
			c1.8,0.4,3.5,1.1,5.5,2c7-0.1,14.4,0.4,16.2,0.7C1459,1050.6,1439,1049.7,1430.6,1049z M1587,962c-3,4.9-5.4,10.1-8,15.2
			c-1.4,2.7-2.4,5.5-3.9,8.1c-7,12.1-13.8,24.4-21.2,36.3c-8.8,14.2-14.4,29.6-19.2,45.5c-1,3.2-2.2,6.4-3.6,9.5
			c-5.5,11.7-11.3,23.2-16.6,34.9c-4.3,9.3-8.2,18.9-12.1,28.4c-4.8,11.6-9.3,23.2-14.1,34.7c-3.1,7.4-6.6,14.6-9.8,21.9
			c-1.3,3.1-3.7,4.2-6.6,3.5c-3.1-0.7-5.6-2.4-5.6-6.1c0-5-0.1-9.9,0-14.9c0.3-8.5,0.7-17,1.2-25.4c0.5-7.2,1.6-14.3,1.8-21.5
			c0.6-17,0.6-34.1,1.4-51.1c0.9-17.7,1.7-35.5,4.3-53.1c1.3-9.1,2-17.8,0.4-26.8c-0.4-1.9-0.1-4-0.1-6c0.1-8.2-2.1-11.4-9.8-13.4
			c-2.9-0.8-6-1-9-1c-4.5,0-5.8,1.6-5.3,6.2c0.6,5.4,1.4,10.8,2.2,16.2c8.3,2.8,8.2,2.9,7.4,11.8c-0.3,3.7,0.4,7.5,0.4,11.2
			c0,5.3-0.3,10.6-0.5,16.1c-12.5-0.7-24-1.9-35.5-2c-11.4,0-22.9,1.2-35.5,1.9c0.6-7.8,0.9-15,1.7-22.1c0.1-1.3,2.1-2.4,3.3-3.4
			c1.1-0.9,2.3-1.5,4.1-2.5c-2.4-1.9-4.3-3.4-6.4-5.1c2-5.2,2.3-15.6,4.4-21c-1.3-2.4-16.6-3.5-17.8-0.2c-0.5,1.4-0.9,2.9-0.9,4.4
			c0.1,13.6,0.2,27.1,0.4,40.7c0.2,11,1.4,22.2,0.5,33.1c-0.8,9.2-2.1,18.3-1.7,27.6c0.3,6.8-0.1,13.6,0.8,20.3
			c0.5,3.5,0.7,6.7,0,10.3c-1.6,7.8-2.5,15.8-3.8,23.7c-0.8,4.9-1.9,9.8-2.4,14.8c-0.7,7.1-2.3,14.3,0.3,21.4c0.8,2.2,0.8,5,0.3,7.4
			c-0.2,1.3-2.1,2.2-4.1,4.1c0.8,5.9,3.9,12.9,1.5,19.5c-43.8-11.3-88.3-17.8-133-23.2c-3.2-4.7-2.3-12.8-10.7-13.4
			c0-5.1-0.1-10.1,0-15.2c0-1.7-0.2-4,0.8-5.1c3.6-3.9,3.7-8.5,4.4-13.2c2.9-19.8,6.5-39.5,9.1-59.3c1-7.3,0.2-14.9,2.9-22
			c0.1-0.2,0-0.5,0-0.8c0.6-11,0.9-22.1,1.7-33.1c0.6-7.7,0.9-15.5,6.3-22.2c6.2,0.5,12.5,0.9,18.7,1.6c15.2,1.6,30.4,3.8,45.6,5
			c6,0.5,12.5,0.4,17.6-4.7c1.8-1.8,4.3-3.1,3.4-6c-1-3.1-3.7-3.6-6.7-3.7c-15.1-0.2-30.1-0.4-45.2-0.9c-8.7-0.3-17.4-1.3-26.1-2
			c0.3-0.5,0.5-0.9,0.8-1.4c-1.4-1.7-2.5-4.6-4.1-4.9c-4.1-0.8-2.3,4.1-4.8,6.4c-11.2-1.2-23-1.9-34.6-3.7c-19.6-3-39.4-4-59.2-4.4
			c-3.3-0.1-6.6,1-10.1-0.8c-2.7-1.4-6.4-1.4-9.6-1.2c-1.9,0.2-4.4,1.6-5.3,3.2c-1.2,2.2-0.6,4.8,2.4,6.1c1.5,0.7,2.7,2.1,3.5,2.7
			c32.6,0.4,64.4,3.1,96.3,8c0,8.8,0.4,17-0.1,25.2c-0.3,6-2,11.9-2.7,17.8c-2.2,17.7-4.2,35.3-6.3,53c-0.5,4-0.5,8.2-1.8,11.9
			c-3.5,9.6-4.4,19.5-5.4,29.4c-0.4,4.1-0.2,8.4-1.3,12.4c-2.1,7.5-5.1,14.8-7.7,22.3c3,3.8,3,3.8,1.9,10.6
			c-6.5,2.5-12.9,0.5-19.4,0.1c-14.3-0.9-28.6-3-42.7-2.2c-16.6,0.9-33.1,1.4-49.7,1c-2.5-0.1-5.1-0.8-7.7-1.2
			c2-7.8,5.3-14.4,1.6-21.7c-0.8-1.6-0.2-4-0.1-6c0.2-5.5,0.5-11,0.8-16.5c0.3-5.3,0.6-10.5,1.1-15.8c1.1-12,2.4-24,3.5-35.9
			c0.6-6.2,1.3-12.5,1.5-18.7c0.7-16.3,1.2-32.6,2-48.9c0.4-8.5,1.9-17,2-25.5c0.1-8.2-0.1-16.6-2-24.5c-2.7-11.4-5.8-11.8-14.4-3
			c0.5,2.1,1.7,4.2,1.5,6.2c-0.4,4.2-1.7,8.3-2.4,12.5c-1.4,8.4-3.2,16.8-3.9,25.3c-1.2,13.2-1.1,26.6-2.6,39.7
			c-2.5,22-2.6,44-1.6,66.1c0.6,13,1.1,26.1,1.9,39.1c0.3,4.3,0,7.8-4.2,9.4c0.6,5.2,1.2,9.9,1.9,15.2c-4,1.1-7.3,2.8-10.6,2.9
			c-6.7,0.2-13.5-0.4-20.3-0.8c-13.5-0.8-27.1-1.6-40.6-2.5c-4.4-0.3-8.8-0.9-12.5-1.3v-27c-8.4,3.7-17-1.3-25.2,2.4
			c2.2,10.9,2.2,10.9,4,21.7c-5.9-0.3-11.9-0.3-17.9-1c-16.7-2-33.3-4.2-49.9-6.4c-1-0.1-2,0-3,0c-9.3-0.2-18.5-0.3-27.8-0.7
			c-2.1-0.1-4.1-1-6-1.5c3.6-19.9,7.2-38.8,10.3-57.9c1.5-9.4,1.5-19.1,3.2-28.4c3.3-17.9,2.2-36,4.1-54c0.8-7.2,1.2-14.5,2.4-21.7
			c1.7-10.6,4.4-21.1,3.4-32.1c-0.1-1.2,0.4-2.4,0.7-4.1c7.5,0,14.7,0,21.9,0c11.2-0.1,22.3-0.6,33.5-0.2c7.7,0.3,15.4,1.9,23,2.6
			c3.4,0.3,6.2,9,9.7,9.9c8.4,2.2,11.3-5.6,17-4.7c5.4,0.9,8-4,12.3-3.1c8.6,1.9,17.2,2.4,26,1c3.9-0.6,7.9-0.1,11.8-0.1
			c1.3,2.3,2.6,4.4,4.6,7.8c2.5-5.4,4.3-9.4,6.2-13.4c-2.1-2.6-3.6-5.4-7.9-4.2c-1.7,0.5-3.9-0.5-5.9-0.9
			c-10.1-2.1-20.2-3.8-30.6-2.9c-4.7,0.4-9.5,0.1-13.8,0.1c-1.8-3.4-3.3-6-5-9.2c-7.7,1-7.7,1-19.7,1.9c0.3,2.4,0.6,4.5,1,7.4
			c-3.3,0.3-6.3,0.9-9.2,0.8c-8-0.3-15.9-1-23.9-1.2c-13.3-0.3-26.6-0.1-39.9-0.4c-7-0.2-14.1-2.1-21-1.2c-12.6,1.5-25,0.5-37.5,0.2
			c-6.2-0.1-12.4-0.7-18.6-1c-3.7-0.2-7.4-0.6-11.1-0.3c-8.9,0.8-13.1,1.3-12.1,10.8c0.4,3.7,1.2,7.5,0.5,11.1
			c-0.8,4.2,0.8,5.1,4.2,4.9c2.2-0.1,4.5-0.3,6.7-0.9c5.6-1.5,10.8-0.6,16.5,1.9c-2.6,10.4-18.8,22.1-27.4,29.4h-13.8
			c-3.4,10.1-1.3,22.1-12,29.4c-0.8-1.5-1.9-2.7-1.8-3.6c0.8-6.4,1.9-12.8,2.8-19.2c0.1-1,0.2-6.1-0.3-7c-0.2-0.3-15-0.9-15.6-0.7
			c0.6,3.5,1.5,7,1.8,10.6c0.3,3.7,0.1,7.4,0.1,11.1c-3-11.1-3-11.1-5.7-14.4v17c-4.1-2.1-8.8-4.2-9.5-4.7c-4.1-3.3-6.8-5.4-5.3-14
			c-0.1-2.2,5.6-2.6,3-3.4c-9.7-3.1-19.5-4.2-29.7-3.2c-0.3,0-0.6,0.1-0.8,0.1c-7.3-9.7-23.9-30.7-20.4-37.8
			c6.3,1.7,12.6,3.3,18.8,5c4.6,1.3,4.7,1.2,6.6-4.3c-4.3-0.8-8.4-1.6-14.2-2.7c8-6,5.3-13.3,6-19.7c0.1-1.1-1.1-2.7-2.2-3.5
			c-6.6-5.1-78.2-3.1-86.5-4.1c-1.5-0.2-3,0-4.5,0c-3.9,0.2-5.7,2.6-6.4,6.2c-0.7,3.5-1.6,7-2.5,11.1c2.3,2.7,50.5,5.1,54.3,5.7
			c-0.8,8.1-1.4,15.5-2.3,22.9c-1.1,9.2-1.8,18.5-3.8,27.5c-3.7,17-5.2,34.2-5.3,51.5c-0.1,9.3-0.6,18.6-1.8,27.8
			c-1.5,11.4-4,22.7-6.1,34c-1,5.6-3,11.1,0.3,16.7c0.8,1.3,0.3,3.4,0.4,5.2c-25.8,1.7-51.3,4.9-78.2,0.7c5-5.4,4.7-10.9,4.4-16.4
			c-0.1-2.2,0.2-4.5,0.4-6.8c0.7-8.2,1.8-16.5,2.1-24.7c0.4-10,0.1-20.1,0-30.1c-0.2-16.4,3.2-32.4,5.9-48.4
			c1.9-10.9,3.9-21.8,2.9-32.9c-0.7-7.7-1.9-15.4-2.8-23.1c-0.5-4.5-0.8-9-1.3-13.5c-0.4-3-0.9-6-4.9-7.4c-1.8,1.1-3.8,2.4-5.4,3.4
			c0,10.2,0.4,19.7-0.1,29.2c-0.6,11.7-1.9,23.4-2.9,35.1c-0.4,4.5-1,9-1.3,13.5c-0.8,13-1,26-2.4,38.9c-1.7,16-2.9,32-2.8,48.1
			c0,12.1-2.2,23.9-8,34.9c-18.4,0.5-36.7,1.3-55,1.3c-8.9,0-17.9-1.5-26.9-2.2c-5.5-0.4-5.2-0.4-6.5-6c-1.2-5.7-1.5-11.9-5.7-16.6
			c-7,5.2-12.6-3.2-19.7-1.1c-1.6,8-3.8,16.1,2.2,24.3c-38.2,1.9-75.2-0.9-112.8-5.4c1.2-6.1,2.5-11.4,3.2-16.7
			c1.7-13.2,3.1-26.4,4.8-39.6c1.3-10.8,3.5-21.5,4.1-32.3c0.7-12.4,2-24.7,4.4-36.8c2.3-11.5,3.6-23.3,5.7-34.9
			c1.7-9.4-0.9-17.9-4.6-26.3c-1.2-2.8-3.2-4.6-6.3-4.3c-3.3,0.3-4.8,2.9-5.1,5.7c-0.7,5.4-0.7,10.9-1.3,16.4
			c-0.7,6.7-17.3,152.7-19.8,169.1c-8.1-0.7-15.9-1-23.6-2.2c-19.5-2.9-39-2.1-58.6-0.4c-7.6,0.7-15.3,0.3-23,0.3
			c-0.4,0-0.8-0.5-2-1.4v-16.8c-12.4-6.6-14-6.5-25.9,2.7c3,11.9,1.2,14.2-11.4,14.6c-2,0.1-4,0-6,0c-2.2,0-58.6,1.1-66.8,1.1
			c-0.9-2.7-0.8-5.9-4.7-5.7c-9.5,0.4-19,0.7-28.5,0.9c-5.4,0.1-10.8-0.2-16.7-0.3c0.5-2.8,0.9-4.5,1.1-6.1c0.2-1.9,0.2-3.8,0.3-5.6
			c-9-2-13.2-1.5-14.1,3.4c-1.8,10.2-8.6,11.5-16.7,11.6c-0.4,0-0.8-0.4-2.1-1c1-3.9,1.7-8,3.1-11.9c1.3-4,37-104.5,38.6-122
			c0.4-4.5,1.6-8.8,2.3-13.2c3,0.3,5.7,0.6,8.7,0.9c2.3-4.7,6.3-9.2,6.2-13.6c-0.2-9.3,4.6-10.3,11.8-10.3
			c8.5,0.1,17.1-1.4,25.5-0.5c7.3,0.7,14.8-2,21.9,1.6c1.3,0.6,3.4-0.5,5.1-0.7c1.4-0.2,2.9-0.3,4.3-0.2c4,0.1,8,0.6,11.9,0.4
			c8.9-0.4,17.6-3.3,26.7-2.4c1.2,0.1,2.4-0.7,3.6-0.8c5.6-0.8,11.1-2.8,17.5-1.2c-0.3,2.4-0.9,4.6-0.8,6.7c0.1,1.5,0.7,3.9,1.8,4.4
			c7.5,3.4,15.4,0.6,15.4-7.4c0-1.9,0.8-3.7,1.4-5.9c10.7-0.6,20.8-1.5,31-1.6c10.2-0.1,37.5,2.2,37.5,2.2l3.6-9.9
			c0,0-36.9-3.7-55.5-4.3c-19.9-0.6-39.5,0.9-58.9,5.7c-3.2,0.8-6.8,0-10.8-0.1c1.8-10.4,1.4-28,3-37.3c0.3-1.7,1.6-2.8,0.5-3.8
			c0.2-0.3,0.4-0.6,0.5-0.9c1.6-3.5,3.2-7.1,3.3-11.3c0.1-6.7,0.9-13.5,1.6-20.2c0.1-0.9,1.2-1.6,1.7-2.4c0.6-1.3,1-2.7,1.4-3.9
			c6.1-2.8,11.1-0.3,16.6,2.5c-0.2,4.4-0.4,8.6-0.6,12.8c3.5,2.7,5.9,2,8.4-1.3c0.7-1,3.2-1.2,4.6-0.9c0.6,0.1,1.2,2.5,1.1,3.8
			c-0.3,4-1.1,7.9-1.4,11.8c-0.1,1.3,0.8,3.8,1.2,3.8c4.8-0.1,2.9,4.5,4.6,6.8c1.8-0.1,3.4-0.2,5.1-0.3c1.3-6.5,2.5-12.6,3.8-19.1
			c5.6-0.4,6.7-4.3,6.6-9c-0.1-5,0.6-10.1,0-15c-1.6-15.2,0.1-30.1,2.7-45c0.8-4.6,0.6-9.5,0.3-14.3c-0.2-3.4-1-7.1-4.6-8.9
			c-5,2.3-22.8,5.2-26.4,4.3c3.1-8.3,6.2-10.2,14.7-9.1c4.3,0.6,5.3-0.2,6.6-5.7c-2.5-0.8-5.7-0.9-7.4-2.6
			c-5.1-4.8-9.9-10-14.2-15.5c-3-3.8-2.8-6.1,0.8-9.1c2.9,0.7,10.7-0.7,10.7-0.7c1.4,0,7.5,2.5,8.9,2.5l14.8,1.5
			c0.3-9.3,2.5-34.7,3.1-44c0.6-9.3,2-18.5,2.2-27.7c0.5-17.8,0.1-35.6,0.8-53.4c0.4-10,1.1-20.2,3.2-29.9
			c3.2-14.7,2.5-29.4,2.3-44.2c0-3.7-2.3-6.2-6.2-6.3c-5.8-0.1-11.5-0.1-17.3,0.2c-2.4,0.1-7.8,0.9-11.6,1.5
			c11-8.6,23.6-14.5,31.9-19c-0.5-0.2-1.1-0.3-1.7-0.5c0.7-0.2,1.6-0.2,2.5-0.1c-9-5.7-31.2-18.3-30.7-30.3
			c11.1,0.3,21.5,3.6,31.4,0.6c-0.7-3-2.1-5.3-1.5-6.8c2.9-7.7,2.2-15.8,2.7-23.7c1.2-19.8,1-39.7,2.2-59.5c1-15.8,3.3-31.4,5-47.1
			c0.4-3.4-0.4-5.9-2.8-8.8c-4.9-6-10.3-9-18.2-7.8c-4.7,0.7-9.5,0.4-14.3,0.4c-1.7,0-3.3-0.5-5.4-0.9c0-1.8-0.3-3.4,0.1-4.7
			c2.4-8.6,5.2-17.1,7.5-25.7c0.8-2.8,0.9-5.9,1.1-8.8c0.4-8.2-0.2-16.4,2.7-24.2c7.3-1.3,14.1-2.4,22-3.8c0.7,4.4,1.8,8.5,1.8,12.6
			c0,5.9-0.9,11.7-1.2,17.6c-0.1,1.4,0.5,2.9,0.8,4.2c7.1,1,7,0.9,8.2-5.1c1.9-9,0.8-17.9,0.4-26.9c-0.4-8.3-4.9-13.5-8.6-19.8
			c-0.7,0.6-1.2,0.9-1.5,1.3c-2.7,4.3-5.1,5.7-8,4.2c-3.7-1.9-2.3-5.1-1.7-8c1.6-7.8,3.4-15.5,5.2-23.7c-6.1-3-12.9-1.9-19.5-1.7
			c-6.9,0.2-10.8,5.2-10.9,12.2c0,1.3-0.3,2.6-0.6,5.3c-3-11-2.7-15.1,1.4-20.9h33.7c0.8,2,1.6,4.1,2.6,6.7c1.4-1.1,2.5-1.5,3-2.3
			c1.2-1.8,1.7-4.7,3.2-5.4c2.1-0.9,38.5-0.3,40.6-1.1c3.1-1.2,5.2,0,5.2,3.1c0,2.7-0.3,5.5-0.9,8.1c-0.5,2.4-2.4,4.5,0.4,6.8
			c3,2.4,5.2,0.1,7.6-1c1.5-0.7,2.8-2.1,4-3.3c2.2-2.3,4.4-4.8,6.6-7.2c4.9,6.6,7.6,14.9,17,18c-1,4.4-2,8.6-3.2,14.1
			c1.2,2.8,4.7,4.5,9.1,3.6c10.1-2,20.4-1.6,30.6-1.6c18.2,0,36.5,0.2,54.7-0.1c13.3-0.2,26.5-0.8,39.8-1.3
			c9.2-0.4,18.6-0.1,27.7-1.7c8.4-1.5,16.3-1.3,24.4,0.9c1.4,0.4,2.9,0.1,4.3,0.1c1.4-2.2,2.1-4.4,0.9-6l0.3-18.1
			c3.4,3.4,11.5,16.9,12.4,17.8c0.3-0.2,1.6,2.8,2,2.8c0.8-0.2,0.7-3.6,0.6-3.7c1.5-10.8,9.8-14.7,16.6-19.5l-2.7,20.7l2.5,0.3
			c-0.5,3.4-0.9,6.2-1.2,7.9c1.8-0.3,3-0.6,4.2-0.6c11.8-0.2,14.9-3.4,14.9-14.9c0-2.5,0.4-5,0.5-7.5c0.9-16.3,1.9-32.6,2.4-48.9
			c0.2-6,2.7-45.2,4.4-58.9c1-7.9,1.4-16,1.6-24c0.2-8-0.1-16.1-0.1-24.1c0-0.7,0.4-1.4,0.6-2.3c1.9,0.5,3.7,1,5.3,1.5
			c3-3.5,3.7-6.9,2.7-10.9c-0.5-1.7-0.8-3.4-0.9-5.2c-0.4-5.7,1.7-7.7,7.1-7c3.2,0.4,8.5,0.6,11.7,0.7c10.4,0.2,20.8,0.2,31.3,0.7
			c4.5,0.2,8.8,1.7,13.3,2c5.5,0.4,11,0,16.5,0.3c7.8,0.4,15.7,1.2,24,1.9c-0.9,4.3-1.8,7.7-2.2,11.1c-0.3,2.6-0.7,5.7,0.4,7.9
			c1,2,3.9,3.2,6.7,5.2c-4.3,7.4-0.8,16.1-2.2,24.3c-1.7,9.9-1.5,19.9-2.2,29.8c-0.4,5.5-1.2,10.9-1.5,16.4c-0.2,4,0.4,8,0.2,11.9
			c-0.5,8-1.7,15.9-2,23.9c-0.3,10.3,0.1,20.5,0,30.8c0,2.9,0,6.5-1.6,8.6c-2.3,3.2-2.7,6.3-2.9,9.8c-0.1,1.6-0.7,3.2-1.2,5.4
			c-9.6,0-18.9,0.2-28.2-0.1c-9-0.3-18-1.3-27.1-1.8c-9.2-0.5-18.3-0.8-26.2-1.1c-3.6,4.3-5.1,14.2-3.3,13.8
			c11.5-2.4,81.9,0.3,88.5,3.2c4.3,1.9,8.6,1.9,11.8-1.6c2.5-2.7,62.3,1.3,65.1,1.1v-12.6c-20.6-1.6-40.8-0.2-61.2-0.8
			c-1.4-4.4-2.1-8.4,2-12c-4.2-2-5.5-5.3-5.3-9.4c0.6-16.3,1.1-32.6,1.9-48.9c0.8-15.5,1.9-31.1,2.7-46.6c0.5-10,0.7-20.1,1-30.1
			c0.1-3.5,0-6.9,0-10.3c2.8-0.7,4.6-1.1,6.3-1.5c0.6-8.7,1.2-16.9,1.8-25.3c1.2-0.2,2.2-0.4,3.1-0.4c13.1,0.5,26.2,0.9,39.4,1.6
			c3.9,0.2,7.9,1.1,11.8,1.1c6.5,0.1,13-0.6,19.4-0.4c7.7,0.3,8.2,1.1,9.3,8.7c0.1,0.9,0.8,1.7,1.3,2.8c3.6-0.4,6.9-0.8,10.3-1.3
			c0.2-2.9,0.4-5.2,0.6-8.1c3.6,3.4,1.5,6.3,1.2,9.1c-1.6,14.2-3.6,28.4-4.8,42.6c-1,12-1.4,24-1.7,36.1c-0.2,7.8,0.7,15.6,0,23.3
			c-2.1,20.7-4.9,41.3-7.5,62.3c-1.3,0.7-3.1,1.2-4.3,2.3c-1.1,1.1-2.3,2.9-2.2,4.3c0.4,4.2-0.1,12.4,1.9,15.8
			c1.1,1.9,11.1,3.3,17.3,2.1c1,0.3,2-0.1,2.6-0.8c0.5-0.2,0.9-0.5,1.3-0.8c-0.3-2.3,0.3-6.7,0.4-10.3c1-0.6,2.5-0.5,3.3,0.6
			c3.5,4.7,7.5,10.7,8.1,11.3c0.3-0.2,1.6,2.6,2,2.5c0.7-0.2,0.7-2.5,0.6-3.2c0-0.2,0-0.3,0-0.5c1.3-7.6,6.7-11.5,12.2-14.9
			c1.7-1,3.9,0.2,3.7,2.1l-0.2,1.8c-1.2,0.7-1.9,1.9-2.3,3.7c-0.4,2.2-0.4,4.5-0.3,6.7c0.2,4.1,2.7,5.6,5.7,2.7
			c3.4-3.2,43.9,2.3,53.7,1.6c4.9-0.3,9.9-0.1,14.8-0.1c8.4-0.1,16.8-0.8,25.2-0.4c11.2,0.5,22.4,1.9,33.6,2.9
			c5,0.4,10.2-0.2,14.8,1.3c7.8,2.4,15.4,0,23.1,0.7c1.3,0.1,2.9-0.8,4.1-1.7c3.4-2.3,3.5-5,0.3-7.8c-3.8-3.3-7.7-6.4-13.4-5.4
			c-1.9,0.4-4-0.4-6-0.6c-16.2-1.3-32.5-2.5-48.7-3.7c-1.9-0.1-3.9,0-4.7,0c-2.1-4.6-3.7-8.2-5.9-13.1c0.4-1.6,1.1-4.8,2.1-7.9
			c1.2-3.8,3.2-6.3,7.9-6.7c4.1-0.3,8.1-2.1,12.1-3.3c5.6-1.7,11.2-3.4,17.1-5.2c1.2,1.7,2.3,3.2,4.2,6c0.5-2.9,1.2-4.6,0.9-6
			c-0.6-2.9-1.9-5.7-2.5-8.5c-0.3-1.3-0.4-3.5,0.4-4.1c0.1,0,0.1-0.1,0.2-0.1c1.3,5.7,9.8,9.2,16.6,9.9c5.6-6.9-0.1-16.9,6.2-24.5
			c4.2,8.4,6.7,18.3,19.2,17.4c0.4-2.8,0.7-5.6,1.2-8.2c0.2-1.4,0.3-3.4,1.2-4.1c4.2-3,3.8-7.5,4-11.6c1.2-32.3,3.3-64.6,1.1-97
			c-0.5-7.4-0.1-14.9-0.1-22.6c6.1,0,11.5-0.1,16.9,0c4.4,0.1,8.9,0.8,13.3,0.4c8.7-0.8,17.3-2.3,26-3.4c1.6-0.2,3.3,0.2,5.9,0.5
			c-0.8,11.5-1.6,22.6-2.5,34.4c-8.2,0-15.7-0.1-23.1,0c-3.2,0-6.5,0.2-9.7,0.8c-1.1,0.2-2,1.8-2.9,2.8c1,0.9,1.9,2.6,3,2.6
			c3.9,0.3,7.9,0,11.8,0c6.9,0,13.9,0,21.2,0v23.7c-8.6,0.8-16.5,1-24.4-0.9c-4.7-1.2-9.2-1-13.1,3.7c12.1,6.2,24.5,3.2,36.9,4.3
			c0,5.1,0,9.9,0,14.6c0,4.1-2.1,5.8-6.1,5.8c-7.8-0.1-15.5,0.2-23.3,0c-5.1-0.1-5.7,0.1-6.4,6.8c11,1.4,22.3-1.7,34.3,0.7
			c-0.4,5.7-0.5,10.9-1.3,16c-0.9,5.4,3.7,10.6,0.3,16c-1,0.2-1.7,0.5-2.4,0.5c-7.5-0.3-15-0.5-22.5-1.2c-6.1-0.5-7.3-0.1-9.4,6
			c9.5-2.3,18.5,0.3,27.6,1.6c3.8,0.5,6.5,1.6,8.3,5.3c0.8,1.6,3.4,3.3,5.2,3.4c4.1,0.2,8.3-0.8,12.5-0.9c3.3-0.1,6.7,0.6,10.1,0.9
			c-2,10.3-10.2,10.9-17.8,13c4.8,2.6,10.5-1.2,13.6,4.4c2.2,4,6.4,7.1,6.6,12.9c-8.7,0.8-16.8-4.5-25.5-1.7
			c-0.6,3.9-1.2,7.6-1.9,11.2c-0.4,2.2-0.3,4.3,2.1,5c1.7,0.5,3.7,0.2,5.5-0.2c1.1-0.2,2-1.3,3-2c1.7,1.8,3.2,3.3,4.6,4.8
			c10.3-7.6,13.2-8.1,25.3-5.1c2.6,0.6,5.5,0.5,8.2,0.5c5.7,0.1,11.3,0,17.4,0c-0.3,3.8-0.4,6.8-0.9,9.8c-1.2,7.1-2.6,14.1-3.7,21.2
			c0,0,0,0,0,0c0,0,0,0,0,0c-0.3,1.8-0.6,3.7-0.9,5.5c-0.6,3.9-5.2,35.8-6.4,50.1c-15.1-0.4-29.7-0.8-44.2-1.2
			c0-8.8-0.5-16.9,0.2-24.8c0.7-8.2,2.6-16.3,4.1-24.4c0.4-2.3,1.3-5.2-1.6-5.6c-3.3-0.5-7.1-0.2-10.1,1.1c-1.7,0.7-2.9,4-3.2,6.2
			c-2.2,13.1-4.4,26.2-5.8,39.4c-0.4,4-0.4,12.5-3.2,15.6c-0.2,0.2-0.2,0.9-0.1,1.4c-4.5-0.4-12.7-0.8-14.2-0.8
			c-12.5-0.3-25-0.6-37.5-0.4c-8.8,0.1-17.5,1.6-26.3,1.7c-17.1,0.3-34.2,0.3-51.2,0.1c-18.3-0.2-36.7-0.9-55-1.4
			c-1.3,0-2.5-0.1-3.7-0.4c-12.2-3-24.5-4.1-37.1-5c-22.5-1.5-44.8-5.4-67.2-8.3c-4.5-0.6-8.8-1.9-13.3-2.5
			c-12.9-1.8-25.8-3.4-38.7-5.3c-5.9-0.9-11.8-2.8-17.8-3c-14.5-0.6-29.1-0.7-43.6-0.5c-14.8,0.2-29.6,1.2-44.4,1.4
			c-11.5,0.2-23-0.1-34.6-0.6c-8.2-0.4-16.5-1.5-24.7-2.1c-3.7-0.3-7.5-0.3-11.3-0.4c-12.2-0.5-24.3-3.1-36.7-2.5
			c-8.8,0.4-17.6,0.2-26.3,0.6c-12,0.7-24,2-36,2.5c-5.7,0.2-11.5-0.8-17.3-1c-9-0.3-18.1-0.3-27.1-0.5c-17.3-0.5-34.6-1.1-51.9-1.4
			c-5.3-0.1-10.4,0.8-14.4,3.4c0.3,11.3-3,32.9-1.9,46.6c-0.4,0-0.8,0-1.3,0.1c-0.7,5.9-1.4,10.4-1.5,14.8c0,1.1,2,2.2,3,3.3
			c0.9-1,2.3-1.8,2.7-2.9c0.5-1.6,0.1-3.5,0.6-5.2c0.4-1.6,1.1-4,2.3-4.5c4.5-1.7,9.1-3.4,14.2,0.1c-3.9,1-7.8,1.9-12,3
			c-0.8,10.6,2,21.6-1.4,32.6c-2.2-0.4-4-0.7-6.5-1.2c-0.8,7.5-1.5,14.4-2.3,22c0.5,0,1.1,0.1,1.6,0.1c-0.7,7.3,0.1,17.3,0.1,22
			c0,11,0.9,22,0.4,33c-0.7,16.5-2,33-3.5,49.4c-1.3,14.5-3.3,28.9-5.1,43.3c-1.5,12.6-3.3,25.2-4.7,37.9
			c-0.6,5.7-0.1,11.4-0.4,17.2c-0.7,13.7-1.6,27.4-2.4,41.2c-0.5,9.2-0.6,18.5-1.3,27.7c-1.3,16.4-3.9,32.8-2.3,49.4
			c0.3,3.2,0,6.5-0.2,9.7c-1,16-2.1,32-3,48c-0.6,10.7-0.7,21.4-1.1,32.1c-0.3,7.6-0.8,15.3-1.2,22.1c7.9,0,14.8,0,21.7,0
			c7.3,0,14.6-0.1,21.9-0.1c3.7,0,7.4-0.1,11.1,0.4c4.2,0.5,8.3,2.4,12.5,2.3c10.4-0.1,20.8-1,31.2-1.4c1.5-0.1,3,0,4.5,0.3
			c13.1,2.5,25.9,5.6,39.6,4c12.8-1.5,25.8-0.9,38.8-1.2c2.5,0,5,0.3,7.5,0.5c4.7,0.3,9.5,0.6,14.2,0.8c2.5,0.1,5-0.2,7.5,0.2
			c14,2.2,28.3-1,42.2,3c0.2,0.1,0.5,0,0.8,0c9.5,0.5,19,1,28.4,1.7c9.2,0.6,18.4,2.7,27.5,2c11.7-1,23,0.2,34.5,1
			c11.7,0.8,23.5,0.4,35.2,0.5c6,0.1,12,0.4,18,0c27-1.9,53.9-2.3,81-2.3c4.5,0,9-0.1,10.9,4.5c2.5-1.1,4.6-3,6.3-2.7
			c3.1,0.6,6,2.4,8.6,3.5c2.2-1.2,4.2-3.4,6.2-3.4c7.2,0.2,14.4,1.3,21.6,1.8c13.2,0.8,26.5,1.4,39.7,1.9
			c16.1,0.6,32.3,1.2,48.4,1.5c10.2,0.2,20.4-0.3,30.6,0c5.2,0.1,10.9-3.6,14.3,1.1c4.2-1.2,7.4-2.9,10.6-2.8
			c10.2,0.3,20.4,1.3,30.6,2c3.7,0.2,7.5,0.2,11.3,0.3c13.2,0.3,26.5,0.6,39.7,1c1.2,0,2.3,0.6,3.3,0.8c-0.2,2.1-0.9,4-0.3,5.4
			c1.6,3.7,3.7,7.1,5.6,10.6c1.9,3.4,4.7,5.4,8.6,4.7c4.4-0.8,5-4.5,5.1-8.2c0.1-4.2,0-8.4,0-12.5c7.4-1.7,13.3,0.6,19.4,2
			c2.6,0.6,5.5,1.8,8,1.3c8.8-1.4,17.6-1.5,26,1.2c8.6,2.8,17.3,3.9,26.3,3.7c8.5-0.2,17-1,25.5-0.9c6.1,0.1,12.2,1.2,17.8,1.9
			c2.5,5.4-2,7.3-4.1,10.2c1,1.5,1.8,2.7,2.6,3.9c4.2,6.3,5.5,6.3,11.9,2.4c3.7-2.3,5.4-4.9,5-9.1c-0.1-1.4,0.2-2.9,0.3-5.1
			c2.9,0.4,5.4,0.3,7.6,1.1c4.9,1.7,9.6,2.5,14.7,1.1c1.8-0.5,4,0,6,0.2c8.5,0.7,16.9,1.8,25.4,1.9c9.4,0.2,18.9-0.7,28.3-0.8
			c5,0,9.9,1.1,14.9,1.2c9.2,0.2,18.4-0.1,27.6,0c7,0.1,7.7,1,7.3,8c-0.2,4-0.2,7.6,4.4,8.7c2.3-0.5,4.5-0.9,6.6-0.4
			c3.4,0.7,4.8-0.6,5-3.7c0.1-2.9,0-5.8,0-8.8c10.8-0.8,20.7-1.5,30.7-2.1c0.3,0,0.7,0,1,0c7.9,0.5,15.8,0.8,23.7,1.5
			c2.8,0.2,5.5,1.3,8.1,1.9c-2.1,10.2-2.1,10.2,7.8,10.6c0.8,0,1.6-0.2,2.2,0.1c4.7,2.1,7.6,0.1,8.7-3c7.7,0,14.4-0.1,21.1,0
			c3.2,0.1,6.6,1.2,9.7,0.6c10.7-2.4,21.5-1.4,32.1-0.5c14.3,1.2,28.6,3.8,42.9,5.7c4.1,0.6,8.3,1,12.4,1.5
			C1590.6,954.9,1589.2,958.4,1587,962z"/>
	</g>
</g>
<g id="classesbyname">
	<g id="monaco">
		<path class="st0" d="M78.5,741.4c-6.3,0-13.1,0-20.9,0c-3.2-30.3,0.4-60.5,0.7-90.5c4.2-0.9,7.8-2.1,11.4-2.3
			c22.5-1.2,45-2.5,67.5-3.1c13.7-0.4,27.5,1.5,41.3,0.1c1.9-0.2,4,0.5,5.9,0.6c4.3,0.1,8.5,0.5,12.8,0.1c6-0.6,11.8-2,17.8-2.7
			c3.1-0.4,6.3-0.1,9.7-0.1c-1.7,29.8-3.2,58.5-0.2,87.1c-7,1.4-10.1,4-9.9,7.9c0.2,5.6,3.5,9,10.8,10.6c-0.5,4.3-0.8,8.7-1.6,13
			c-0.6,3.3-1.4,6.6-2.3,10.1c-3.3,0-13.4,0-18.4,0c0.2-0.1,0.4-0.2,0.6-0.4c-1,0-1.9,0.2-2.7,0.4c-0.4,0-0.7,0-0.8,0
			c0,0.1-0.1,0.2-0.1,0.2c-3.3,1.1-5.3,3.5-7.1,6.5c0.8,0.9,1.7,1.5,2.1,2.3c2.9,5.9,6.3,11,13,13.7c3.8,1.6,3.2,5.7-0.9,8
			c-6.9,4-11.7,9.7-16.1,17.5c5.6-0.6,10.4-0.4,14.6-1.9c5.8-2,11.3-3.6,17.2-1.1c1.1,4.7,0.9,4.7-0.4,9.4c-1.5,5.8-3,11.7-3.9,17.6
			c-0.9,6.5-1.1,13.1-1.6,20.2c-8.6-0.8-16.8-1.9-19.2,8.7c-42.3-0.7-84.1-1.3-126.6-2c1-3.5,1.6-5.8,2.3-8.2
			c-4.4-4-10.4-0.8-15.4-3.5c-0.1-2.1-0.3-4.3-0.4-6.5c-0.5-11.4-0.8-22.9-1.7-34.3c-1.7-21.1-0.4-42.1,1.1-62.6
			c4.3-1.2,8-2.6,11.9-3.1c3.7-0.5,7.5-0.1,11.1-0.1C79.6,748.8,79.1,745.5,78.5,741.4z"/>
	</g>
	<g id="hong-kong">
		<path class="st0" d="M57.1,624c1.3-10.7,3-21.4,4.2-32.1c2.1-18.9,3.9-37.9,5.9-56.8c0.4-3.5,1.8-6.9,1.7-10.3
			c-0.2-8.6,2-7.5,8.1-8.9c3.9-0.9,7.9-1.2,11.8-1.9c3.1-0.6,4.2-2.6,3.5-5.5c-0.4-1.7-1.1-3.3-1.8-5.3c-5.9-1.4-11.7-2.8-18-4.2
			c0.5-8.2,3.1-78.9,2.3-110.6c2.2-1.4,5-1.3,7.8-1.3c7.5-0.1,139.6-5.2,157.2-6.4c0.4,3.8,1.3,7.5,1.2,11.2
			c-0.3,11.7-0.8,23.5-1.6,35.2c-0.9,14.2-2,28.5-3,42.7c-0.2,3.2-0.3,6.6,0.3,9.8c0.7,4.2,0.2,7.9-2.2,11.5
			c-4.8,0.3-9.5,0.6-13.8,0.9c-1.9,4.6-4.4,8.5,0.2,12.1c14.1-0.1,16.6,2.7,10.9,12.9c-7.8,0.8-15.6,1.6-23.5,2.5
			c0.4,2.5,0.3,4.8,1.1,6.8c1.8,4.6,17.6,18.1,24,24.6c0,0-0.1,0-0.1,0c-1,5.5-1.1,5.6-5.6,8.2c-3.9,2.3-18.9,11.4-17.8,14.5
			c-0.1,0-0.2,0-0.3,0.1c2.6,3.2,9.5,1.3,11.5,1c3.2-0.5,6.4-1.5,9.6-1.6c6.9-0.2,7.3,0.5,7,7.2c-0.5,10-0.8,20.1-1.7,30
			c-0.6,6.6-2,13.1-2.8,18.8c-7.8,0.8-14.4,1.5-21.1,2.2c-9.7,1-19.4,2.1-29.3,1c-9.9-1.2-20-1.7-30-1.7c-14,0-28.1,0.6-42.1,1.1
			c-7.2,0.3-14.7,0.4-21.7,2c-10.7,2.5-20.8-1.4-32-0.6C57.1,629.3,56.8,626.6,57.1,624z"/>
	</g>
	<g id="las-vegas">
		<path class="st0" d="M62.6,223.1c-3.7-10.6-6.8-21.4-10.2-32.1c-0.7-2.1-1.2-4.4-2.2-6.3c-4.4-8.7-6.3-18-6.8-27.5
			c-0.7-12.6-3.6-24.7-7-36.8c-2.2-8-4.1-16.1-5.9-24.2c-0.6-2.9-0.5-6-0.3-9c0.5-5.6,3.6-7.9,9-7.7c4.2,0.1,8.3,0,13.5,0
			c0.8,4.6,1.8,10.1,2.8,16.1c2.1,0.5,4.4-1.1,7.1,0.1c2.5,1.1,5.9,0.6,9.3,0.8c2.7-5.2,3-10.2-1.1-15c-1-1.2-2.4-2.1-2.8-3.4
			c-0.8-2.1-1.1-4.9,1.6-5.8c3.2-1.1,6.7-2,10.1-2c7.6,0.1,15.2,1.2,22.8,1.2c15.9-0.2,31.8-2.1,47.8-0.1c7.5,0.9,15.2,0.9,22.8,1.5
			c2.7,0.2,5.3,1.2,9,2.1c0,3.9,0,7.9,0,11.8c-0.1,7.1,1.9,9.5,8.8,10.6c1.2,0.2,2.5,0.3,3.7,0.4c9.7,0.4,12.7-2.5,12.3-12.2
			c-0.2-3.7-0.4-7.5-0.7-11.5c4.4,0,8.5,0,12.7,0c9,0,18-0.3,27,0.1c8.9,0.4,17.8,1.8,26.7,2.4c9.7,0.6,19.4,0.8,29.1,1
			c8.2,0.2,16.4,0.3,24.3,3.2c4.4,1.6,9.2,1.9,14.5,2.9c-1.8,62.3-3,124.1-5.6,186.2c-6.7-2.7-11.6-8.8-15.4-18.7
			c-6.5,2.6-5.8,11.9-13.4,13.7c-1.9-6.1,2.3-13.3-3-19.4c-12.2-0.6-24.9-1.4-37.7-1.8c-13.5-0.4-27.1-0.5-40.6-0.4
			c-16.3,0.1-32.5,0.4-48.8,0.6c-3,0-6-0.2-9,0.1c-7.3,1-10.8,5.9-8.2,12.7c2,5,1.8,9.7,1.5,14.7c-0.4,6.5-0.1,13-0.1,20.6
			c-25,0.9-48.7,1.9-72.4,2.8c-4.1-4.6,2.4-13.1-6.6-15.9c-0.8,3-1.7,6-2.5,8.9c-0.3,0-0.7,0.1-1,0.1c-1-5.6-2.2-11.1-2.8-16.7
			C72.9,254.5,68,238.7,62.6,223.1z"/>
	</g>
	<g id="honolulu">
		<g>
			<path class="st0" d="M355.8,107.4c3.3-0.5,6.3-1.2,9.4-1.3c3.4-0.1,4.5-1.8,4.4-4.8c-0.1-2.8-0.6-5.5-0.7-8.3
				c-0.1-3.9,0-7.7,0-11.8c1.9-0.3,2.8-0.5,3.8-0.5c11.5,0.2,23,0.4,34.5,0.6c9.4,0.1,35.4,1.3,35.6,2.5c0.5,2.6,5.1,8.2,2.6,17.8
				c-1,3.8-1.3,7.8-1.9,11.5c3.5,2.7,14.3,0.5,16.7,1.4c1.2,0.4,2.7-0.4,4.2-0.6c0.9-9.9-4.7-19.9,2.4-29.6
				c4.2,0.3,8.9,0.3,13.5,1.2c10.6,2,21,6,32.2,3.3c2.5-0.6,5.1-0.8,7.7-0.8c1.8,0,3.8-0.4,5.7-0.3c10.2,0.6,20.4,1.3,30.6,2
				c1.9,0.1,3.8,0.5,6.6,0.8c-1.8,7.7,0.9,13.7,4.8,19.5c0.8,1.2,0.6,3.4,0.5,5.1c-0.4,11.4-1.5,22.8-0.9,34.2
				c0.8,15.4,0.1,30.8-3.1,45.8c-3.3,15.2-2.6,30.6-3.7,45.9c-0.2,2.7-0.8,7.9-1.5,14.2l-1.7,1.1c-0.3,0.2-7.1,4.6-13.8,9.9
				c-3,2.3-4.6,8.7-6.5,10.5c-1.5-1.9-2.5-6.6-3.6-7.8c-4.9-5.5-10.1-10.3-10.3-10.5c0,0-2.9-4.5-4.2-4c-5.7,2.5-1.3,22.8-0.2,27.3
				c-11.1-3-36.3-4-41.3-3.5c-1-4.3-1.1-9.1-6-9.9c-5.8-0.9-11.7-1.1-18-1.7c-0.6,4.8-1.1,8.6-1.6,13.2c-30.1,1.4-59.7,4.1-89.3,3
				c-4.1-5.4,1.3-7.8,3-10.9c-1-3.6-1.9-6.8-2.9-10.5c-3.6,0.8-7.2,1.6-11.6,2.6C352.6,211.1,354.2,159.5,355.8,107.4z"/>
		</g>
	</g>
	<g id="oimiakon">
		<path class="st0" d="M817.2,236.9c1-7.1,1.8-14.4,1.3-21.6c-1.1-17.9-0.9-35.6,2-53.3c1.8-10.9,3.5-21.8,5.1-32.7
			c0.5-3.5-0.5-7.8,1.3-10.3c2.1-3.1,0.4-5.3-0.2-7.8c3.2-1,5.9-1.8,8.7-2.7c0.2-3.7,0.3-6.9,0.4-9.5c16-4.5,31.9-4.5,47.9-4.9
			c11.7-0.2,23.3-1.1,35-1.5c3.1-0.1,6.3,0.2,10.4,0.3c0,5.6,0,10.3,0,15c0,2.4,1.8,4.6,3.6,3.3c4.9-3.4,9.6-1,15-0.5
			c3.2-5.4,0-12.9,4.9-18c2.7,0.5,5.1,1.2,7.6,1.3c15.5,0.5,31,0.7,46.5,1.2c2.6,0.1,5.2,0.8,8.4,1.3c0.6,11.9,1.1,23.1,1.7,34.2
			c0.6,11,1.3,21.9-0.2,33c-1.4,11.1-0.3,22.6-1.5,33.8c-1.2,11.2,1.7,22.6-1.1,33.6c-0.8,0.1-0.8,0.1-1.6,0.2
			c-3.2-6.5-6.3-12.9-9.5-19.4c-0.9,0.1-1,0.1-1.9,0.2c-2.5,8.5-5,17-7.6,25.9c-0.5,0-11.3-7.4-14.5-6.7c-3.2,0.7-3.9,3.3-3.4,6.5
			c0.3,1.9,0.1,3.9,0.1,5.4c-10.7,2.5-20.7,4.7-30.6,7.1c-3.6,0.9-7.5,1.8-9.1,5.9c-1.6,4.2-3.5,8.4-4.5,12.7c-1,4.3-5.2,7-4.5,12.2
			c0.5,3.6-2.3,6.1-6.5,5.8c-1.3-0.1-2.5-0.2-3.8-0.2c-12.1,0.2-24.3,0.4-36.4,0.5c-3.5,0.1-7.3,1-10.4-0.1
			c-4.8-1.7-9.1-0.9-13.9-0.9c-2.1,0-4.2-0.3-6.3-0.7c-0.1,0-0.1,0-0.2,0l1.5-10.8c0.3-1.8-2-3.1-3.7-2.1l-0.2,0.1
			c-0.3,0.2-7.1,4.2-13.8,9.1c-1.7,1.2-3,3.7-4.1,5.9c-0.9,1.7-3.7,1.6-4.4-0.2c-0.6-1.4-1.1-2.7-1.6-3.2c-4.9-5-10.1-9.4-10.3-9.6
			l-0.2-0.2c-0.1-0.1-0.2-0.2-0.4-0.3c-0.3-1.4-0.5-2.8-0.3-4.1C813.1,259.1,815.7,248,817.2,236.9z"/>
	</g>
	<g id="ponpeia">
		<path class="st0" d="M1101,223c0.9-0.9,1.2-2.8,1.2-4.3c0.6-14.8,1.2-29.6,1.5-44.4c0.2-9-1-18-0.4-26.9
			c1.1-14.5,3.1-28.9,4.8-43.4c0.4-3.6,0.9-7.3,1.3-10.9c4.6-0.3,8.4-0.3,12.1-0.9c15.1-2.6,30.4-2.2,45.6-1.8
			c1.5,0,3.1,0.2,4.4,0.9c7.2,4.2,14.9,2.4,22.5,2.1c3-0.1,5.9-0.5,8.9-0.4c10.7,0.4,21.4,1.1,32.2,1.3c2.7,0.1,15.9-0.2,22.9-0.7
			c0,0.5-0.1,1.1-0.2,1.6c-0.3,3.4-0.9,6.8-1.4,10.3c5.3,2.8,9.9,0.3,14.5-0.3c1-0.1,2-3,2.5-4.8c0.7-2.6,0.9-5.2,1.2-7.5
			c5,0.4,9.3,1.6,13.3,0.9c5.7-0.9,11.2-0.8,16.9-1c19-0.5,38-1.9,57.1-2.9c4.2-0.2,8.3,0,13.3,0c-1.5,5.6-4.5,9.3-6.8,13.4
			c-6,10.7-12.2,21.3-17.7,32.2c-2.8,5.5-3.9,11.9-6.3,17.7c-3.3,8.1-7,16.1-10.6,24.1c-6.2,13.5-12.4,26.9-18.6,40.3
			c-4.5,9.8-9.2,19.4-13.7,29.2c-3.5,7.7-6.8,15.5-9.9,22.6c-7.9,0-14.6,0-21.3,0c-2,0-3.4-0.7-5-2.5c-4.5-4.9-8.3-4.7-13.5-0.4
			c-1.4,1.1-3.4,1.7-5.2,2c-2.2,0.3-4.5,0-6.7,0.2c-16.8,1.1-33.5,2.7-50.3,3.2c-14.8,0.4-29.6-0.6-44.4-0.9c-6.4-0.1-12.9,0-18.9,0
			c-4.3-6.5-8.2-12.5-12.2-18.6c6.8-10,6.8-10,4.4-15.5c-6.7,0-13.3,0-20.2,0C1098.2,231.8,1097,227,1101,223z"/>
	</g>
</g>
</svg>
