<?xml version="1.0" encoding="utf-8"?>
<!-- Generator: Adobe Illustrator 16.0.0, SVG Export Plug-In . SVG Version: 6.00 Build 0)  -->
<!DOCTYPE svg PUBLIC "-//W3C//DTD SVG 1.1//EN" "http://www.w3.org/Graphics/SVG/1.1/DTD/svg11.dtd">
<svg version="1.1" id="root-layer" xmlns="http://www.w3.org/2000/svg" xmlns:xlink="http://www.w3.org/1999/xlink" x="0px" y="0px"
	 width="1041.811px" height="801px" viewBox="115.293 -467.866 1041.811 801"
	 enable-background="new 115.293 -467.866 1041.811 801" xml:space="preserve">

  
<g id="img-sensors-lasvegas">
	<g id="sensor-humidity" display="none">
		
			<image display="inline" overflow="visible" enable-background="new    " width="121" height="150" id="hum1-icon" xlink:href="../img/sensors/humidity-inv.png"  transform="matrix(1 0 0 1 824.5508 -298.3535)">
		</image>
		
			<text id="AndorraHumidity1-value" transform="matrix(1 0 0 1 847.2773 -191.4766)" display="inline" fill="none" stroke="#FFFFFF" stroke-miterlimit="10" font-family="'AmaticSC-Regular'" font-size="36">0%</text>
		
			<text id="AndorraHumidity1-lastimevalue" transform="matrix(1 0 0 1 827.5508 -131.7813)" display="inline" fill="none" stroke="#000000" stroke-miterlimit="10" font-family="'AmaticSC-Regular'" font-size="18">yyyy/mm/dd 24:00</text>
		
			<image display="none" overflow="visible" enable-background="new    " width="173" height="150" id="AndorraHumidity1-warning" xlink:href="../img/Sensors/warning-sign-inv.png"  transform="matrix(0.15 0 0 0.15 911 -277.7461)">
		</image>
	</g>
	<g id="sensor-co2" display="none">
		
			<image display="inline" overflow="visible" enable-background="new    " width="103" height="150" id="co21-icon" xlink:href="../img/sensors/co2-black.png"  transform="matrix(1 0 0 1 892.2227 -388.2656)">
		</image>
		
			<text id="AndorraBob1-value" transform="matrix(1 0 0 1 937.3096 -313.2646)" display="inline" fill="none" stroke="#FFFFFF" stroke-miterlimit="10" font-family="'AmaticSC-Regular'" font-size="36">0.0</text>
		
			<text id="AndorraBob1-lastimevalue" transform="matrix(1 0 0 1 928.8633 -392.3838)" display="inline" fill="none" stroke="#000000" stroke-miterlimit="10" font-family="'AmaticSC-Regular'" font-size="18">yyyy/mm/dd 24:00</text>
		
			<image display="none" overflow="visible" enable-background="new    " width="173" height="150" id="AndorraBob1-warning" xlink:href="../img/Sensors/warning-sign.png"  transform="matrix(0.18 0 0 0.18 995.916 -383.522)">
		</image>
	</g>
	<g id="sensor-temperature" display="none">
		<g id="temp-andorra-light4" display="inline">
			<g id="temp4-blackrect">
				<rect x="861.391" y="-27.908" width="95.104" height="63.404"/>
			</g>
			<g id="temp4-icon">
				
					<image overflow="visible" enable-background="new    " width="73" height="151" xlink:href="../img/sensors/temperature-inv.png"  transform="matrix(0.2983 0 0 0.2983 867.2998 -20.2188)">
				</image>
			</g>
			
				<text id="AndorraLight4-temp-value" transform="matrix(1 0 0 1 897.0723 8.3555)" fill="none" stroke="#FFFFFF" stroke-miterlimit="10" font-family="'AmaticSC-Regular'" font-size="24.027">?</text>
			
				<text id="AndorraLight4-temp-lastimevalue" transform="matrix(1 0 0 1 861.3906 51.2422)" fill="none" stroke="#000000" stroke-miterlimit="10" font-family="'AmaticSC-Regular'" font-size="18">yyyy/mm/dd 24:00</text>
			
				<image display="none" overflow="visible" enable-background="new    " width="173" height="150" id="temp4-warning" xlink:href="../img/Sensors/warning-sign.png"  transform="matrix(0.18 0 0 0.18 958.4951 -27.9077)">
			</image>
		</g>
		<g id="temp-andorra-light3" display="inline">
			<g id="temp3-blackrect">
				<rect x="371.442" y="48.32" width="95.104" height="63.404"/>
			</g>
			<g id="temp3-icon">
				
					<image overflow="visible" enable-background="new    " width="73" height="151" xlink:href="../img/sensors/temperature-inv.png"  transform="matrix(0.2983 0 0 0.2983 377.3535 56.0098)">
				</image>
			</g>
			
				<text id="AndorraLight3-value" transform="matrix(1 0 0 1 407.1211 84.582)" fill="none" stroke="#FFFFFF" stroke-miterlimit="10" font-family="'AmaticSC-Regular'" font-size="24.027">?</text>
			
				<text id="AndorraLight3-temp-lastimevalue" transform="matrix(1 0 0 1 371.4419 128)" fill="none" stroke="#000000" stroke-miterlimit="10" font-family="'AmaticSC-Regular'" font-size="18">yyyy/mm/dd 24:00</text>
			
				<image display="none" overflow="visible" enable-background="new    " width="173" height="150" id="temp3-warning" xlink:href="../img/Sensors/warning-sign.png"  transform="matrix(0.18 0 0 0.18 468.5454 48.313)">
			</image>
		</g>
		<g id="temp-andorra-light2" display="inline">
			<g id="temp2-blackrect">
				<rect x="617.293" y="-121.665" width="95.104" height="63.404"/>
			</g>
			<g id="temp2-icon">
				
					<image overflow="visible" enable-background="new    " width="73" height="151" xlink:href="../img/sensors/temperature-inv.png"  transform="matrix(0.2983 0 0 0.2983 623.2031 -113.9688)">
				</image>
			</g>
			
				<text id="AndorraLight2-temp-value" transform="matrix(1 0 0 1 652.9756 -85.3965)" fill="none" stroke="#FFFFFF" stroke-miterlimit="10" font-family="'AmaticSC-Regular'" font-size="24.027">?</text>
			
				<text id="AndorraLight2-temp-lastimevalue" transform="matrix(1 0 0 1 617.293 -42.2607)" fill="none" stroke="#000000" stroke-miterlimit="10" font-family="'AmaticSC-Regular'" font-size="18">yyyy/mm/dd 24:00</text>
			
				<image display="none" overflow="visible" enable-background="new    " width="173" height="150" id="temp2-warning" xlink:href="../img/Sensors/warning-sign.png"  transform="matrix(0.18 0 0 0.18 714.3984 -121.6646)">
			</image>
		</g>
		<g id="temp-andorra-light5" display="inline">
			<g id="temp5-blackrect">
				<rect x="342.616" y="-303.2" width="95.104" height="63.404"/>
			</g>
			<g id="temp5-icon">
				
					<image overflow="visible" enable-background="new    " width="73" height="151" xlink:href="../img/sensors/temperature-inv.png"  transform="matrix(0.2983 0 0 0.2983 348.5273 -295.5098)">
				</image>
			</g>
			
				<text id="AndorraLight5-temp-value" transform="matrix(1 0 0 1 378.3008 -266.9375)" fill="none" stroke="#FFFFFF" stroke-miterlimit="10" font-family="'AmaticSC-Regular'" font-size="24.027">?</text>
			
				<text id="AndorraLight5-temp-lastimevalue" transform="matrix(1 0 0 1 343.2461 -223.9414)" fill="none" stroke="#000000" stroke-miterlimit="10" font-family="'AmaticSC-Regular'" font-size="18">yyyy/mm/dd 24:00</text>
			
				<image display="none" overflow="visible" enable-background="new    " width="173" height="150" id="temp5-warning" xlink:href="../img/Sensors/warning-sign.png"  transform="matrix(0.18 0 0 0.18 439.7192 -303.0229)">
			</image>
		</g>
		<g id="temp-andorra-light6" display="inline">
			<g id="temp6-blackrect">
				<rect x="860.691" y="-303.825" width="95.104" height="63.404"/>
			</g>
			<g id="temp6-icon">
				
					<image overflow="visible" enable-background="new    " width="73" height="151" xlink:href="../img/sensors/temperature-inv.png"  transform="matrix(0.2983 0 0 0.2983 866.6025 -296.1357)">
				</image>
			</g>
			
				<text id="AndorraLight6-temp-value" transform="matrix(1 0 0 1 896.374 -267.561)" fill="none" stroke="#FFFFFF" stroke-miterlimit="10" font-family="'AmaticSC-Regular'" font-size="24.027">?</text>
			
				<text id="AndorraLight6-temp-lastimevalue" transform="matrix(1 0 0 1 860.6924 -223.334)" fill="none" stroke="#000000" stroke-miterlimit="10" font-family="'AmaticSC-Regular'" font-size="18">yyyy/mm/dd 24:00</text>
			
				<image display="none" overflow="visible" enable-background="new    " width="173" height="150" id="temp4-warning_2_" xlink:href="../img/Sensors/warning-sign.png"  transform="matrix(0.18 0 0 0.18 957.7969 -303.2412)">
			</image>
		</g>
	</g>
	<g id="sensor-curtains" display="none">
		<g id="curtains-right2" display="inline">
			<text id="cur0325-value" transform="matrix(1 0 0 1 984.1846 -314)" font-family="'AmaticSC-Regular'" font-size="36">1</text>
			
				<image overflow="visible" enable-background="new    " width="132" height="73" id="curtain-right2-icon" xlink:href="../img/sensors/curtain-right2.png"  transform="matrix(1 0 0 1 971.125 -416)">
			</image>
		</g>
		<g id="curtains-right1" display="inline">
			<text id="cur0066-value" transform="matrix(1 0 0 1 678.0557 -314)" font-family="'AmaticSC-Regular'" font-size="36">1</text>
			
				<image overflow="visible" enable-background="new    " width="40" height="69" id="curtain-right1-icon" xlink:href="../img/sensors/curtain-right1.png"  transform="matrix(1 0 0 1 661.6406 -416)">
			</image>
		</g>
		<g id="curtains-left2" display="inline">
			<text id="cur0995-value" transform="matrix(1 0 0 1 617.3564 -314)" font-family="'AmaticSC-Regular'" font-size="36">1</text>
			
				<image overflow="visible" enable-background="new    " width="38" height="70" id="curtain-left2-icon" xlink:href="../img/sensors/curtain-left2.png"  transform="matrix(1 0 0 1 596.2344 -416)">
			</image>
		</g>
		<g id="curtains-left1" display="inline">
			<text id="cur0210-value" transform="matrix(1 0 0 1 425.7432 -314)" font-family="'AmaticSC-Regular'" font-size="36">1</text>
			
				<image overflow="visible" enable-background="new    " width="93" height="69" id="curtain-left1-icon" xlink:href="../img/sensors/curtain-left1.png"  transform="matrix(1 0 0 1 347.2158 -416)">
			</image>
		</g>
	</g>
	<g id="sensor-light" display="none">
		<g id="light-andorra-light4" display="inline">
			<g id="light4-blackrect">
				<rect x="861.803" y="-27.908" width="95.104" height="63.404"/>
			</g>
			
				<text id="AndorraLight4-value" transform="matrix(1 0 0 1 913.9902 10.3564)" fill="none" stroke="#FFFFFF" stroke-miterlimit="10" font-family="'AmaticSC-Regular'" font-size="26">?</text>
			
				<text id="AndorraLight4-light-lastimevalue" transform="matrix(1 0 0 1 861.8027 51.2422)" fill="none" stroke="#000000" stroke-miterlimit="10" font-family="'AmaticSC-Regular'" font-size="18">yyyy/mm/dd 24:00</text>
			
				<image overflow="visible" enable-background="new    " width="97" height="150" id="light4-icon" xlink:href="../img/sensors/light-inv.png"  transform="matrix(0.3864 0 0 0.3864 865.876 -27.2354)">
			</image>
			
				<image display="none" overflow="visible" enable-background="new    " width="173" height="150" id="light4-warning" xlink:href="../img/Sensors/warning-sign.png"  transform="matrix(0.18 0 0 0.18 958.4951 -27.9077)">
			</image>
		</g>
		<g id="light-andorra-light3" display="inline">
			<g id="light3-blackrect">
				<rect x="371.442" y="48.313" width="95.104" height="63.404"/>
			</g>
			
				<text id="AndorraLight3-value" transform="matrix(1 0 0 1 423.6299 86.5771)" fill="none" stroke="#FFFFFF" stroke-miterlimit="10" font-family="'AmaticSC-Regular'" font-size="26">?</text>
			
				<text id="AndorraLight3-light-lastimevalue" transform="matrix(1 0 0 1 371.4419 128)" fill="none" stroke="#000000" stroke-miterlimit="10" font-family="'AmaticSC-Regular'" font-size="18">yyyy/mm/dd 24:00</text>
			
				<image overflow="visible" enable-background="new    " width="97" height="150" id="light3-icon" xlink:href="../img/sensors/light-inv.png"  transform="matrix(0.3864 0 0 0.3864 375.5156 48.9854)">
			</image>
			
				<image display="none" overflow="visible" enable-background="new    " width="173" height="150" id="light3-warning" xlink:href="../img/Sensors/warning-sign.png"  transform="matrix(0.18 0 0 0.18 468.5454 48.313)">
			</image>
		</g>
		<g id="light-andorra-light2" display="inline">
			<g id="light2-blackrect">
				<rect x="617.294" y="-121.665" width="95.104" height="63.404"/>
			</g>
			
				<text id="AndorraLight2-value" transform="matrix(1 0 0 1 669.4814 -83.4004)" fill="none" stroke="#FFFFFF" stroke-miterlimit="10" font-family="'AmaticSC-Regular'" font-size="26">?</text>
			
				<text id="AndorraLight2-light-lastimevalue" transform="matrix(1 0 0 1 617.293 -42.2607)" fill="none" stroke="#000000" stroke-miterlimit="10" font-family="'AmaticSC-Regular'" font-size="18">yyyy/mm/dd 24:00</text>
			
				<image overflow="visible" enable-background="new    " width="97" height="150" id="light2-icon" xlink:href="../img/sensors/light-inv.png"  transform="matrix(0.3864 0 0 0.3864 621.3662 -120.9922)">
			</image>
			
				<image display="none" overflow="visible" enable-background="new    " width="173" height="150" id="light2-warning" xlink:href="../img/Sensors/warning-sign.png"  transform="matrix(0.18 0 0 0.18 714.3984 -121.6646)">
			</image>
		</g>
		<g id="light-andorra-light5" display="inline">
			<g id="light5-blackrect">
				<rect x="342.616" y="-303.023" width="95.104" height="63.404"/>
			</g>
			
				<text id="AndorraLight5-value" transform="matrix(1 0 0 1 394.8037 -264.7598)" fill="none" stroke="#FFFFFF" stroke-miterlimit="10" font-family="'AmaticSC-Regular'" font-size="26">?</text>
			
				<text id="AndorraLight5-light-lastimevalue" transform="matrix(1 0 0 1 343.2461 -223.9414)" fill="none" stroke="#000000" stroke-miterlimit="10" font-family="'AmaticSC-Regular'" font-size="18">yyyy/mm/dd 24:00</text>
			
				<image overflow="visible" enable-background="new    " width="97" height="150" id="light5-icon" xlink:href="../img/sensors/light-inv.png"  transform="matrix(0.3864 0 0 0.3864 346.6895 -302.3506)">
			</image>
			
				<image display="none" overflow="visible" enable-background="new    " width="173" height="150" id="light5-warning" xlink:href="../img/Sensors/warning-sign.png"  transform="matrix(0.18 0 0 0.18 439.7192 -303.0229)">
			</image>
		</g>
		<g id="light-andorra-light6" display="inline">
			<g id="light6-blackrect">
				<rect x="860.69" y="-304.274" width="95.104" height="63.404"/>
			</g>
			
				<text id="AndorraLight6-value" transform="matrix(1 0 0 1 912.8779 -266.0103)" fill="none" stroke="#FFFFFF" stroke-miterlimit="10" font-family="'AmaticSC-Regular'" font-size="26">?</text>
			
				<text id="AndorraLight6-light-lastimevalue" transform="matrix(1 0 0 1 860.6914 -224.3672)" fill="none" stroke="#000000" stroke-miterlimit="10" font-family="'AmaticSC-Regular'" font-size="18">yyyy/mm/dd 24:00</text>
			
				<image overflow="visible" enable-background="new    " width="97" height="150" id="light6-icon" xlink:href="../img/sensors/light-inv.png"  transform="matrix(0.3864 0 0 0.3864 864.7627 -303.6025)">
			</image>
			
				<image display="none" overflow="visible" enable-background="new    " width="173" height="150" id="light4-warning_2_" xlink:href="../img/Sensors/warning-sign.png"  transform="matrix(0.18 0 0 0.18 957.7959 -304.2744)">
			</image>
		</g>
	</g>
	<g id="sensor-door" display="none">
		<g id="door-d2" display="inline">
			
				<image overflow="visible" enable-background="new    " width="109" height="150" id="door2-value-icon-1" xlink:href="../img/sensors/door-open.png"  transform="matrix(0.5543 0 0 0.5543 862.1377 221.5415)">
			</image>
			
				<image overflow="visible" enable-background="new    " width="109" height="150" id="door2-value-icon-0" xlink:href="../img/sensors/door-close.png"  transform="matrix(0.5543 0 0 0.5543 862.1357 221.5425)">
			</image>
			<rect x="935.665" y="260.805" fill="none" width="25" height="28"/>
			<text id="door2-value" transform="matrix(1 0 0 1 935.665 284.5879)" font-family="'AmaticSC-Regular'" font-size="36">1</text>
		</g>
	</g>
	<g id="sensor-window" display="none">
		<g id="window-left1" display="inline">
			<text id="w0769-value" transform="matrix(1 0 0 1 443.1846 -396.0684)" font-family="'AmaticSC-Regular'" font-size="18">1</text>
			<g id="w0769-value-icon-0">
				<path fill="none" stroke="#000000" stroke-miterlimit="10" d="M499.203-416.361H371.96l22.41,28.243h116.878L499.203-416.361z
					 M377.691-414.123h118.514l10.322,23.577H396.12L377.691-414.123z"/>
				<polygon fill="none" stroke="#000000" stroke-miterlimit="10" points="396.12,-390.546 396.127,-394.216 380.736,-414.123 
					377.691,-414.123 				"/>
				<polygon fill="none" stroke="#000000" stroke-miterlimit="10" points="506.527,-390.546 504.791,-394.512 396.127,-394.216 
					396.12,-390.546 				"/>
			</g>
			<g id="w0769-value-icon-1">
				<path d="M499.203-416.361H371.96l22.41,28.243h116.878L499.203-416.361z M377.691-414.123h118.514l10.322,23.577H396.12
					L377.691-414.123z"/>
				<polygon stroke="#FFFFFF" stroke-miterlimit="10" points="396.12,-390.546 396.127,-394.216 380.736,-414.123 377.691,-414.123 
									"/>
				<polygon stroke="#FFFFFF" stroke-miterlimit="10" points="506.527,-390.546 504.791,-394.512 396.127,-394.216 396.12,-390.546 
									"/>
			</g>
		</g>
		<g id="window-left2" display="inline">
			<text id="w1012-value" transform="matrix(1 0 0 1 564.3291 -396.0684)" font-family="'AmaticSC-Regular'" font-size="18">1</text>
			<g id="w1012-value-icon-0">
				<path fill="none" stroke="#000000" stroke-miterlimit="10" d="M631.118-416.361H503.19l11.706,28.243h117.518L631.118-416.361z
					 M517.577-390.546l-9.521-23.577H627.28l1.354,23.577H517.577z"/>
				<polygon fill="none" stroke="#000000" stroke-miterlimit="10" points="517.577,-394.222 509.764,-413.8 508.061,-414.123 
					517.577,-390.546 				"/>
				<rect x="517.577" y="-394.222" fill="none" stroke="#000000" stroke-miterlimit="10" width="111.052" height="3.676"/>
			</g>
			<g id="w1012-value-icon-1">
				<path d="M631.118-416.361H503.19l11.706,28.243h117.518L631.118-416.361z M517.577-390.546l-9.521-23.577H627.28l1.354,23.577
					H517.577z"/>
				<polygon stroke="#FFFFFF" stroke-miterlimit="10" points="517.577,-394.222 509.764,-413.8 508.061,-414.123 517.577,-390.546 
									"/>
				<rect x="517.577" y="-394.222" stroke="#FFFFFF" stroke-miterlimit="10" width="111.052" height="3.676"/>
			</g>
		</g>
		<g id="window-right1" display="inline">
			<text id="w0109-value" transform="matrix(1 0 0 1 719.3672 -396.0684)" font-family="'AmaticSC-Regular'" font-size="18">1</text>
			<g id="w0109-value-icon-0">
				<path fill="none" stroke="#000000" stroke-miterlimit="10" d="M662.929-416.361l-1.288,28.243h121.104l12.033-28.243H662.929z
					 M780.1-390.546H665.425l1.354-23.577H789.88L780.1-390.546z"/>
				<polygon fill="none" stroke="#000000" stroke-miterlimit="10" points="780.1,-394.216 665.635,-394.222 665.425,-390.546 
					780.1,-390.546 				"/>
				<polygon fill="none" stroke="#000000" stroke-miterlimit="10" points="789.88,-414.123 788.252,-414.123 780.1,-394.216 
					780.1,-390.546 				"/>
			</g>
			<g id="w0109-value-icon-1">
				<path d="M662.929-416.361l-1.288,28.243h121.104l12.033-28.243H662.929z M780.1-390.546H665.425l1.354-23.577H789.88
					L780.1-390.546z"/>
				<polygon stroke="#FFFFFF" stroke-miterlimit="10" points="780.1,-394.216 665.635,-394.222 665.425,-390.546 780.1,-390.546 
									"/>
				<polygon stroke="#FFFFFF" stroke-miterlimit="10" points="789.88,-414.123 788.252,-414.123 780.1,-394.216 780.1,-390.546 				
					"/>
			</g>
		</g>
		<g id="window-right2" display="inline">
			<text id="w1001-value" transform="matrix(1 0 0 1 847.2969 -396.0684)" font-family="'Amatic-Bold'" font-size="18">0</text>
			<g id="w1001-value-icon-0">
				<path fill="none" stroke="#000000" stroke-miterlimit="10" d="M798.752-416.361l-12.357,28.243h121.748l23.155-28.243H798.752z
					 M906.453-390.546H791.142l10.587-23.577h123.784L906.453-390.546z"/>
				<polygon fill="none" stroke="#000000" stroke-miterlimit="10" points="925.513,-414.123 921.748,-414.123 906.453,-394.222 
					906.453,-390.546 				"/>
				<polygon fill="none" stroke="#000000" stroke-miterlimit="10" points="792.905,-394.5 791.142,-390.546 906.453,-390.546 
					906.453,-394.222 				"/>
			</g>
			<g id="w1001-value-icon-1">
				<path d="M798.752-416.361l-12.357,28.243h121.748l23.155-28.243H798.752z M906.453-390.546H791.142l10.587-23.577h123.784
					L906.453-390.546z"/>
				<polygon stroke="#FFFFFF" stroke-miterlimit="10" points="925.513,-414.123 921.748,-414.123 906.453,-394.222 
					906.453,-390.546 				"/>
				<polygon stroke="#FFFFFF" stroke-miterlimit="10" points="792.905,-394.5 791.142,-390.546 906.453,-390.546 906.453,-394.222 
									"/>
			</g>
		</g>
		<g id="window-right3" display="inline">
			<text id="w333-value" transform="matrix(1 0 0 1 984.4746 -396.0684)" font-family="'AmaticSC-Regular'" font-size="18">1</text>
			<g id="w333-value-icon-0">
				<path fill="none" stroke="#000000" stroke-miterlimit="10" d="M935.279-416.361L911.8-388.118h122.396l34.313-28.243H935.279
					L935.279-416.361z M1033.458-390.546H917.495l19.878-23.576l124.478-0.001L1033.458-390.546z"/>
				<polygon fill="none" stroke="#000000" stroke-miterlimit="10" points="1061.851,-414.123 1056.405,-414 1033.458,-394.222 
					1033.458,-390.546 				"/>
				<polygon fill="none" stroke="#000000" stroke-miterlimit="10" points="921.369,-394.222 917.495,-390.546 1033.458,-390.546 
					1033.458,-394.222 				"/>
			</g>
			<g id="w333-value-icon-1">
				<path d="M935.279-416.361L911.8-388.118h122.396l34.313-28.243H935.279L935.279-416.361z M1033.458-390.546H917.495
					l19.878-23.576l124.478-0.001L1033.458-390.546z"/>
				<polygon stroke="#FFFFFF" stroke-miterlimit="10" points="1061.851,-414.123 1056.405,-414 1033.458,-394.222 
					1033.458,-390.546 				"/>
				<polygon stroke="#FFFFFF" stroke-miterlimit="10" points="921.369,-394.222 917.495,-390.546 1033.458,-390.546 
					1033.458,-394.222 				"/>
			</g>
		</g>
	</g>
	<g id="sensor-motion" display="none">
		<g id="motion-mot1" display="inline">
			
				<image overflow="visible" enable-background="new    " width="150" height="150" id="AndorraMotion1-icon-0" xlink:href="../img/sensors/2move.png"  transform="matrix(0.5236 0 0 0.5236 774.4678 -116.6831)">
			</image>
			
				<image overflow="visible" enable-background="new    " width="150" height="150" id="AndorraMotion1-icon-1" xlink:href="../img/sensors/moveanimation.gif"  transform="matrix(0.5236 0 0 0.5236 774.4678 -116.6831)">
			</image>
			
				<text id="AndorraMotion1-value" transform="matrix(1 0 0 1 842.2783 -43.4121)" font-family="'AmaticSC-Regular'" font-size="36">?</text>
		</g>
		<g id="motion-mot2" display="inline">
			
				<image overflow="visible" enable-background="new    " width="150" height="150" id="AndorraMotion2-icon-0" xlink:href="../img/sensors/2move.png"  transform="matrix(0.5236 0 0 0.5236 526.9033 -338.314)">
			</image>
			
				<image overflow="visible" enable-background="new    " width="150" height="150" id="AndorraMotion2-icon-1" xlink:href="../img/sensors/moveanimation.gif"  transform="matrix(0.5236 0 0 0.5236 526.9033 -338.314)">
			</image>
			
				<text id="AndorraMotion2-value" transform="matrix(1 0 0 1 594.7148 -265.043)" font-family="'AmaticSC-Regular'" font-size="36">?</text>
		</g>
	</g>
	<g id="sensor-presence" display="none">
		<g id="pres-Pir1" display="inline">
			
				<image overflow="visible" enable-background="new    " width="131" height="150" id="AndorraPIR1-icon-1" xlink:href="../img/sensors/presence-inv.png"  transform="matrix(0.6667 0 0 0.6667 857.5576 201.0122)">
			</image>
			
				<image overflow="visible" enable-background="new    " width="131" height="150" id="AndorraPIR1-icon-0" xlink:href="../img/sensors/presence.png"  transform="matrix(0.5 0 0 0.5 875.3906 226.0098)">
			</image>
			<rect x="935.665" y="260.805" fill="none" width="25" height="28"/>
			<text id="AndorraPIR1-value" transform="matrix(1 0 0 1 935.665 284.5879)" font-family="'AmaticSC-Regular'" font-size="36">?</text>
		</g>
	</g>
</g>
</svg>