<?xml version="1.0" encoding="utf-8"?>
<!-- Generator: Adobe Illustrator 16.0.0, SVG Export Plug-In . SVG Version: 6.00 Build 0)  -->
<!DOCTYPE svg PUBLIC "-//W3C//DTD SVG 1.1//EN" "http://www.w3.org/Graphics/SVG/1.1/DTD/svg11.dtd">
<svg version="1.1" id="root-layer" xmlns="http://www.w3.org/2000/svg" xmlns:xlink="http://www.w3.org/1999/xlink" x="0px" y="0px"
	 width="1041.811px" height="801px" viewBox="115.293 -467.866 1041.811 801"
	 enable-background="new 115.293 -467.866 1041.811 801" xml:space="preserve">

<g id="img-sensors">
	<g id="sensor-co2" display="none">
		<image display="inline" overflow="visible" enable-background="new    " width="103" height="150" id="co21-icon" xlink:href="../img/sensors/co2-black.png"  transform="matrix(1 0 0 1 892.2227 -388.2656)">
		</image>
		
			<text id="AndorraBob1-value" transform="matrix(1 0 0 1 937.3096 -313.2646)" display="inline" fill="none" stroke="#FFFFFF" stroke-miterlimit="10" font-family="'AmaticSC-Regular'" font-size="36">0.0</text>
		
			<text id="AndorraBob1-lastimevalue" transform="matrix(1 0 0 1 928.8633 -392.3838)" display="inline" fill="none" stroke="#000000" stroke-miterlimit="10" font-family="'AmaticSC-Regular'" font-size="18">yyyy/mm/dd 24:00</text>
		
			<image display="none" overflow="visible" enable-background="new    " width="173" height="150" id="AndorraBob1-warning" xlink:href="../img/sensors/warning-sign.png"  transform="matrix(0.18 0 0 0.18 995.916 -383.522)">
		</image>
	</g>
	<g id="sensor-temperature" display="none">
		<g id="sensor-temperature-displayarea" display="inline">
			<g id="sensor-temperature-blackrect">
				<rect x="617.293" y="-121.665" width="95.104" height="63.404"/>
			</g>
			<g id="temperature-icon">
				<image overflow="visible" enable-background="new    " width="73" height="151" xlink:href="../img/sensors/temperature-inv.png"  transform="matrix(0.2983 0 0 0.2983 623.2031 -113.9688)">
				</image>
			</g>
			<text id="sensor-temp-value" transform="matrix(1 0 0 1 652.9756 -85.3965)" fill="none" stroke="#FFFFFF" stroke-miterlimit="10" font-family="'AmaticSC-Regular'" font-size="24.027">?</text>
			<text id="sensor-temp-lastimevalue" transform="matrix(1 0 0 1 617.293 -42.2607)" fill="none" stroke="#000000" stroke-miterlimit="10" font-family="'AmaticSC-Regular'" font-size="18">yyyy/mm/dd 24:00</text>
			<image display="none" overflow="visible" enable-background="new    " width="173" height="150" id="temp-warning" xlink:href="../img/sensors/warning-sign.png"  transform="matrix(0.18 0 0 0.18 714.3984 -121.6646)">
			</image>
		</g>
	</g>
	<g id="sensor-light" display="none">
		<g id="sensor-light-displayarea" display="inline">
			<g id="sensor-light-blackrect">
				<rect x="617.294" y="-121.665" width="95.104" height="63.404"/>
			</g>
			<text id="sensor-light-value" transform="matrix(1 0 0 1 669.4814 -83.4004)" fill="none" stroke="#FFFFFF" stroke-miterlimit="10" font-family="'AmaticSC-Regular'" font-size="26">?</text>
			<text id="sensor-light-lastimevalue" transform="matrix(1 0 0 1 617.293 -42.2607)" fill="none" stroke="#000000" stroke-miterlimit="10" font-family="'AmaticSC-Regular'" font-size="18">yyyy/mm/dd 24:00</text>
			<image overflow="visible" enable-background="new    " width="97" height="150" id="light2-icon" xlink:href="../img/sensors/light-inv.png"  transform="matrix(0.3864 0 0 0.3864 621.3662 -120.9922)">
			</image>
			<image display="none" overflow="visible" enable-background="new    " width="173" height="150" id="light2-warning" xlink:href="../img/sensors/warning-sign.png"  transform="matrix(0.18 0 0 0.18 714.3984 -121.6646)">
			</image>
		</g>
	</g>
	<g id="sensor-humidity" display="none">
		<image display="inline" overflow="visible" enable-background="new    " width="121" height="150" id="hum1-icon" xlink:href="../img/sensors/humidity-inv.png"  transform="matrix(1 0 0 1 624.5508 -198.3535)">
		</image>
			<text id="sensor-humidity-value" transform="matrix(1 0 0 1 647.2773 -91.4766)" display="inline" fill="none" stroke="#FFFFFF" stroke-miterlimit="10" font-family="'AmaticSC-Regular'" font-size="24">0%</text>
			<text id="sensor-humidity-lastimevalue" transform="matrix(1 0 0 1 627.5508 -31.7813)" display="inline" fill="none" stroke="#000000" stroke-miterlimit="10" font-family="'AmaticSC-Regular'" font-size="18">yyyy/mm/dd 24:00</text>
			<image display="none" overflow="visible" enable-background="new    " width="173" height="150" id="AndorraHumidity1-warning" xlink:href="../img/sensors/warning-sign-inv.png"  transform="matrix(0.15 0 0 0.15 711 -277.7461)">
		</image>
	</g>
	<g id="sensor-door" display="none">
		<g id="door-d2" display="inline">

				<image overflow="visible" enable-background="new    " width="109" height="150" id="door2-value-icon-1" xlink:href="../img/sensors/door-open.png"  transform="matrix(0.5543 0 0 0.5543 862.1377 221.5415)">
			</image>

				<image overflow="visible" enable-background="new    " width="109" height="150" id="door2-value-icon-0" xlink:href="../img/sensors/door-close.png"  transform="matrix(0.5543 0 0 0.5543 862.1357 221.5425)">
			</image>
			<rect x="935.665" y="260.805" fill="none" width="25" height="28"/>
			<text id="door2-value" transform="matrix(1 0 0 1 935.665 284.5879)" font-family="'AmaticSC-Regular'" font-size="36">1</text>
		</g>
	</g>

	<g id="sensor-presence" display="none">
		<g id="pres-Pir1" display="inline">

				<image overflow="visible" enable-background="new    " width="131" height="150" id="AndorraPIR1-icon-1" xlink:href="../img/sensors/presence-inv.png"  transform="matrix(0.6667 0 0 0.6667 857.5576 201.0122)">
			</image>

				<image overflow="visible" enable-background="new    " width="131" height="150" id="AndorraPIR1-icon-0" xlink:href="../img/sensors/presence.png"  transform="matrix(0.5 0 0 0.5 875.3906 226.0098)">
			</image>
			<rect x="935.665" y="260.805" fill="none" width="25" height="28"/>
			<text id="AndorraPIR1-value" transform="matrix(1 0 0 1 935.665 284.5879)" font-family="'AmaticSC-Regular'" font-size="36">?</text>
		</g>
	</g>
	<g id="sensor-proximity" display="none">
		<image overflow="visible" enable-background="new    " width="131" height="150" id="proximity" xlink:href="../img/sensors/proximity.png"  transform="matrix(0.6667 0 0 0.6667 624.5508 -178.3535)">
		</image>
		<text id="sensor-proximity-value" transform="matrix(1 0 0 1 647.2773 -51.4766)" display="inline" fill="none" stroke="#000000" stroke-miterlimit="10" font-family="'AmaticSC-Regular'" font-size="24">0%</text>
		<text id="sensor-proximity-lastimevalue" transform="matrix(1 0 0 1 627.5508 -31.7813)" display="inline" fill="none" stroke="#000000" stroke-miterlimit="10" font-family="'AmaticSC-Regular'" font-size="18">yyyy/mm/dd 24:00</text>
		<image display="none" overflow="visible" enable-background="new    " width="173" height="150" id="AndorraProximity-warning" xlink:href="../img/sensors/warning-sign-inv.png"  transform="matrix(0.15 0 0 0.15 711 -277.7461)">
		</image>
	</g>
	<g id="sensor-pressure" display="none">
		<image overflow="visible" enable-background="new    " width="131" height="150" id="pressure" xlink:href="../img/sensors/pressure.png"  transform="matrix(0.6667 0 0 0.6667 624.5508 -188.3535)">
		</image>
		<text id="sensor-pressure-value" transform="matrix(1 0 0 1 647.2773 -51.4766)" display="inline" fill="none" stroke="#000000" stroke-miterlimit="10" font-family="'AmaticSC-Regular'" font-size="24">0%</text>
		<text id="sensor-pressure-lastimevalue" transform="matrix(1 0 0 1 627.5508 -31.7813)" display="inline" fill="none" stroke="#000000" stroke-miterlimit="10" font-family="'AmaticSC-Regular'" font-size="18">yyyy/mm/dd 24:00</text>
		<image display="none" overflow="visible" enable-background="new    " width="173" height="150" id="AndorraPressure-warning" xlink:href="../img/sensors/warning-sign-inv.png"  transform="matrix(0.15 0 0 0.15 711 -277.7461)">
		</image>
	</g>


	<!--<g id="sensor-curtains" display="none">-->
		<!--<g id="curtains-right2" display="inline">-->
			<!--<text id="cur0325-value" transform="matrix(1 0 0 1 984.1846 -314)" font-family="'AmaticSC-Regular'" font-size="36">1</text>-->

				<!--<image overflow="visible" enable-background="new    " width="132" height="73" id="curtain-right2-icon" xlink:href="../img/sensors/curtain-right2.png"  transform="matrix(1 0 0 1 971.125 -416)">-->
			<!--</image>-->
		<!--</g>-->
		<!--<g id="curtains-right1" display="inline">-->
			<!--<text id="cur0066-value" transform="matrix(1 0 0 1 678.0557 -314)" font-family="'AmaticSC-Regular'" font-size="36">1</text>-->

				<!--<image overflow="visible" enable-background="new    " width="40" height="69" id="curtain-right1-icon" xlink:href="../img/sensors/curtain-right1.png"  transform="matrix(1 0 0 1 661.6406 -416)">-->
			<!--</image>-->
		<!--</g>-->
		<!--<g id="curtains-left2" display="inline">-->
			<!--<text id="cur0995-value" transform="matrix(1 0 0 1 617.3564 -314)" font-family="'AmaticSC-Regular'" font-size="36">1</text>-->

				<!--<image overflow="visible" enable-background="new    " width="38" height="70" id="curtain-left2-icon" xlink:href="../img/sensors/curtain-left2.png"  transform="matrix(1 0 0 1 596.2344 -416)">-->
			<!--</image>-->
		<!--</g>-->
		<!--<g id="curtains-left1" display="inline">-->
			<!--<text id="cur0210-value" transform="matrix(1 0 0 1 425.7432 -314)" font-family="'AmaticSC-Regular'" font-size="36">1</text>-->

				<!--<image overflow="visible" enable-background="new    " width="93" height="69" id="curtain-left1-icon" xlink:href="../img/sensors/curtain-left1.png"  transform="matrix(1 0 0 1 347.2158 -416)">-->
			<!--</image>-->
		<!--</g>-->
	<!--</g>-->
	<!--<g id="sensor-motion" display="none">-->
		<!--<g id="motion-mot1" display="inline">-->

				<!--<image overflow="visible" enable-background="new    " width="150" height="150" id="AndorraMotion1-icon-0" xlink:href="../img/sensors/2move.png"  transform="matrix(0.5236 0 0 0.5236 774.4678 -116.6831)">-->
			<!--</image>-->

				<!--<image overflow="visible" enable-background="new    " width="150" height="150" id="AndorraMotion1-icon-1" xlink:href="../img/sensors/moveanimation.gif"  transform="matrix(0.5236 0 0 0.5236 774.4678 -116.6831)">-->
			<!--</image>-->

				<!--<text id="AndorraMotion1-value" transform="matrix(1 0 0 1 842.2783 -43.4121)" font-family="'AmaticSC-Regular'" font-size="36">?</text>-->
		<!--</g>-->
		<!--<g id="motion-mot2" display="inline">-->

				<!--<image overflow="visible" enable-background="new    " width="150" height="150" id="AndorraMotion2-icon-0" xlink:href="../img/sensors/2move.png"  transform="matrix(0.5236 0 0 0.5236 526.9033 -338.314)">-->
			<!--</image>-->

				<!--<image overflow="visible" enable-background="new    " width="150" height="150" id="AndorraMotion2-icon-1" xlink:href="../img/sensors/moveanimation.gif"  transform="matrix(0.5236 0 0 0.5236 526.9033 -338.314)">-->
			<!--</image>-->

				<!--<text id="AndorraMotion2-value" transform="matrix(1 0 0 1 594.7148 -265.043)" font-family="'AmaticSC-Regular'" font-size="36">?</text>-->
		<!--</g>-->
	<!--</g>-->
</g>
</svg>